<svg width="245" height="145" viewBox="0 0 245 145" fill="none" xmlns="http://www.w3.org/2000/svg">
<circle cx="2.5" cy="102.5" r="2.5" fill="#515BE7"/>
<circle cx="22.5" cy="102.5" r="2.5" fill="#515BE7"/>
<circle cx="42.5" cy="102.5" r="2.5" fill="#515BE7"/>
<circle cx="62.5" cy="102.5" r="2.5" fill="#515BE7"/>
<circle cx="82.5" cy="102.5" r="2.5" fill="#515BE7"/>
<circle cx="102.5" cy="102.5" r="2.5" fill="#515BE7"/>
<circle cx="122.5" cy="102.5" r="2.5" fill="#515BE7"/>
<circle cx="142.5" cy="102.5" r="2.5" fill="#515BE7"/>
<circle cx="162.5" cy="102.5" r="2.5" fill="#515BE7"/>
<circle cx="182.5" cy="102.5" r="2.5" fill="#515BE7"/>
<circle cx="202.5" cy="102.5" r="2.5" fill="#515BE7"/>
<circle cx="222.5" cy="102.5" r="2.5" fill="#515BE7"/>
<circle cx="242.5" cy="102.5" r="2.5" fill="#515BE7"/>
<circle cx="2.5" cy="82.5" r="2.5" fill="#515BE7"/>
<circle cx="22.5" cy="82.5" r="2.5" fill="#515BE7"/>
<circle cx="42.5" cy="82.5" r="2.5" fill="#515BE7"/>
<circle cx="62.5" cy="82.5" r="2.5" fill="#515BE7"/>
<circle cx="82.5" cy="82.5" r="2.5" fill="#515BE7"/>
<circle cx="102.5" cy="82.5" r="2.5" fill="#515BE7"/>
<circle cx="122.5" cy="82.5" r="2.5" fill="#515BE7"/>
<circle cx="142.5" cy="82.5" r="2.5" fill="#515BE7"/>
<circle cx="162.5" cy="82.5" r="2.5" fill="#515BE7"/>
<circle cx="182.5" cy="82.5" r="2.5" fill="#515BE7"/>
<circle cx="202.5" cy="82.5" r="2.5" fill="#515BE7"/>
<circle cx="222.5" cy="82.5" r="2.5" fill="#515BE7"/>
<circle cx="242.5" cy="82.5" r="2.5" fill="#515BE7"/>
<circle cx="2.5" cy="62.5" r="2.5" fill="#515BE7"/>
<circle cx="22.5" cy="62.5" r="2.5" fill="#515BE7"/>
<circle cx="42.5" cy="62.5" r="2.5" fill="#515BE7"/>
<circle cx="62.5" cy="62.5" r="2.5" fill="#515BE7"/>
<circle cx="82.5" cy="62.5" r="2.5" fill="#515BE7"/>
<circle cx="102.5" cy="62.5" r="2.5" fill="#515BE7"/>
<circle cx="122.5" cy="62.5" r="2.5" fill="#515BE7"/>
<circle cx="142.5" cy="62.5" r="2.5" fill="#515BE7"/>
<circle cx="162.5" cy="62.5" r="2.5" fill="#515BE7"/>
<circle cx="182.5" cy="62.5" r="2.5" fill="#515BE7"/>
<circle cx="202.5" cy="62.5" r="2.5" fill="#515BE7"/>
<circle cx="222.5" cy="62.5" r="2.5" fill="#515BE7"/>
<circle cx="242.5" cy="62.5" r="2.5" fill="#515BE7"/>
<circle cx="2.5" cy="42.5" r="2.5" fill="#515BE7"/>
<circle cx="22.5" cy="42.5" r="2.5" fill="#515BE7"/>
<circle cx="42.5" cy="42.5" r="2.5" fill="#515BE7"/>
<circle cx="62.5" cy="42.5" r="2.5" fill="#515BE7"/>
<circle cx="82.5" cy="42.5" r="2.5" fill="#515BE7"/>
<circle cx="102.5" cy="42.5" r="2.5" fill="#515BE7"/>
<circle cx="122.5" cy="42.5" r="2.5" fill="#515BE7"/>
<circle cx="142.5" cy="42.5" r="2.5" fill="#515BE7"/>
<circle cx="162.5" cy="42.5" r="2.5" fill="#515BE7"/>
<circle cx="182.5" cy="42.5" r="2.5" fill="#515BE7"/>
<circle cx="202.5" cy="42.5" r="2.5" fill="#515BE7"/>
<circle cx="222.5" cy="42.5" r="2.5" fill="#515BE7"/>
<circle cx="242.5" cy="42.5" r="2.5" fill="#515BE7"/>
<circle cx="2.5" cy="22.5" r="2.5" fill="#515BE7"/>
<circle cx="22.5" cy="22.5" r="2.5" fill="#515BE7"/>
<circle cx="42.5" cy="22.5" r="2.5" fill="#515BE7"/>
<circle cx="62.5" cy="22.5" r="2.5" fill="#515BE7"/>
<circle cx="82.5" cy="22.5" r="2.5" fill="#515BE7"/>
<circle cx="102.5" cy="22.5" r="2.5" fill="#515BE7"/>
<circle cx="122.5" cy="22.5" r="2.5" fill="#515BE7"/>
<circle cx="142.5" cy="22.5" r="2.5" fill="#515BE7"/>
<circle cx="162.5" cy="22.5" r="2.5" fill="#515BE7"/>
<circle cx="182.5" cy="22.5" r="2.5" fill="#515BE7"/>
<circle cx="202.5" cy="22.5" r="2.5" fill="#515BE7"/>
<circle cx="222.5" cy="22.5" r="2.5" fill="#515BE7"/>
<circle cx="242.5" cy="22.5" r="2.5" fill="#515BE7"/>
<circle cx="2.5" cy="2.5" r="2.5" fill="#515BE7"/>
<circle cx="22.5" cy="2.5" r="2.5" fill="#515BE7"/>
<circle cx="42.5" cy="2.5" r="2.5" fill="#515BE7"/>
<circle cx="62.5" cy="2.5" r="2.5" fill="#515BE7"/>
<circle cx="82.5" cy="2.5" r="2.5" fill="#515BE7"/>
<circle cx="102.5" cy="2.5" r="2.5" fill="#515BE7"/>
<circle cx="122.5" cy="2.5" r="2.5" fill="#515BE7"/>
<circle cx="142.5" cy="2.5" r="2.5" fill="#515BE7"/>
<circle cx="162.5" cy="2.5" r="2.5" fill="#515BE7"/>
<circle cx="182.5" cy="2.5" r="2.5" fill="#515BE7"/>
<circle cx="202.5" cy="2.5" r="2.5" fill="#515BE7"/>
<circle cx="222.5" cy="2.5" r="2.5" fill="#515BE7"/>
<circle cx="242.5" cy="2.5" r="2.5" fill="#515BE7"/>
<circle cx="2.5" cy="122.5" r="2.5" fill="#515BE7"/>
<circle cx="22.5" cy="122.5" r="2.5" fill="#515BE7"/>
<circle cx="42.5" cy="122.5" r="2.5" fill="#515BE7"/>
<circle cx="62.5" cy="122.5" r="2.5" fill="#515BE7"/>
<circle cx="82.5" cy="122.5" r="2.5" fill="#515BE7"/>
<circle cx="102.5" cy="122.5" r="2.5" fill="#515BE7"/>
<circle cx="122.5" cy="122.5" r="2.5" fill="#515BE7"/>
<circle cx="142.5" cy="122.5" r="2.5" fill="#515BE7"/>
<circle cx="162.5" cy="122.5" r="2.5" fill="#515BE7"/>
<circle cx="182.5" cy="122.5" r="2.5" fill="#515BE7"/>
<circle cx="202.5" cy="122.5" r="2.5" fill="#515BE7"/>
<circle cx="222.5" cy="122.5" r="2.5" fill="#515BE7"/>
<circle cx="242.5" cy="122.5" r="2.5" fill="#515BE7"/>
<circle cx="2.5" cy="142.5" r="2.5" fill="#515BE7"/>
<circle cx="22.5" cy="142.5" r="2.5" fill="#515BE7"/>
<circle cx="42.5" cy="142.5" r="2.5" fill="#515BE7"/>
<circle cx="62.5" cy="142.5" r="2.5" fill="#515BE7"/>
<circle cx="82.5" cy="142.5" r="2.5" fill="#515BE7"/>
<circle cx="102.5" cy="142.5" r="2.5" fill="#515BE7"/>
<circle cx="122.5" cy="142.5" r="2.5" fill="#515BE7"/>
<circle cx="142.5" cy="142.5" r="2.5" fill="#515BE7"/>
<circle cx="162.5" cy="142.5" r="2.5" fill="#515BE7"/>
<circle cx="182.5" cy="142.5" r="2.5" fill="#515BE7"/>
<circle cx="202.5" cy="142.5" r="2.5" fill="#515BE7"/>
<circle cx="222.5" cy="142.5" r="2.5" fill="#515BE7"/>
<circle cx="242.5" cy="142.5" r="2.5" fill="#515BE7"/>
</svg>
