<svg xmlns="http://www.w3.org/2000/svg" width="738" height="194" viewBox="0 0 738 194"><g transform="translate(-720 -1896)"><path d="M8,0H730a8,8,0,0,1,8,8V186a8,8,0,0,1-8,8H8a8,8,0,0,1-8-8V8A8,8,0,0,1,8,0Z" transform="translate(720 1896)" fill="#262626"/><path d="M8,0A8,8,0,1,1,0,8,8,8,0,0,1,8,0Z" transform="translate(742 1913)" fill="#ff4f3c"/><path d="M8,0A8,8,0,1,1,0,8,8,8,0,0,1,8,0Z" transform="translate(768 1913)" fill="#efbb00"/><path d="M8,0A8,8,0,1,1,0,8,8,8,0,0,1,8,0Z" transform="translate(794 1913)" fill="#00c800"/><path d="M5.1,19.362v-1.38q-.589,0-1.222-.062a9.311,9.311,0,0,1-1.187-.189,6.979,6.979,0,0,1-1.274-.453V15.592a10.921,10.921,0,0,0,1.138.51,7.4,7.4,0,0,0,1.178.334,11.031,11.031,0,0,0,1.367.176v-4.9l-.94-.51Q1.485,9.773,1.485,7.743a3.2,3.2,0,0,1,.888-2.1A3.882,3.882,0,0,1,5.1,4.456V3h1.23V4.456a10.148,10.148,0,0,1,2.452.36V6.337l-.308-.088A13.168,13.168,0,0,0,6.328,5.8v4.781l.984.563a5.635,5.635,0,0,1,1.9,1.573,2.918,2.918,0,0,1,.514,1.644,3.185,3.185,0,0,1-.391,1.516,3.7,3.7,0,0,1-1.121,1.261,4.51,4.51,0,0,1-1.89.729v1.494Zm0-9.519V5.783a2.813,2.813,0,0,0-1.367.668,1.473,1.473,0,0,0-.479,1.09A1.847,1.847,0,0,0,3.661,8.67,5.3,5.3,0,0,0,5.1,9.844Zm1.23,2.6v4.043a2.569,2.569,0,0,0,1.3-.839,1.93,1.93,0,0,0,.338-1.112,1.61,1.61,0,0,0-.334-1.024A5.847,5.847,0,0,0,6.328,12.445ZM23.08,17.481V15.75a6.548,6.548,0,0,0,2.083.9,8.343,8.343,0,0,0,1.863.259,3.075,3.075,0,0,0,1.784-.4,1.2,1.2,0,0,0,.545-1,.973.973,0,0,0-.255-.677,3.971,3.971,0,0,0-1.266-.694l-.562-.229-1.134-.448a5.816,5.816,0,0,1-2.3-1.318,2.246,2.246,0,0,1-.483-1.459,2.486,2.486,0,0,1,.936-2,4.724,4.724,0,0,1,3.037-.782,9.58,9.58,0,0,1,2.979.457V9.853a9.027,9.027,0,0,0-3.041-.58,3.057,3.057,0,0,0-1.622.365,1.061,1.061,0,0,0-.584.91.958.958,0,0,0,.51.844,9.19,9.19,0,0,0,1.635.729l1.107.4a5.623,5.623,0,0,1,2.136,1.2,2.274,2.274,0,0,1,.615,1.626,2.615,2.615,0,0,1-.98,2.1,4.846,4.846,0,0,1-3.133.822A10.417,10.417,0,0,1,23.08,17.481Zm18.853-.132a8.66,8.66,0,0,1-3.709.932,4.357,4.357,0,0,1-2.373-.659,4.7,4.7,0,0,1-1.674-1.885,5.671,5.671,0,0,1-.628-2.624,5.879,5.879,0,0,1,.6-2.584A4.619,4.619,0,0,1,35.815,8.6a4.325,4.325,0,0,1,2.391-.69,3.5,3.5,0,0,1,2.808,1.248,5.858,5.858,0,0,1,1.059,3.85v.352H35.306a4.072,4.072,0,0,0,.426,1.863,3.03,3.03,0,0,0,1.121,1.266,2.986,2.986,0,0,0,1.582.422,7.37,7.37,0,0,0,3.5-1.055ZM35.4,12.138h4.9V11.9a2.913,2.913,0,0,0-.589-1.916,1.938,1.938,0,0,0-1.573-.712A2.348,2.348,0,0,0,36.417,10,4.126,4.126,0,0,0,35.4,12.138ZM44.569,18V8.183H46.2v2.145a5.547,5.547,0,0,1,1.7-1.775,3.637,3.637,0,0,1,1.986-.642,2.847,2.847,0,0,1,1.582.461,2.468,2.468,0,0,1,1,1.208,9.736,9.736,0,0,1,.286,2.936V18H51.117V12.313a8,8,0,0,0-.136-1.868,1.466,1.466,0,0,0-.5-.743,1.251,1.251,0,0,0-.8-.29,2.991,2.991,0,0,0-1.85.817,6.541,6.541,0,0,0-1.63,2.048V18Zm17.358-2.206a5.283,5.283,0,0,1-1.8,1.854,3.839,3.839,0,0,1-1.929.624,2.947,2.947,0,0,1-2.21-1.063,4.623,4.623,0,0,1-.98-3.226,6.889,6.889,0,0,1,.65-3.045A5.477,5.477,0,0,1,57.4,8.82a4.526,4.526,0,0,1,2.7-.778q.466,0,1.406.1.141.018.422.044V3.814h1.644V18H61.928Zm0-1.942V9.642a6.392,6.392,0,0,0-1.617-.229,3.186,3.186,0,0,0-2.518,1.169,4.714,4.714,0,0,0-1.006,3.182,3.68,3.68,0,0,0,.549,2.2,1.558,1.558,0,0,0,1.252.743,2.743,2.743,0,0,0,1.688-.773A7.33,7.33,0,0,0,61.928,13.852Zm12.41,3.5a8.66,8.66,0,0,1-3.709.932,4.357,4.357,0,0,1-2.373-.659,4.7,4.7,0,0,1-1.674-1.885,5.671,5.671,0,0,1-.628-2.624,5.879,5.879,0,0,1,.6-2.584A4.619,4.619,0,0,1,68.221,8.6a4.325,4.325,0,0,1,2.391-.69,3.5,3.5,0,0,1,2.808,1.248,5.858,5.858,0,0,1,1.059,3.85v.352H67.711a4.072,4.072,0,0,0,.426,1.863,3.03,3.03,0,0,0,1.121,1.266,2.986,2.986,0,0,0,1.582.422,7.37,7.37,0,0,0,3.5-1.055Zm-6.53-5.212h4.9V11.9a2.913,2.913,0,0,0-.589-1.916,1.938,1.938,0,0,0-1.573-.712A2.348,2.348,0,0,0,68.823,10,4.126,4.126,0,0,0,67.808,12.138ZM77.994,18H76.1l3.858-5.142-3.6-4.676h2.092l2.558,3.3,2.487-3.3h1.854L81.94,12.7,85.992,18h-2.1L80.9,14.089Zm20.584,0V8.183h1.635v2.145a5.547,5.547,0,0,1,1.7-1.775A3.637,3.637,0,0,1,103.9,7.91a2.847,2.847,0,0,1,1.582.461,2.468,2.468,0,0,1,1,1.208,9.736,9.736,0,0,1,.286,2.936V18h-1.635V12.313a8,8,0,0,0-.136-1.868,1.466,1.466,0,0,0-.5-.743,1.251,1.251,0,0,0-.8-.29,2.991,2.991,0,0,0-1.85.817,6.541,6.541,0,0,0-1.63,2.048V18Zm18.967-.65a8.66,8.66,0,0,1-3.709.932,4.357,4.357,0,0,1-2.373-.659,4.7,4.7,0,0,1-1.674-1.885,5.671,5.671,0,0,1-.628-2.624,5.879,5.879,0,0,1,.6-2.584,4.619,4.619,0,0,1,1.67-1.929,4.325,4.325,0,0,1,2.391-.69,3.5,3.5,0,0,1,2.808,1.248,5.858,5.858,0,0,1,1.059,3.85v.352h-6.768a4.072,4.072,0,0,0,.426,1.863,3.03,3.03,0,0,0,1.121,1.266,2.986,2.986,0,0,0,1.582.422,7.37,7.37,0,0,0,3.5-1.055Zm-6.53-5.212h4.9V11.9a2.913,2.913,0,0,0-.589-1.916,1.938,1.938,0,0,0-1.573-.712A2.348,2.348,0,0,0,112.03,10,4.126,4.126,0,0,0,111.015,12.138ZM120.595,18,119,8.183h1.521l.932,5.977.246,1.389.237-1.389L123.5,8.183h1.468l1.767,5.977.308,1.389.2-1.389.94-5.977h1.257L127.846,18h-1.529l-1.881-6.319-.3-1.389h-.044l-.272,1.38L122.186,18Zm27.747-2.206a5.283,5.283,0,0,1-1.8,1.854,3.839,3.839,0,0,1-1.929.624,2.947,2.947,0,0,1-2.21-1.063,4.623,4.623,0,0,1-.98-3.226,6.889,6.889,0,0,1,.65-3.045,5.477,5.477,0,0,1,1.74-2.118,4.526,4.526,0,0,1,2.7-.778q.466,0,1.406.1.141.018.422.044h1.644v6.943q0,2.479-.066,3.028a8.078,8.078,0,0,1-.215,1.112,3.383,3.383,0,0,1-1.6,2.065,5.755,5.755,0,0,1-3.028.756,8.03,8.03,0,0,1-3.612-.914V19.521a7.556,7.556,0,0,0,1.709.839,5.8,5.8,0,0,0,1.964.365,4.2,4.2,0,0,0,1.415-.237,2.639,2.639,0,0,0,1.081-.686,2.366,2.366,0,0,0,.563-1.042,6.693,6.693,0,0,0,.149-1.578Zm0-1.942V9.642a6.392,6.392,0,0,0-1.617-.229,3.186,3.186,0,0,0-2.518,1.169,4.714,4.714,0,0,0-1.006,3.182,3.68,3.68,0,0,0,.549,2.2,1.558,1.558,0,0,0,1.252.743,2.743,2.743,0,0,0,1.688-.773A7.33,7.33,0,0,0,148.342,13.852Zm12.41,3.5a8.66,8.66,0,0,1-3.709.932,4.357,4.357,0,0,1-2.373-.659A4.7,4.7,0,0,1,153,15.737a5.671,5.671,0,0,1-.628-2.624,5.879,5.879,0,0,1,.6-2.584,4.619,4.619,0,0,1,1.67-1.929,4.325,4.325,0,0,1,2.391-.69,3.5,3.5,0,0,1,2.808,1.248,5.858,5.858,0,0,1,1.059,3.85v.352h-6.768a4.072,4.072,0,0,0,.426,1.863,3.03,3.03,0,0,0,1.121,1.266,2.986,2.986,0,0,0,1.582.422,7.37,7.37,0,0,0,3.5-1.055Zm-6.53-5.212h4.9V11.9a2.913,2.913,0,0,0-.589-1.916,1.938,1.938,0,0,0-1.573-.712,2.348,2.348,0,0,0-1.718.725A4.126,4.126,0,0,0,154.222,12.138ZM171.6,17.6a9.16,9.16,0,0,1-1.67.576,5.717,5.717,0,0,1-1,.092,4.415,4.415,0,0,1-1.881-.4,2.768,2.768,0,0,1-1.288-1.169,5.052,5.052,0,0,1-.435-2.391V10.362H162.87V9h2.452V5.045h1.635V9h4.368v1.362h-4.368v3.929a3.588,3.588,0,0,0,.281,1.674,1.733,1.733,0,0,0,.751.716,2.519,2.519,0,0,0,1.112.229,5.054,5.054,0,0,0,2.5-.747ZM186.5,10.389a5.369,5.369,0,0,1,1.8-1.854,3.817,3.817,0,0,1,1.925-.624,2.961,2.961,0,0,1,2.215,1.063,4.609,4.609,0,0,1,.984,3.226,6.85,6.85,0,0,1-.655,3.045,5.512,5.512,0,0,1-1.745,2.118,4.526,4.526,0,0,1-2.7.778q-.457,0-1.406-.1-.141-.018-.422-.044v3.814h-1.635V8.183H186.5Zm0,1.942v4.21a6.6,6.6,0,0,0,1.635.229,3.19,3.19,0,0,0,2.5-1.165,4.684,4.684,0,0,0,1.015-3.186,3.654,3.654,0,0,0-.554-2.206,1.571,1.571,0,0,0-1.257-.738,2.727,2.727,0,0,0-1.683.773A7.5,7.5,0,0,0,186.5,12.331Zm13.333,5.941a4.228,4.228,0,0,1-3.375-1.472,5.494,5.494,0,0,1-1.266-3.713,5.477,5.477,0,0,1,1.266-3.709,4.6,4.6,0,0,1,6.741,0,5.477,5.477,0,0,1,1.266,3.709A5.494,5.494,0,0,1,203.2,16.8,4.218,4.218,0,0,1,199.837,18.272Zm0-1.362a2.479,2.479,0,0,0,2.083-1.02,4.54,4.54,0,0,0,.773-2.8,4.524,4.524,0,0,0-.773-2.795,2.647,2.647,0,0,0-4.175,0,4.524,4.524,0,0,0-.773,2.795,4.54,4.54,0,0,0,.773,2.8A2.488,2.488,0,0,0,199.837,16.91Zm6.873.571V15.75a6.548,6.548,0,0,0,2.083.9,8.343,8.343,0,0,0,1.863.259,3.075,3.075,0,0,0,1.784-.4,1.2,1.2,0,0,0,.545-1,.973.973,0,0,0-.255-.677,3.971,3.971,0,0,0-1.266-.694l-.562-.229-1.134-.448a5.816,5.816,0,0,1-2.3-1.318,2.246,2.246,0,0,1-.483-1.459,2.486,2.486,0,0,1,.936-2,4.724,4.724,0,0,1,3.037-.782,9.58,9.58,0,0,1,2.979.457V9.853a9.027,9.027,0,0,0-3.041-.58,3.057,3.057,0,0,0-1.622.365,1.061,1.061,0,0,0-.584.91.958.958,0,0,0,.51.844,9.19,9.19,0,0,0,1.635.729l1.107.4a5.623,5.623,0,0,1,2.136,1.2,2.274,2.274,0,0,1,.615,1.626,2.615,2.615,0,0,1-.98,2.1,4.846,4.846,0,0,1-3.133.822A10.417,10.417,0,0,1,206.71,17.481Zm18.9.123a9.16,9.16,0,0,1-1.67.576,5.717,5.717,0,0,1-1,.092,4.415,4.415,0,0,1-1.881-.4,2.768,2.768,0,0,1-1.288-1.169,5.052,5.052,0,0,1-.435-2.391V10.362h-2.452V9h2.452V5.045h1.635V9h4.368v1.362h-4.368v3.929a3.588,3.588,0,0,0,.281,1.674,1.733,1.733,0,0,0,.751.716,2.519,2.519,0,0,0,1.112.229,5.054,5.054,0,0,0,2.5-.747Zm2.707-.123V15.75a6.548,6.548,0,0,0,2.083.9,8.343,8.343,0,0,0,1.863.259,3.075,3.075,0,0,0,1.784-.4,1.2,1.2,0,0,0,.545-1,.973.973,0,0,0-.255-.677,3.971,3.971,0,0,0-1.266-.694l-.562-.229-1.134-.448a5.816,5.816,0,0,1-2.3-1.318,2.246,2.246,0,0,1-.483-1.459,2.486,2.486,0,0,1,.936-2,4.724,4.724,0,0,1,3.037-.782,9.58,9.58,0,0,1,2.979.457V9.853a9.027,9.027,0,0,0-3.041-.58,3.057,3.057,0,0,0-1.622.365,1.061,1.061,0,0,0-.584.91.958.958,0,0,0,.51.844,9.19,9.19,0,0,0,1.635.729l1.107.4a5.623,5.623,0,0,1,2.136,1.2,2.274,2.274,0,0,1,.615,1.626,2.615,2.615,0,0,1-.98,2.1,4.846,4.846,0,0,1-3.133.822A10.417,10.417,0,0,1,228.313,17.481Z" transform="translate(742 1955)" fill="#fff"/><path d="M9.563,17.842a7.946,7.946,0,0,1-2.742.571,5.371,5.371,0,0,1-2.944-.857,5.6,5.6,0,0,1-2.092-2.549,9.383,9.383,0,0,1-.747-3.828,9.4,9.4,0,0,1,.738-3.806A5.631,5.631,0,0,1,3.858,4.816a5.341,5.341,0,0,1,2.962-.87,7.946,7.946,0,0,1,2.742.571V6.135A5.587,5.587,0,0,0,6.75,5.317a2.964,2.964,0,0,0-1.929.721A4.988,4.988,0,0,0,3.41,8.152a8.36,8.36,0,0,0-.536,3.028,8.3,8.3,0,0,0,.554,3.067,5,5,0,0,0,1.415,2.1,2.956,2.956,0,0,0,1.907.7,5.62,5.62,0,0,0,2.813-.817ZM13,18V8.183h1.635v2.145a5.494,5.494,0,0,1,1.753-1.815,4.15,4.15,0,0,1,2.2-.6,6.023,6.023,0,0,1,1.775.272v3.542H18.791V9.483a4.12,4.12,0,0,0-.65-.07,2.814,2.814,0,0,0-1.793.721A7.881,7.881,0,0,0,14.634,12.3V18Zm18.132-.65a8.66,8.66,0,0,1-3.709.932,4.357,4.357,0,0,1-2.373-.659,4.7,4.7,0,0,1-1.674-1.885,5.671,5.671,0,0,1-.628-2.624,5.879,5.879,0,0,1,.6-2.584A4.619,4.619,0,0,1,25.014,8.6,4.325,4.325,0,0,1,27.4,7.91a3.5,3.5,0,0,1,2.808,1.248,5.858,5.858,0,0,1,1.059,3.85v.352H24.5a4.072,4.072,0,0,0,.426,1.863,3.03,3.03,0,0,0,1.121,1.266,2.986,2.986,0,0,0,1.582.422,7.37,7.37,0,0,0,3.5-1.055ZM24.6,12.138h4.9V11.9a2.913,2.913,0,0,0-.589-1.916,1.938,1.938,0,0,0-1.573-.712A2.348,2.348,0,0,0,25.616,10,4.126,4.126,0,0,0,24.6,12.138Zm15.618,3.656a5.283,5.283,0,0,1-1.8,1.854,3.839,3.839,0,0,1-1.929.624,2.947,2.947,0,0,1-2.21-1.063,4.623,4.623,0,0,1-.98-3.226,6.889,6.889,0,0,1,.65-3.045,5.477,5.477,0,0,1,1.74-2.118,4.526,4.526,0,0,1,2.7-.778q.466,0,1.406.1.141.018.422.044h1.644v6.935A9.317,9.317,0,0,0,42.231,18H40.526A15.3,15.3,0,0,1,40.219,15.794Zm0-1.942V9.642A6.392,6.392,0,0,0,38.6,9.413a3.186,3.186,0,0,0-2.518,1.169,4.714,4.714,0,0,0-1.006,3.182,3.68,3.68,0,0,0,.549,2.2,1.558,1.558,0,0,0,1.252.743,2.743,2.743,0,0,0,1.688-.773A7.33,7.33,0,0,0,40.219,13.852ZM52.778,17.6a9.16,9.16,0,0,1-1.67.576,5.717,5.717,0,0,1-1,.092,4.415,4.415,0,0,1-1.881-.4,2.768,2.768,0,0,1-1.288-1.169,5.052,5.052,0,0,1-.435-2.391V10.362H44.051V9H46.5V5.045h1.635V9h4.368v1.362H48.138v3.929a3.588,3.588,0,0,0,.281,1.674,1.733,1.733,0,0,0,.751.716,2.519,2.519,0,0,0,1.112.229,5.054,5.054,0,0,0,2.5-.747Zm10.758-.255a8.66,8.66,0,0,1-3.709.932,4.357,4.357,0,0,1-2.373-.659,4.7,4.7,0,0,1-1.674-1.885,5.671,5.671,0,0,1-.628-2.624,5.879,5.879,0,0,1,.6-2.584A4.619,4.619,0,0,1,57.419,8.6a4.325,4.325,0,0,1,2.391-.69,3.5,3.5,0,0,1,2.808,1.248,5.858,5.858,0,0,1,1.059,3.85v.352H56.909a4.072,4.072,0,0,0,.426,1.863,3.03,3.03,0,0,0,1.121,1.266,2.986,2.986,0,0,0,1.582.422,7.37,7.37,0,0,0,3.5-1.055Zm-6.53-5.212h4.9V11.9a2.913,2.913,0,0,0-.589-1.916,1.938,1.938,0,0,0-1.573-.712A2.348,2.348,0,0,0,58.021,10,4.126,4.126,0,0,0,57.006,12.138Zm15.724,3.656a5.283,5.283,0,0,1-1.8,1.854A3.839,3.839,0,0,1,69,18.272a2.947,2.947,0,0,1-2.21-1.063,4.623,4.623,0,0,1-.98-3.226,6.889,6.889,0,0,1,.65-3.045A5.477,5.477,0,0,1,68.2,8.82a4.526,4.526,0,0,1,2.7-.778q.466,0,1.406.1.141.018.422.044V3.814h1.644V18H72.729Zm0-1.942V9.642a6.392,6.392,0,0,0-1.617-.229,3.186,3.186,0,0,0-2.518,1.169,4.714,4.714,0,0,0-1.006,3.182,3.68,3.68,0,0,0,.549,2.2,1.558,1.558,0,0,0,1.252.743,2.743,2.743,0,0,0,1.688-.773A7.33,7.33,0,0,0,72.729,13.852ZM87.776,18V8.183h1.635v2.145a5.547,5.547,0,0,1,1.7-1.775,3.637,3.637,0,0,1,1.986-.642,2.847,2.847,0,0,1,1.582.461,2.468,2.468,0,0,1,1,1.208,9.736,9.736,0,0,1,.286,2.936V18H94.324V12.313a8,8,0,0,0-.136-1.868,1.466,1.466,0,0,0-.5-.743,1.251,1.251,0,0,0-.8-.29,2.991,2.991,0,0,0-1.85.817,6.541,6.541,0,0,0-1.63,2.048V18Zm18.967-.65a8.66,8.66,0,0,1-3.709.932,4.357,4.357,0,0,1-2.373-.659,4.7,4.7,0,0,1-1.674-1.885,5.671,5.671,0,0,1-.628-2.624,5.879,5.879,0,0,1,.6-2.584,4.619,4.619,0,0,1,1.67-1.929,4.325,4.325,0,0,1,2.391-.69,3.5,3.5,0,0,1,2.808,1.248,5.858,5.858,0,0,1,1.059,3.85v.352h-6.768a4.072,4.072,0,0,0,.426,1.863,3.03,3.03,0,0,0,1.121,1.266,2.986,2.986,0,0,0,1.582.422,7.37,7.37,0,0,0,3.5-1.055Zm-6.53-5.212h4.9V11.9a2.913,2.913,0,0,0-.589-1.916,1.938,1.938,0,0,0-1.573-.712,2.348,2.348,0,0,0-1.718.725A4.126,4.126,0,0,0,100.213,12.138ZM109.793,18l-1.6-9.817h1.521l.932,5.977.246,1.389.237-1.389,1.564-5.977h1.468l1.767,5.977.308,1.389.2-1.389.94-5.977h1.257L117.044,18h-1.529l-1.881-6.319-.3-1.389h-.044l-.272,1.38L111.384,18Zm22.025,0V8.183h1.635v2.145a5.494,5.494,0,0,1,1.753-1.815,4.15,4.15,0,0,1,2.2-.6,6.023,6.023,0,0,1,1.775.272v3.542H137.61V9.483a4.12,4.12,0,0,0-.65-.07,2.814,2.814,0,0,0-1.793.721,7.881,7.881,0,0,0-1.714,2.162V18Zm18.132-.65a8.66,8.66,0,0,1-3.709.932,4.357,4.357,0,0,1-2.373-.659,4.7,4.7,0,0,1-1.674-1.885,5.671,5.671,0,0,1-.628-2.624,5.879,5.879,0,0,1,.6-2.584,4.619,4.619,0,0,1,1.67-1.929,4.325,4.325,0,0,1,2.391-.69,3.5,3.5,0,0,1,2.808,1.248,5.858,5.858,0,0,1,1.059,3.85v.352h-6.768a4.072,4.072,0,0,0,.426,1.863,3.03,3.03,0,0,0,1.121,1.266,2.986,2.986,0,0,0,1.582.422,7.37,7.37,0,0,0,3.5-1.055Zm-6.53-5.212h4.9V11.9a2.913,2.913,0,0,0-.589-1.916,1.938,1.938,0,0,0-1.573-.712,2.348,2.348,0,0,0-1.718.725A4.126,4.126,0,0,0,143.42,12.138Zm15.724,3.656a5.283,5.283,0,0,1-1.8,1.854,3.839,3.839,0,0,1-1.929.624,2.947,2.947,0,0,1-2.21-1.063,4.623,4.623,0,0,1-.98-3.226,6.889,6.889,0,0,1,.65-3.045,5.477,5.477,0,0,1,1.74-2.118,4.526,4.526,0,0,1,2.7-.778q.466,0,1.406.1.141.018.422.044h1.644V21.814h-1.644Zm0-1.942V9.642a6.392,6.392,0,0,0-1.617-.229,3.186,3.186,0,0,0-2.518,1.169A4.714,4.714,0,0,0,154,13.764a3.68,3.68,0,0,0,.549,2.2,1.558,1.558,0,0,0,1.252.743,2.743,2.743,0,0,0,1.688-.773A7.33,7.33,0,0,0,159.144,13.852Zm12.322-5.669V18h-1.635V15.847a5.888,5.888,0,0,1-1.758,1.819,3.614,3.614,0,0,1-1.934.606,2.854,2.854,0,0,1-1.578-.461,2.435,2.435,0,0,1-1-1.213,9.886,9.886,0,0,1-.281-2.931V8.183h1.635v5.687a8,8,0,0,0,.136,1.868,1.466,1.466,0,0,0,.5.743,1.24,1.24,0,0,0,.787.29,3,3,0,0,0,1.85-.813,6.566,6.566,0,0,0,1.639-2.052V8.183Zm10.89,9.167a8.66,8.66,0,0,1-3.709.932,4.357,4.357,0,0,1-2.373-.659,4.7,4.7,0,0,1-1.674-1.885,5.671,5.671,0,0,1-.628-2.624,5.879,5.879,0,0,1,.6-2.584,4.619,4.619,0,0,1,1.67-1.929,4.325,4.325,0,0,1,2.391-.69,3.5,3.5,0,0,1,2.808,1.248,5.858,5.858,0,0,1,1.059,3.85v.352h-6.768a4.072,4.072,0,0,0,.426,1.863,3.03,3.03,0,0,0,1.121,1.266,2.986,2.986,0,0,0,1.582.422,7.37,7.37,0,0,0,3.5-1.055Zm-6.53-5.212h4.9V11.9a2.913,2.913,0,0,0-.589-1.916,1.938,1.938,0,0,0-1.573-.712A2.348,2.348,0,0,0,176.84,10,4.126,4.126,0,0,0,175.825,12.138Zm9.281,5.344V15.75a6.548,6.548,0,0,0,2.083.9,8.343,8.343,0,0,0,1.863.259,3.075,3.075,0,0,0,1.784-.4,1.2,1.2,0,0,0,.545-1,.973.973,0,0,0-.255-.677,3.971,3.971,0,0,0-1.266-.694l-.562-.229-1.134-.448a5.816,5.816,0,0,1-2.3-1.318,2.246,2.246,0,0,1-.483-1.459,2.486,2.486,0,0,1,.936-2,4.724,4.724,0,0,1,3.037-.782,9.58,9.58,0,0,1,2.979.457V9.853a9.027,9.027,0,0,0-3.041-.58,3.057,3.057,0,0,0-1.622.365,1.061,1.061,0,0,0-.584.91.958.958,0,0,0,.51.844,9.19,9.19,0,0,0,1.635.729l1.107.4a5.623,5.623,0,0,1,2.136,1.2,2.274,2.274,0,0,1,.615,1.626,2.615,2.615,0,0,1-.98,2.1,4.846,4.846,0,0,1-3.133.822A10.417,10.417,0,0,1,185.106,17.481ZM204,17.6a9.16,9.16,0,0,1-1.67.576,5.717,5.717,0,0,1-1,.092,4.415,4.415,0,0,1-1.881-.4,2.768,2.768,0,0,1-1.288-1.169,5.052,5.052,0,0,1-.435-2.391V10.362h-2.452V9h2.452V5.045h1.635V9h4.368v1.362h-4.368v3.929a3.588,3.588,0,0,0,.281,1.674,1.733,1.733,0,0,0,.751.716,2.519,2.519,0,0,0,1.112.229,5.054,5.054,0,0,0,2.5-.747Zm6.627.809a1.44,1.44,0,1,1,1.011-.422A1.379,1.379,0,0,1,210.63,18.413Zm0-7.638a1.429,1.429,0,0,1-1.006-2.448,1.422,1.422,0,0,1,2.013,0,1.433,1.433,0,0,1-1.006,2.448Zm18.105,7.638h-1.608L235.8,3.955h1.556ZM238.746,4.359h1.775v8.956a6.621,6.621,0,0,0,.294,2.413,2.082,2.082,0,0,0,.905.984,2.9,2.9,0,0,0,2.769-.026,2.152,2.152,0,0,0,.914-1.143,9.577,9.577,0,0,0,.294-2.922V4.359h1.635v8.9a6.481,6.481,0,0,1-.567,2.984,3.993,3.993,0,0,1-1.481,1.622,4.436,4.436,0,0,1-2.3.545,5.1,5.1,0,0,1-2.259-.475,3.219,3.219,0,0,1-1.477-1.424,8.106,8.106,0,0,1-.5-3.428Zm11.171,13.122V15.75a6.548,6.548,0,0,0,2.083.9,8.343,8.343,0,0,0,1.863.259,3.075,3.075,0,0,0,1.784-.4,1.2,1.2,0,0,0,.545-1,.973.973,0,0,0-.255-.677,3.971,3.971,0,0,0-1.266-.694l-.562-.229-1.134-.448a5.816,5.816,0,0,1-2.3-1.318,2.246,2.246,0,0,1-.483-1.459,2.486,2.486,0,0,1,.936-2,4.724,4.724,0,0,1,3.037-.782,9.58,9.58,0,0,1,2.979.457V9.853a9.027,9.027,0,0,0-3.041-.58,3.057,3.057,0,0,0-1.622.365,1.061,1.061,0,0,0-.584.91.958.958,0,0,0,.51.844,9.19,9.19,0,0,0,1.635.729l1.107.4a5.623,5.623,0,0,1,2.136,1.2,2.274,2.274,0,0,1,.615,1.626,2.615,2.615,0,0,1-.98,2.1,4.846,4.846,0,0,1-3.133.822A10.417,10.417,0,0,1,249.917,17.481Zm18.853-.132a8.66,8.66,0,0,1-3.709.932,4.357,4.357,0,0,1-2.373-.659,4.7,4.7,0,0,1-1.674-1.885,5.671,5.671,0,0,1-.628-2.624,5.879,5.879,0,0,1,.6-2.584,4.619,4.619,0,0,1,1.67-1.929,4.325,4.325,0,0,1,2.391-.69,3.5,3.5,0,0,1,2.808,1.248,5.858,5.858,0,0,1,1.059,3.85v.352h-6.768a4.072,4.072,0,0,0,.426,1.863,3.03,3.03,0,0,0,1.121,1.266,2.986,2.986,0,0,0,1.582.422,7.37,7.37,0,0,0,3.5-1.055Zm-6.53-5.212h4.9V11.9a2.913,2.913,0,0,0-.589-1.916,1.938,1.938,0,0,0-1.573-.712,2.348,2.348,0,0,0-1.718.725A4.126,4.126,0,0,0,262.239,12.138Zm10,5.862V8.183h1.635v2.145a5.494,5.494,0,0,1,1.753-1.815,4.15,4.15,0,0,1,2.2-.6,6.023,6.023,0,0,1,1.775.272v3.542h-1.573V9.483a4.12,4.12,0,0,0-.65-.07,2.814,2.814,0,0,0-1.793.721,7.881,7.881,0,0,0-1.714,2.162V18Zm10.081-.519V15.75a6.548,6.548,0,0,0,2.083.9,8.343,8.343,0,0,0,1.863.259,3.075,3.075,0,0,0,1.784-.4,1.2,1.2,0,0,0,.545-1,.973.973,0,0,0-.255-.677,3.971,3.971,0,0,0-1.266-.694l-.562-.229-1.134-.448a5.816,5.816,0,0,1-2.3-1.318,2.246,2.246,0,0,1-.483-1.459,2.486,2.486,0,0,1,.936-2,4.724,4.724,0,0,1,3.037-.782,9.58,9.58,0,0,1,2.979.457V9.853a9.027,9.027,0,0,0-3.041-.58,3.057,3.057,0,0,0-1.622.365,1.061,1.061,0,0,0-.584.91.958.958,0,0,0,.51.844,9.19,9.19,0,0,0,1.635.729l1.107.4a5.623,5.623,0,0,1,2.136,1.2,2.274,2.274,0,0,1,.615,1.626,2.615,2.615,0,0,1-.98,2.1,4.846,4.846,0,0,1-3.133.822A10.417,10.417,0,0,1,282.322,17.481Zm11.224.932h-1.608l8.675-14.458h1.556Zm18.431-1.063a8.66,8.66,0,0,1-3.709.932,4.357,4.357,0,0,1-2.373-.659,4.7,4.7,0,0,1-1.674-1.885,5.671,5.671,0,0,1-.628-2.624,5.879,5.879,0,0,1,.6-2.584,4.619,4.619,0,0,1,1.67-1.929,4.325,4.325,0,0,1,2.391-.69,3.5,3.5,0,0,1,2.808,1.248,5.858,5.858,0,0,1,1.059,3.85v.352H305.35a4.072,4.072,0,0,0,.426,1.863,3.03,3.03,0,0,0,1.121,1.266,2.986,2.986,0,0,0,1.582.422,7.37,7.37,0,0,0,3.5-1.055Zm-6.53-5.212h4.9V11.9a2.913,2.913,0,0,0-.589-1.916,1.938,1.938,0,0,0-1.573-.712,2.348,2.348,0,0,0-1.718.725A4.126,4.126,0,0,0,305.446,12.138ZM317.25,18V5.186h-2.936V3.814h4.57V16.638h3.067V18Zm12.208.272a4.228,4.228,0,0,1-3.375-1.472,5.494,5.494,0,0,1-1.266-3.713,5.477,5.477,0,0,1,1.266-3.709,4.6,4.6,0,0,1,6.741,0,5.477,5.477,0,0,1,1.266,3.709,5.494,5.494,0,0,1-1.266,3.713A4.218,4.218,0,0,1,329.458,18.272Zm0-1.362a2.479,2.479,0,0,0,2.083-1.02,4.54,4.54,0,0,0,.773-2.8,4.524,4.524,0,0,0-.773-2.795,2.647,2.647,0,0,0-4.175,0,4.524,4.524,0,0,0-.773,2.795,4.54,4.54,0,0,0,.773,2.8A2.488,2.488,0,0,0,329.458,16.91ZM336.217,18V8.183h1.635v2.145a5.547,5.547,0,0,1,1.7-1.775,3.637,3.637,0,0,1,1.986-.642,2.847,2.847,0,0,1,1.582.461,2.468,2.468,0,0,1,1,1.208,9.736,9.736,0,0,1,.286,2.936V18h-1.635V12.313a8,8,0,0,0-.136-1.868,1.466,1.466,0,0,0-.5-.743,1.251,1.251,0,0,0-.8-.29,2.991,2.991,0,0,0-1.85.817,6.541,6.541,0,0,0-1.63,2.048V18Zm11.338.413h-1.608l8.675-14.458h1.556Zm10.38-.932V15.75a6.548,6.548,0,0,0,2.083.9,8.343,8.343,0,0,0,1.863.259,3.075,3.075,0,0,0,1.784-.4,1.2,1.2,0,0,0,.545-1,.973.973,0,0,0-.255-.677,3.971,3.971,0,0,0-1.266-.694l-.562-.229-1.134-.448a5.816,5.816,0,0,1-2.3-1.318,2.246,2.246,0,0,1-.483-1.459,2.486,2.486,0,0,1,.936-2,4.724,4.724,0,0,1,3.037-.782,9.58,9.58,0,0,1,2.979.457V9.853a9.027,9.027,0,0,0-3.041-.58,3.057,3.057,0,0,0-1.622.365,1.061,1.061,0,0,0-.584.91.958.958,0,0,0,.51.844,9.19,9.19,0,0,0,1.635.729l1.107.4a5.623,5.623,0,0,1,2.136,1.2,2.274,2.274,0,0,1,.615,1.626,2.615,2.615,0,0,1-.98,2.1,4.846,4.846,0,0,1-3.133.822A10.417,10.417,0,0,1,357.935,17.481Zm12.2-7.093a5.369,5.369,0,0,1,1.8-1.854,3.817,3.817,0,0,1,1.925-.624,2.961,2.961,0,0,1,2.215,1.063,4.609,4.609,0,0,1,.984,3.226,6.85,6.85,0,0,1-.655,3.045,5.512,5.512,0,0,1-1.745,2.118,4.526,4.526,0,0,1-2.7.778q-.457,0-1.406-.1-.141-.018-.422-.044v3.814H368.5V8.183h1.635Zm0,1.942v4.21a6.6,6.6,0,0,0,1.635.229,3.19,3.19,0,0,0,2.5-1.165,4.684,4.684,0,0,0,1.015-3.186,3.654,3.654,0,0,0-.554-2.206,1.571,1.571,0,0,0-1.257-.738,2.727,2.727,0,0,0-1.683.773A7.5,7.5,0,0,0,370.134,12.331Zm15.741,3.463a5.283,5.283,0,0,1-1.8,1.854,3.839,3.839,0,0,1-1.929.624,2.947,2.947,0,0,1-2.21-1.063,4.623,4.623,0,0,1-.98-3.226,6.889,6.889,0,0,1,.65-3.045,5.477,5.477,0,0,1,1.74-2.118,4.526,4.526,0,0,1,2.7-.778q.466,0,1.406.1.141.018.422.044h1.644v6.935A9.317,9.317,0,0,0,387.888,18h-1.705A15.3,15.3,0,0,1,385.875,15.794Zm0-1.942V9.642a6.392,6.392,0,0,0-1.617-.229,3.186,3.186,0,0,0-2.518,1.169,4.714,4.714,0,0,0-1.006,3.182,3.68,3.68,0,0,0,.549,2.2,1.558,1.558,0,0,0,1.252.743,2.743,2.743,0,0,0,1.688-.773A7.33,7.33,0,0,0,385.875,13.852Zm12.612,3.867a9.8,9.8,0,0,1-3.129.554,5.039,5.039,0,0,1-2.624-.681,4.81,4.81,0,0,1-1.789-1.846,5.4,5.4,0,0,1-.642-2.65,5.07,5.07,0,0,1,1.455-3.709,4.749,4.749,0,0,1,3.511-1.477,10.086,10.086,0,0,1,3.217.571v1.573a7.52,7.52,0,0,0-3.067-.782,3.4,3.4,0,0,0-1.687.444,2.918,2.918,0,0,0-1.222,1.384,4.6,4.6,0,0,0-.431,1.934,4.389,4.389,0,0,0,.831,2.531,2.944,2.944,0,0,0,2.606,1.2,7.387,7.387,0,0,0,1.055-.075,13.188,13.188,0,0,0,1.916-.549Zm10.705-.369a8.66,8.66,0,0,1-3.709.932,4.357,4.357,0,0,1-2.373-.659,4.7,4.7,0,0,1-1.674-1.885,5.671,5.671,0,0,1-.628-2.624,5.879,5.879,0,0,1,.6-2.584,4.619,4.619,0,0,1,1.67-1.929,4.325,4.325,0,0,1,2.391-.69,3.5,3.5,0,0,1,2.808,1.248,5.858,5.858,0,0,1,1.059,3.85v.352h-6.768a4.072,4.072,0,0,0,.426,1.863,3.03,3.03,0,0,0,1.121,1.266,2.986,2.986,0,0,0,1.582.422,7.37,7.37,0,0,0,3.5-1.055Zm-6.53-5.212h4.9V11.9a2.913,2.913,0,0,0-.589-1.916,1.938,1.938,0,0,0-1.573-.712,2.348,2.348,0,0,0-1.718.725A4.126,4.126,0,0,0,402.662,12.138ZM412.849,18h-1.89l3.858-5.142-3.6-4.676h2.092l2.558,3.3,2.487-3.3h1.854l-3.41,4.518,4.052,5.3h-2.1l-2.988-3.911Zm10.318.413h-1.608l8.675-14.458h1.556Zm10.38-.932V15.75a6.548,6.548,0,0,0,2.083.9,8.343,8.343,0,0,0,1.863.259,3.075,3.075,0,0,0,1.784-.4,1.2,1.2,0,0,0,.545-1,.973.973,0,0,0-.255-.677,3.971,3.971,0,0,0-1.266-.694l-.562-.229-1.134-.448a5.816,5.816,0,0,1-2.3-1.318,2.246,2.246,0,0,1-.483-1.459,2.486,2.486,0,0,1,.936-2,4.724,4.724,0,0,1,3.037-.782,9.58,9.58,0,0,1,2.979.457V9.853a9.027,9.027,0,0,0-3.041-.58,3.057,3.057,0,0,0-1.622.365,1.061,1.061,0,0,0-.584.91.958.958,0,0,0,.51.844,9.19,9.19,0,0,0,1.635.729l1.107.4a5.623,5.623,0,0,1,2.136,1.2,2.274,2.274,0,0,1,.615,1.626,2.615,2.615,0,0,1-.98,2.1,4.846,4.846,0,0,1-3.133.822A10.417,10.417,0,0,1,433.547,17.481ZM452.4,17.35a8.66,8.66,0,0,1-3.709.932,4.357,4.357,0,0,1-2.373-.659,4.7,4.7,0,0,1-1.674-1.885,5.671,5.671,0,0,1-.628-2.624,5.879,5.879,0,0,1,.6-2.584,4.619,4.619,0,0,1,1.67-1.929,4.325,4.325,0,0,1,2.391-.69,3.5,3.5,0,0,1,2.808,1.248,5.858,5.858,0,0,1,1.059,3.85v.352h-6.768a4.072,4.072,0,0,0,.426,1.863,3.03,3.03,0,0,0,1.121,1.266,2.986,2.986,0,0,0,1.582.422,7.37,7.37,0,0,0,3.5-1.055Zm-6.53-5.212h4.9V11.9a2.913,2.913,0,0,0-.589-1.916,1.938,1.938,0,0,0-1.573-.712,2.348,2.348,0,0,0-1.718.725A4.126,4.126,0,0,0,445.869,12.138ZM455.036,18V8.183h1.635v2.145a5.547,5.547,0,0,1,1.7-1.775,3.637,3.637,0,0,1,1.986-.642,2.847,2.847,0,0,1,1.582.461,2.468,2.468,0,0,1,1,1.208,9.736,9.736,0,0,1,.286,2.936V18h-1.635V12.313a8,8,0,0,0-.136-1.868,1.466,1.466,0,0,0-.5-.743,1.251,1.251,0,0,0-.8-.29,2.991,2.991,0,0,0-1.85.817,6.541,6.541,0,0,0-1.63,2.048V18Zm17.358-2.206a5.283,5.283,0,0,1-1.8,1.854,3.839,3.839,0,0,1-1.929.624,2.947,2.947,0,0,1-2.21-1.063,4.623,4.623,0,0,1-.98-3.226,6.889,6.889,0,0,1,.65-3.045,5.477,5.477,0,0,1,1.74-2.118,4.526,4.526,0,0,1,2.7-.778q.466,0,1.406.1.141.018.422.044V3.814h1.644V18h-1.644Zm0-1.942V9.642a6.392,6.392,0,0,0-1.617-.229,3.186,3.186,0,0,0-2.518,1.169,4.714,4.714,0,0,0-1.006,3.182,3.68,3.68,0,0,0,.549,2.2,1.558,1.558,0,0,0,1.252.743,2.743,2.743,0,0,0,1.688-.773A7.33,7.33,0,0,0,472.395,13.852Zm12.41,3.5a8.66,8.66,0,0,1-3.709.932,4.357,4.357,0,0,1-2.373-.659,4.7,4.7,0,0,1-1.674-1.885,5.671,5.671,0,0,1-.628-2.624,5.879,5.879,0,0,1,.6-2.584,4.619,4.619,0,0,1,1.67-1.929,4.325,4.325,0,0,1,2.391-.69,3.5,3.5,0,0,1,2.808,1.248,5.858,5.858,0,0,1,1.059,3.85v.352h-6.768a4.072,4.072,0,0,0,.426,1.863,3.03,3.03,0,0,0,1.121,1.266,2.986,2.986,0,0,0,1.582.422,7.37,7.37,0,0,0,3.5-1.055Zm-6.53-5.212h4.9V11.9a2.913,2.913,0,0,0-.589-1.916,1.938,1.938,0,0,0-1.573-.712A2.348,2.348,0,0,0,479.29,10,4.126,4.126,0,0,0,478.274,12.138ZM488.461,18h-1.89l3.858-5.142-3.6-4.676h2.092l2.558,3.3,2.487-3.3h1.854l-3.41,4.518,4.052,5.3h-2.1l-2.988-3.911Zm10.318.413h-1.608l8.675-14.458H507.4Zm9.527.949V18h9.545v1.362Zm11.654-1.881V15.75a6.548,6.548,0,0,0,2.083.9,8.343,8.343,0,0,0,1.863.259,3.075,3.075,0,0,0,1.784-.4,1.2,1.2,0,0,0,.545-1,.973.973,0,0,0-.255-.677,3.971,3.971,0,0,0-1.266-.694l-.562-.229-1.134-.448a5.816,5.816,0,0,1-2.3-1.318,2.246,2.246,0,0,1-.483-1.459,2.486,2.486,0,0,1,.936-2,4.724,4.724,0,0,1,3.037-.782,9.58,9.58,0,0,1,2.979.457V9.853a9.027,9.027,0,0,0-3.041-.58,3.057,3.057,0,0,0-1.622.365,1.061,1.061,0,0,0-.584.91.958.958,0,0,0,.51.844,9.19,9.19,0,0,0,1.635.729l1.107.4a5.623,5.623,0,0,1,2.136,1.2,2.274,2.274,0,0,1,.615,1.626,2.615,2.615,0,0,1-.98,2.1,4.846,4.846,0,0,1-3.133.822A10.417,10.417,0,0,1,519.961,17.481Zm18.853-.132a8.66,8.66,0,0,1-3.709.932,4.357,4.357,0,0,1-2.373-.659,4.7,4.7,0,0,1-1.674-1.885,5.671,5.671,0,0,1-.628-2.624,5.879,5.879,0,0,1,.6-2.584A4.619,4.619,0,0,1,532.7,8.6a4.325,4.325,0,0,1,2.391-.69A3.5,3.5,0,0,1,537.9,9.158a5.858,5.858,0,0,1,1.059,3.85v.352h-6.768a4.072,4.072,0,0,0,.426,1.863,3.03,3.03,0,0,0,1.121,1.266,2.986,2.986,0,0,0,1.582.422,7.37,7.37,0,0,0,3.5-1.055Zm-6.53-5.212h4.9V11.9a2.913,2.913,0,0,0-.589-1.916,1.938,1.938,0,0,0-1.573-.712A2.348,2.348,0,0,0,533.3,10,4.126,4.126,0,0,0,532.283,12.138ZM541.45,18V8.183h1.635v2.145a5.547,5.547,0,0,1,1.7-1.775,3.637,3.637,0,0,1,1.986-.642,2.847,2.847,0,0,1,1.582.461,2.468,2.468,0,0,1,1,1.208,9.736,9.736,0,0,1,.286,2.936V18H548V12.313a8,8,0,0,0-.136-1.868,1.466,1.466,0,0,0-.5-.743,1.251,1.251,0,0,0-.8-.29,2.991,2.991,0,0,0-1.85.817,6.541,6.541,0,0,0-1.63,2.048V18Zm17.358-2.206a5.283,5.283,0,0,1-1.8,1.854,3.839,3.839,0,0,1-1.929.624,2.947,2.947,0,0,1-2.21-1.063,4.623,4.623,0,0,1-.98-3.226,6.889,6.889,0,0,1,.65-3.045,5.477,5.477,0,0,1,1.74-2.118,4.526,4.526,0,0,1,2.7-.778q.466,0,1.406.1.141.018.422.044V3.814h1.644V18h-1.644Zm0-1.942V9.642a6.392,6.392,0,0,0-1.617-.229,3.186,3.186,0,0,0-2.518,1.169,4.714,4.714,0,0,0-1.006,3.182,3.68,3.68,0,0,0,.549,2.2,1.558,1.558,0,0,0,1.252.743,2.743,2.743,0,0,0,1.688-.773A7.33,7.33,0,0,0,558.809,13.852Zm12.41,3.5a8.66,8.66,0,0,1-3.709.932,4.357,4.357,0,0,1-2.373-.659,4.7,4.7,0,0,1-1.674-1.885,5.671,5.671,0,0,1-.628-2.624,5.879,5.879,0,0,1,.6-2.584A4.619,4.619,0,0,1,565.1,8.6a4.325,4.325,0,0,1,2.391-.69A3.5,3.5,0,0,1,570.3,9.158a5.858,5.858,0,0,1,1.059,3.85v.352h-6.768a4.072,4.072,0,0,0,.426,1.863,3.03,3.03,0,0,0,1.121,1.266,2.986,2.986,0,0,0,1.582.422,7.37,7.37,0,0,0,3.5-1.055Zm-6.53-5.212h4.9V11.9A2.913,2.913,0,0,0,569,9.984a1.938,1.938,0,0,0-1.573-.712A2.348,2.348,0,0,0,565.7,10,4.126,4.126,0,0,0,564.688,12.138ZM574.875,18h-1.89l3.858-5.142-3.6-4.676h2.092l2.558,3.3,2.487-3.3h1.854l-3.41,4.518,4.052,5.3h-2.1l-2.988-3.911Zm10.318.413h-1.608L592.26,3.955h1.556ZM2.2,54V44.183H3.832v2.145a5.494,5.494,0,0,1,1.753-1.815,4.15,4.15,0,0,1,2.2-.6,6.023,6.023,0,0,1,1.775.272v3.542H7.989V45.483a4.12,4.12,0,0,0-.65-.07,2.814,2.814,0,0,0-1.793.721A7.881,7.881,0,0,0,3.832,48.3V54Zm18.132-.65a8.66,8.66,0,0,1-3.709.932,4.357,4.357,0,0,1-2.373-.659,4.7,4.7,0,0,1-1.674-1.885,5.671,5.671,0,0,1-.628-2.624,5.879,5.879,0,0,1,.6-2.584,4.619,4.619,0,0,1,1.67-1.929,4.325,4.325,0,0,1,2.391-.69,3.5,3.5,0,0,1,2.808,1.248,5.858,5.858,0,0,1,1.059,3.85v.352H13.7a4.072,4.072,0,0,0,.426,1.863,3.03,3.03,0,0,0,1.121,1.266,2.986,2.986,0,0,0,1.582.422,7.37,7.37,0,0,0,3.5-1.055ZM13.8,48.138h4.9V47.9a2.913,2.913,0,0,0-.589-1.916,1.938,1.938,0,0,0-1.573-.712A2.348,2.348,0,0,0,14.814,46,4.126,4.126,0,0,0,13.8,48.138Zm15.724,3.656a5.283,5.283,0,0,1-1.8,1.854,3.839,3.839,0,0,1-1.929.624,2.947,2.947,0,0,1-2.21-1.063,4.623,4.623,0,0,1-.98-3.226,6.889,6.889,0,0,1,.65-3.045A5.477,5.477,0,0,1,25,44.82a4.526,4.526,0,0,1,2.7-.778q.466,0,1.406.1.141.018.422.044h1.644V57.814H29.522Zm0-1.942v-4.21a6.392,6.392,0,0,0-1.617-.229,3.186,3.186,0,0,0-2.518,1.169,4.714,4.714,0,0,0-1.006,3.182,3.68,3.68,0,0,0,.549,2.2,1.558,1.558,0,0,0,1.252.743,2.743,2.743,0,0,0,1.688-.773A7.33,7.33,0,0,0,29.522,49.852Zm12.322-5.669V54H40.21V51.847a5.888,5.888,0,0,1-1.758,1.819,3.614,3.614,0,0,1-1.934.606,2.854,2.854,0,0,1-1.578-.461,2.435,2.435,0,0,1-1-1.213,9.886,9.886,0,0,1-.281-2.931V44.183H35.3v5.687a8,8,0,0,0,.136,1.868,1.466,1.466,0,0,0,.5.743,1.24,1.24,0,0,0,.787.29,3,3,0,0,0,1.85-.813A6.566,6.566,0,0,0,40.21,49.9V44.183Zm10.89,9.167a8.66,8.66,0,0,1-3.709.932,4.357,4.357,0,0,1-2.373-.659,4.7,4.7,0,0,1-1.674-1.885,5.671,5.671,0,0,1-.628-2.624,5.879,5.879,0,0,1,.6-2.584,4.619,4.619,0,0,1,1.67-1.929,4.325,4.325,0,0,1,2.391-.69,3.5,3.5,0,0,1,2.808,1.248,5.858,5.858,0,0,1,1.059,3.85v.352H46.107a4.072,4.072,0,0,0,.426,1.863,3.03,3.03,0,0,0,1.121,1.266,2.986,2.986,0,0,0,1.582.422,7.37,7.37,0,0,0,3.5-1.055ZM46.2,48.138h4.9V47.9a2.913,2.913,0,0,0-.589-1.916,1.938,1.938,0,0,0-1.573-.712A2.348,2.348,0,0,0,47.219,46,4.126,4.126,0,0,0,46.2,48.138Zm9.281,5.344V51.75a6.548,6.548,0,0,0,2.083.9,8.343,8.343,0,0,0,1.863.259,3.075,3.075,0,0,0,1.784-.4,1.2,1.2,0,0,0,.545-1,.973.973,0,0,0-.255-.677,3.971,3.971,0,0,0-1.266-.694l-.562-.229-1.134-.448a5.816,5.816,0,0,1-2.3-1.318,2.246,2.246,0,0,1-.483-1.459,2.486,2.486,0,0,1,.936-2,4.724,4.724,0,0,1,3.037-.782,9.58,9.58,0,0,1,2.979.457v1.485a9.027,9.027,0,0,0-3.041-.58,3.057,3.057,0,0,0-1.622.365,1.061,1.061,0,0,0-.584.91.958.958,0,0,0,.51.844,9.19,9.19,0,0,0,1.635.729l1.107.4a5.623,5.623,0,0,1,2.136,1.2,2.274,2.274,0,0,1,.615,1.626,2.615,2.615,0,0,1-.98,2.1,4.846,4.846,0,0,1-3.133.822A10.417,10.417,0,0,1,55.485,53.481Zm18.9.123a9.16,9.16,0,0,1-1.67.576,5.717,5.717,0,0,1-1,.092,4.415,4.415,0,0,1-1.881-.4,2.768,2.768,0,0,1-1.288-1.169,5.052,5.052,0,0,1-.435-2.391V46.362H65.654V45h2.452V41.045h1.635V45h4.368v1.362H69.741v3.929a3.588,3.588,0,0,0,.281,1.674,1.733,1.733,0,0,0,.751.716,2.519,2.519,0,0,0,1.112.229,5.054,5.054,0,0,0,2.5-.747Zm2.707-.123V51.75a6.548,6.548,0,0,0,2.083.9,8.343,8.343,0,0,0,1.863.259,3.075,3.075,0,0,0,1.784-.4,1.2,1.2,0,0,0,.545-1,.973.973,0,0,0-.255-.677,3.971,3.971,0,0,0-1.266-.694l-.562-.229-1.134-.448a5.816,5.816,0,0,1-2.3-1.318,2.246,2.246,0,0,1-.483-1.459,2.486,2.486,0,0,1,.936-2,4.724,4.724,0,0,1,3.037-.782,9.58,9.58,0,0,1,2.979.457v1.485a9.027,9.027,0,0,0-3.041-.58,3.057,3.057,0,0,0-1.622.365,1.061,1.061,0,0,0-.584.91.958.958,0,0,0,.51.844,9.19,9.19,0,0,0,1.635.729l1.107.4a5.623,5.623,0,0,1,2.136,1.2,2.274,2.274,0,0,1,.615,1.626,2.615,2.615,0,0,1-.98,2.1,4.846,4.846,0,0,1-3.133.822A10.417,10.417,0,0,1,77.089,53.481Zm11.224.932H86.7l8.675-14.458h1.556Zm18.466-.422a9.48,9.48,0,0,1-2.646.422,5.341,5.341,0,0,1-5.124-3.388,10.168,10.168,0,0,1-.018-7.651,5.631,5.631,0,0,1,2.083-2.558,5.326,5.326,0,0,1,2.953-.87,7.946,7.946,0,0,1,2.742.571v1.617a5.587,5.587,0,0,0-2.812-.817,2.964,2.964,0,0,0-1.929.721,4.956,4.956,0,0,0-1.406,2.114,8.472,8.472,0,0,0-.532,3.045,8.166,8.166,0,0,0,1.011,4.034,3.392,3.392,0,0,0,3.19,1.819q.281,0,.712-.044V48.612h-1.362V47.25h3.138ZM117.167,52.5V54H109.8V40.359h7.225V41.73h-5.449v4.632h4.9v1.362h-4.9V52.5Zm6.161,1.5V41.862h-4.087v-1.5H129.2v1.5h-4.1V54Zm8.288-4.843V47.795h6.82v1.362ZM143.3,46.389a5.369,5.369,0,0,1,1.8-1.854,3.817,3.817,0,0,1,1.925-.624,2.961,2.961,0,0,1,2.215,1.063,4.609,4.609,0,0,1,.984,3.226,6.85,6.85,0,0,1-.655,3.045,5.512,5.512,0,0,1-1.745,2.118,4.526,4.526,0,0,1-2.7.778q-.457,0-1.406-.1-.141-.018-.422-.044v3.814h-1.635V44.183H143.3Zm0,1.942v4.21a6.6,6.6,0,0,0,1.635.229,3.19,3.19,0,0,0,2.5-1.165,4.684,4.684,0,0,0,1.015-3.186,3.654,3.654,0,0,0-.554-2.206,1.571,1.571,0,0,0-1.257-.738,2.727,2.727,0,0,0-1.683.773A7.5,7.5,0,0,0,143.3,48.331Zm13.333,5.941a4.228,4.228,0,0,1-3.375-1.472,6.074,6.074,0,0,1,0-7.422,4.6,4.6,0,0,1,6.741,0,6.074,6.074,0,0,1,0,7.422A4.218,4.218,0,0,1,156.63,54.272Zm0-1.362a2.479,2.479,0,0,0,2.083-1.02,4.54,4.54,0,0,0,.773-2.8,4.524,4.524,0,0,0-.773-2.795,2.647,2.647,0,0,0-4.175,0,4.524,4.524,0,0,0-.773,2.795,4.54,4.54,0,0,0,.773,2.8A2.488,2.488,0,0,0,156.63,52.91Zm6.873.571V51.75a6.548,6.548,0,0,0,2.083.9,8.343,8.343,0,0,0,1.863.259,3.075,3.075,0,0,0,1.784-.4,1.2,1.2,0,0,0,.545-1,.973.973,0,0,0-.255-.677,3.971,3.971,0,0,0-1.266-.694l-.562-.229-1.134-.448a5.816,5.816,0,0,1-2.3-1.318,2.246,2.246,0,0,1-.483-1.459,2.486,2.486,0,0,1,.936-2,4.724,4.724,0,0,1,3.037-.782,9.58,9.58,0,0,1,2.979.457v1.485a9.027,9.027,0,0,0-3.041-.58,3.057,3.057,0,0,0-1.622.365,1.061,1.061,0,0,0-.584.91.958.958,0,0,0,.51.844,9.19,9.19,0,0,0,1.635.729l1.107.4a5.623,5.623,0,0,1,2.136,1.2,2.274,2.274,0,0,1,.615,1.626,2.615,2.615,0,0,1-.98,2.1,4.846,4.846,0,0,1-3.133.822A10.417,10.417,0,0,1,163.5,53.481Zm18.9.123a9.16,9.16,0,0,1-1.67.576,5.717,5.717,0,0,1-1,.092,4.415,4.415,0,0,1-1.881-.4,2.768,2.768,0,0,1-1.288-1.169,5.052,5.052,0,0,1-.435-2.391V46.362h-2.452V45h2.452V41.045h1.635V45h4.368v1.362h-4.368v3.929a3.588,3.588,0,0,0,.281,1.674,1.733,1.733,0,0,0,.751.716,2.519,2.519,0,0,0,1.112.229,5.054,5.054,0,0,0,2.5-.747Zm2.707-.123V51.75a6.548,6.548,0,0,0,2.083.9,8.343,8.343,0,0,0,1.863.259,3.075,3.075,0,0,0,1.784-.4,1.2,1.2,0,0,0,.545-1,.973.973,0,0,0-.255-.677,3.971,3.971,0,0,0-1.266-.694l-.562-.229-1.134-.448a5.816,5.816,0,0,1-2.3-1.318,2.246,2.246,0,0,1-.483-1.459,2.486,2.486,0,0,1,.936-2,4.724,4.724,0,0,1,3.037-.782,9.58,9.58,0,0,1,2.979.457v1.485a9.027,9.027,0,0,0-3.041-.58,3.057,3.057,0,0,0-1.622.365,1.061,1.061,0,0,0-.584.91.958.958,0,0,0,.51.844,9.19,9.19,0,0,0,1.635.729l1.107.4a5.623,5.623,0,0,1,2.136,1.2,2.274,2.274,0,0,1,.615,1.626,2.615,2.615,0,0,1-.98,2.1,4.846,4.846,0,0,1-3.133.822A10.417,10.417,0,0,1,185.106,53.481Zm11.32-4.324V47.795h6.82v1.362Zm13.8,3.48V42.108a12.852,12.852,0,0,1-1.433,1,11.1,11.1,0,0,1-1.907.844V42.478a11.56,11.56,0,0,0,3.34-2.118h1.635V52.638h3.278V54h-8.253V52.638Zm11.206-12.683a3.937,3.937,0,0,1,3.551,1.956A9.872,9.872,0,0,1,226.2,47.18a9.891,9.891,0,0,1-1.222,5.278,4.2,4.2,0,0,1-7.1,0,9.862,9.862,0,0,1-1.226-5.278,9.843,9.843,0,0,1,1.226-5.269A3.94,3.94,0,0,1,221.432,39.955ZM218.769,50.1l4.72-7.392a2.665,2.665,0,0,0-.971-1.1,2.235,2.235,0,0,0-1.085-.286,2.414,2.414,0,0,0-2.232,1.63,9.752,9.752,0,0,0-.765,4.135q0,.571.035,1.23A10.835,10.835,0,0,0,218.769,50.1Zm5.309-5.766-4.685,7.436a2.833,2.833,0,0,0,.87.962,1.969,1.969,0,0,0,1.1.321,2.458,2.458,0,0,0,2.373-1.868,11.681,11.681,0,0,0,.7-4.144A10.093,10.093,0,0,0,224.077,44.332Zm8.156,10.081a1.44,1.44,0,1,1,1.011-.422A1.379,1.379,0,0,1,232.233,54.413Zm10.38-.809-4.535-9.422h1.8l3.612,7.365,3.023-7.365h1.644l-3.806,9.123a10.9,10.9,0,0,1-2.29,3.841,4.11,4.11,0,0,1-2.808.949,6.141,6.141,0,0,1-1.336-.132V56.522a4.341,4.341,0,0,0,1.292.211,3.1,3.1,0,0,0,1.406-.308,2.994,2.994,0,0,0,1.125-1.09,7.082,7.082,0,0,0,.721-1.354Zm6.451.4V44.183H250.5v2.25a6.738,6.738,0,0,1,1.261-1.978,1.745,1.745,0,0,1,1.182-.545,1.384,1.384,0,0,1,1.147.558,2.531,2.531,0,0,1,.435,1.586v.527a5.137,5.137,0,0,1,.7-1.455,4.193,4.193,0,0,1,.848-.888,1.639,1.639,0,0,1,1.011-.33,1.364,1.364,0,0,1,1.081.536,3.542,3.542,0,0,1,.448,2.136V54h-1.433V47.294a7.866,7.866,0,0,0-.053-1.129.838.838,0,0,0-.211-.461.479.479,0,0,0-.343-.158q-.457,0-.98.7a8.723,8.723,0,0,0-1.068,2.316V54h-1.371V47.3q0-1.3-.255-1.529a.73.73,0,0,0-.457-.229q-.448,0-.962.782a10.477,10.477,0,0,0-.98,2V54Zm14.177,0V41.186h-2.936V39.814h4.57V52.638h3.067V54Z" transform="translate(742 1996)" fill="#b3bd59"/></g></svg>