<svg xmlns="http://www.w3.org/2000/svg" width="824" height="295" viewBox="0 0 824 295"><g transform="translate(-569 -905)"><path d="M8,0H816a8,8,0,0,1,8,8V137a8,8,0,0,1-8,8H8a8,8,0,0,1-8-8V8A8,8,0,0,1,8,0Z" transform="translate(569 905)" fill="#2703a6"/><path d="M8,0H816a8,8,0,0,1,8,8V248a8,8,0,0,1-8,8H8a8,8,0,0,1-8-8V8A8,8,0,0,1,8,0Z" transform="translate(569 944)" fill="#1e1086"/><path d="M8,0A8,8,0,1,1,0,8,8,8,0,0,1,8,0Z" transform="translate(587 917)" fill="#ff4f3c"/><path d="M8,0A8,8,0,1,1,0,8,8,8,0,0,1,8,0Z" transform="translate(613 917)" fill="#efbb00"/><path d="M8,0A8,8,0,1,1,0,8,8,8,0,0,1,8,0Z" transform="translate(639 917)" fill="#00c800"/><path d="M.624,18V8.183H2.057v2.25A6.738,6.738,0,0,1,3.318,8.455,1.745,1.745,0,0,1,4.5,7.91a1.384,1.384,0,0,1,1.147.558,2.531,2.531,0,0,1,.435,1.586v.527a5.137,5.137,0,0,1,.7-1.455,4.193,4.193,0,0,1,.848-.888A1.639,1.639,0,0,1,8.64,7.91a1.364,1.364,0,0,1,1.081.536,3.542,3.542,0,0,1,.448,2.136V18H8.736V11.294a7.866,7.866,0,0,0-.053-1.129A.838.838,0,0,0,8.473,9.7a.479.479,0,0,0-.343-.158q-.457,0-.98.7A8.723,8.723,0,0,0,6.082,12.56V18H4.711V11.3q0-1.3-.255-1.529A.73.73,0,0,0,4,9.545q-.448,0-.962.782a10.477,10.477,0,0,0-.98,2V18Zm19.705-.65a8.66,8.66,0,0,1-3.709.932,4.357,4.357,0,0,1-2.373-.659,4.7,4.7,0,0,1-1.674-1.885,5.671,5.671,0,0,1-.628-2.624,5.879,5.879,0,0,1,.6-2.584A4.619,4.619,0,0,1,14.212,8.6,4.325,4.325,0,0,1,16.6,7.91a3.5,3.5,0,0,1,2.808,1.248,5.858,5.858,0,0,1,1.059,3.85v.352H13.7a4.072,4.072,0,0,0,.426,1.863,3.03,3.03,0,0,0,1.121,1.266,2.986,2.986,0,0,0,1.582.422,7.37,7.37,0,0,0,3.5-1.055ZM13.8,12.138h4.9V11.9a2.913,2.913,0,0,0-.589-1.916,1.938,1.938,0,0,0-1.573-.712A2.348,2.348,0,0,0,14.814,10,4.126,4.126,0,0,0,13.8,12.138ZM31.175,17.6a9.16,9.16,0,0,1-1.67.576,5.717,5.717,0,0,1-1,.092,4.415,4.415,0,0,1-1.881-.4,2.768,2.768,0,0,1-1.288-1.169,5.052,5.052,0,0,1-.435-2.391V10.362H22.447V9H24.9V5.045h1.635V9H30.9v1.362H26.534v3.929a3.588,3.588,0,0,0,.281,1.674,1.733,1.733,0,0,0,.751.716,2.519,2.519,0,0,0,1.112.229,5.054,5.054,0,0,0,2.5-.747Zm2.593.4V3.814H35.4v6.513a5.547,5.547,0,0,1,1.7-1.775,3.637,3.637,0,0,1,1.986-.642,2.844,2.844,0,0,1,1.525.426,2.374,2.374,0,0,1,.962,1.033,3.548,3.548,0,0,1,.3.989,18.2,18.2,0,0,1,.079,2.158V18H40.315V12.313a8,8,0,0,0-.136-1.868,1.466,1.466,0,0,0-.5-.743,1.251,1.251,0,0,0-.8-.29,2.991,2.991,0,0,0-1.85.817,6.541,6.541,0,0,0-1.63,2.048V18Zm14.845.272A4.228,4.228,0,0,1,45.237,16.8a5.494,5.494,0,0,1-1.266-3.713,5.477,5.477,0,0,1,1.266-3.709,4.6,4.6,0,0,1,6.741,0,5.477,5.477,0,0,1,1.266,3.709A5.494,5.494,0,0,1,51.979,16.8,4.218,4.218,0,0,1,48.612,18.272Zm0-1.362a2.479,2.479,0,0,0,2.083-1.02,4.54,4.54,0,0,0,.773-2.8,4.524,4.524,0,0,0-.773-2.795,2.647,2.647,0,0,0-4.175,0,4.524,4.524,0,0,0-.773,2.795,4.54,4.54,0,0,0,.773,2.8A2.488,2.488,0,0,0,48.612,16.91Zm13.315-1.116a5.283,5.283,0,0,1-1.8,1.854,3.839,3.839,0,0,1-1.929.624,2.947,2.947,0,0,1-2.21-1.063,4.623,4.623,0,0,1-.98-3.226,6.889,6.889,0,0,1,.65-3.045A5.477,5.477,0,0,1,57.4,8.82a4.526,4.526,0,0,1,2.7-.778q.466,0,1.406.1.141.018.422.044V3.814h1.644V18H61.928Zm0-1.942V9.642a6.392,6.392,0,0,0-1.617-.229,3.186,3.186,0,0,0-2.518,1.169,4.714,4.714,0,0,0-1.006,3.182,3.68,3.68,0,0,0,.549,2.2,1.558,1.558,0,0,0,1.252.743,2.743,2.743,0,0,0,1.688-.773A7.33,7.33,0,0,0,61.928,13.852Zm8.279,4.562a1.44,1.44,0,1,1,1.011-.422A1.379,1.379,0,0,1,70.207,18.413Zm0-7.638A1.429,1.429,0,0,1,69.2,8.328a1.422,1.422,0,0,1,2.013,0,1.433,1.433,0,0,1-1.006,2.448Zm25.77,7.216a9.48,9.48,0,0,1-2.646.422,5.341,5.341,0,0,1-5.124-3.388,9.373,9.373,0,0,1-.756-3.845,9.4,9.4,0,0,1,.738-3.806,5.631,5.631,0,0,1,2.083-2.558,5.326,5.326,0,0,1,2.953-.87,7.946,7.946,0,0,1,2.742.571V6.135a5.587,5.587,0,0,0-2.812-.817,2.964,2.964,0,0,0-1.929.721A4.956,4.956,0,0,0,89.82,8.152a8.472,8.472,0,0,0-.532,3.045A8.166,8.166,0,0,0,90.3,15.231a3.392,3.392,0,0,0,3.19,1.819q.281,0,.712-.044V12.612H92.839V11.25h3.138ZM106.365,16.5V18H99V4.359h7.225V5.73h-5.449v4.632h4.9v1.362h-4.9V16.5Zm6.161,1.5V5.862h-4.087v-1.5H118.4v1.5h-4.1V18Zm-103,29.35a8.66,8.66,0,0,1-3.709.932,4.357,4.357,0,0,1-2.373-.659,4.7,4.7,0,0,1-1.674-1.885,5.671,5.671,0,0,1-.628-2.624,5.879,5.879,0,0,1,.6-2.584A4.619,4.619,0,0,1,3.41,38.6,4.325,4.325,0,0,1,5.8,37.91a3.5,3.5,0,0,1,2.808,1.248,5.858,5.858,0,0,1,1.059,3.85v.352H2.9a4.072,4.072,0,0,0,.426,1.863,3.03,3.03,0,0,0,1.121,1.266,2.986,2.986,0,0,0,1.582.422,7.37,7.37,0,0,0,3.5-1.055ZM3,42.138h4.9V41.9A2.913,2.913,0,0,0,7.3,39.984a1.938,1.938,0,0,0-1.573-.712A2.348,2.348,0,0,0,4.012,40,4.126,4.126,0,0,0,3,42.138ZM12.164,48V38.183H13.8v2.145a5.547,5.547,0,0,1,1.7-1.775,3.637,3.637,0,0,1,1.986-.642,2.847,2.847,0,0,1,1.582.461,2.468,2.468,0,0,1,1,1.208,9.736,9.736,0,0,1,.286,2.936V48H18.712V42.313a8,8,0,0,0-.136-1.868,1.466,1.466,0,0,0-.5-.743,1.251,1.251,0,0,0-.8-.29,2.991,2.991,0,0,0-1.85.817,6.541,6.541,0,0,0-1.63,2.048V48Zm17.358-2.206a5.283,5.283,0,0,1-1.8,1.854,3.839,3.839,0,0,1-1.929.624,2.947,2.947,0,0,1-2.21-1.063,4.623,4.623,0,0,1-.98-3.226,6.889,6.889,0,0,1,.65-3.045A5.477,5.477,0,0,1,25,38.82a4.526,4.526,0,0,1,2.7-.778q.466,0,1.406.1.141.018.422.044V33.814h1.644V48H29.522Zm0-1.942v-4.21a6.392,6.392,0,0,0-1.617-.229,3.186,3.186,0,0,0-2.518,1.169,4.714,4.714,0,0,0-1.006,3.182,3.68,3.68,0,0,0,.549,2.2,1.558,1.558,0,0,0,1.252.743,2.743,2.743,0,0,0,1.688-.773A7.33,7.33,0,0,0,29.522,43.852Zm5.757-3.463a5.369,5.369,0,0,1,1.8-1.854,3.817,3.817,0,0,1,1.925-.624,2.961,2.961,0,0,1,2.215,1.063,4.609,4.609,0,0,1,.984,3.226,6.85,6.85,0,0,1-.655,3.045,5.512,5.512,0,0,1-1.745,2.118,4.526,4.526,0,0,1-2.7.778q-.457,0-1.406-.1-.141-.018-.422-.044v3.814H33.645V38.183h1.635Zm0,1.942v4.21a6.6,6.6,0,0,0,1.635.229,3.19,3.19,0,0,0,2.5-1.165,4.684,4.684,0,0,0,1.015-3.186,3.654,3.654,0,0,0-.554-2.206,1.571,1.571,0,0,0-1.257-.738,2.727,2.727,0,0,0-1.683.773A7.5,7.5,0,0,0,35.279,42.331Zm13.333,5.941A4.228,4.228,0,0,1,45.237,46.8a6.074,6.074,0,0,1,0-7.422,4.6,4.6,0,0,1,6.741,0,6.074,6.074,0,0,1,0,7.422A4.218,4.218,0,0,1,48.612,48.272Zm0-1.362a2.479,2.479,0,0,0,2.083-1.02,4.54,4.54,0,0,0,.773-2.8,4.524,4.524,0,0,0-.773-2.795,2.647,2.647,0,0,0-4.175,0,4.524,4.524,0,0,0-.773,2.795,4.54,4.54,0,0,0,.773,2.8A2.488,2.488,0,0,0,48.612,46.91ZM58.122,48V39.545H55.4V38.183h4.359v8.455H62.49V48ZM57.85,34.641a.951.951,0,0,1,.378-.826,1.078,1.078,0,0,1,1.433,0,1.082,1.082,0,0,1,0,1.644,1.078,1.078,0,0,1-1.433,0A.942.942,0,0,1,57.85,34.641ZM66.173,48V38.183h1.635v2.145a5.547,5.547,0,0,1,1.7-1.775,3.637,3.637,0,0,1,1.986-.642,2.847,2.847,0,0,1,1.582.461,2.468,2.468,0,0,1,1,1.208,9.736,9.736,0,0,1,.286,2.936V48H72.721V42.313a8,8,0,0,0-.136-1.868,1.466,1.466,0,0,0-.5-.743,1.251,1.251,0,0,0-.8-.29,2.991,2.991,0,0,0-1.85.817,6.541,6.541,0,0,0-1.63,2.048V48Zm19.011-.4a9.16,9.16,0,0,1-1.67.576,5.717,5.717,0,0,1-1,.092,4.415,4.415,0,0,1-1.881-.4,2.768,2.768,0,0,1-1.288-1.169,5.052,5.052,0,0,1-.435-2.391V40.362H76.456V39h2.452V35.045h1.635V39h4.368v1.362H80.543v3.929a3.588,3.588,0,0,0,.281,1.674,1.733,1.733,0,0,0,.751.716,2.519,2.519,0,0,0,1.112.229,5.054,5.054,0,0,0,2.5-.747Zm6.627.809a1.44,1.44,0,1,1,1.011-.422A1.379,1.379,0,0,1,91.811,48.413Zm0-7.638a1.44,1.44,0,1,1,1.011-.422A1.379,1.379,0,0,1,91.811,40.775Zm18.105,7.638h-1.608l8.675-14.458h1.556Zm11.777-8.024a5.369,5.369,0,0,1,1.8-1.854,3.817,3.817,0,0,1,1.925-.624,2.961,2.961,0,0,1,2.215,1.063,4.609,4.609,0,0,1,.984,3.226,6.85,6.85,0,0,1-.655,3.045,5.512,5.512,0,0,1-1.745,2.118,4.526,4.526,0,0,1-2.7.778q-.457,0-1.406-.1-.141-.018-.422-.044v3.814h-1.635V38.183h1.635Zm0,1.942v4.21a6.6,6.6,0,0,0,1.635.229,3.19,3.19,0,0,0,2.5-1.165,4.684,4.684,0,0,0,1.015-3.186,3.654,3.654,0,0,0-.554-2.206,1.571,1.571,0,0,0-1.257-.738,2.727,2.727,0,0,0-1.683.773A7.5,7.5,0,0,0,121.693,42.331Zm13.333,5.941a4.228,4.228,0,0,1-3.375-1.472,6.074,6.074,0,0,1,0-7.422,4.6,4.6,0,0,1,6.741,0,6.074,6.074,0,0,1,0,7.422A4.218,4.218,0,0,1,135.026,48.272Zm0-1.362a2.479,2.479,0,0,0,2.083-1.02,4.54,4.54,0,0,0,.773-2.8,4.524,4.524,0,0,0-.773-2.795,2.647,2.647,0,0,0-4.175,0,4.524,4.524,0,0,0-.773,2.795,4.54,4.54,0,0,0,.773,2.8A2.488,2.488,0,0,0,135.026,46.91Zm6.873.571V45.75a6.548,6.548,0,0,0,2.083.9,8.343,8.343,0,0,0,1.863.259,3.075,3.075,0,0,0,1.784-.4,1.2,1.2,0,0,0,.545-1,.973.973,0,0,0-.255-.677,3.971,3.971,0,0,0-1.266-.694l-.562-.229-1.134-.448a5.816,5.816,0,0,1-2.3-1.318,2.246,2.246,0,0,1-.483-1.459,2.486,2.486,0,0,1,.936-2,4.724,4.724,0,0,1,3.037-.782,9.58,9.58,0,0,1,2.979.457v1.485a9.027,9.027,0,0,0-3.041-.58,3.057,3.057,0,0,0-1.622.365,1.061,1.061,0,0,0-.584.91.958.958,0,0,0,.51.844,9.19,9.19,0,0,0,1.635.729l1.107.4a5.623,5.623,0,0,1,2.136,1.2,2.274,2.274,0,0,1,.615,1.626,2.615,2.615,0,0,1-.98,2.1,4.846,4.846,0,0,1-3.133.822A10.417,10.417,0,0,1,141.9,47.481Zm18.9.123a9.16,9.16,0,0,1-1.67.576,5.717,5.717,0,0,1-1,.092,4.415,4.415,0,0,1-1.881-.4,2.768,2.768,0,0,1-1.288-1.169,5.052,5.052,0,0,1-.435-2.391V40.362h-2.452V39h2.452V35.045h1.635V39h4.368v1.362h-4.368v3.929a3.588,3.588,0,0,0,.281,1.674,1.733,1.733,0,0,0,.751.716,2.519,2.519,0,0,0,1.112.229,5.054,5.054,0,0,0,2.5-.747Zm2.707-.123V45.75a6.548,6.548,0,0,0,2.083.9,8.343,8.343,0,0,0,1.863.259,3.075,3.075,0,0,0,1.784-.4,1.2,1.2,0,0,0,.545-1,.973.973,0,0,0-.255-.677,3.971,3.971,0,0,0-1.266-.694l-.562-.229-1.134-.448a5.816,5.816,0,0,1-2.3-1.318,2.246,2.246,0,0,1-.483-1.459,2.486,2.486,0,0,1,.936-2,4.724,4.724,0,0,1,3.037-.782,9.58,9.58,0,0,1,2.979.457v1.485a9.027,9.027,0,0,0-3.041-.58,3.057,3.057,0,0,0-1.622.365,1.061,1.061,0,0,0-.584.91.958.958,0,0,0,.51.844,9.19,9.19,0,0,0,1.635.729l1.107.4a5.623,5.623,0,0,1,2.136,1.2,2.274,2.274,0,0,1,.615,1.626,2.615,2.615,0,0,1-.98,2.1,4.846,4.846,0,0,1-3.133.822A10.417,10.417,0,0,1,163.5,47.481ZM2.874,70.389a5.369,5.369,0,0,1,1.8-1.854A3.817,3.817,0,0,1,6.6,67.91a2.961,2.961,0,0,1,2.215,1.063A4.609,4.609,0,0,1,9.8,72.2a6.85,6.85,0,0,1-.655,3.045A5.512,5.512,0,0,1,7.4,77.363a4.526,4.526,0,0,1-2.7.778q-.457,0-1.406-.1-.141-.018-.422-.044v3.814H1.239V68.183H2.874Zm0,1.942v4.21a6.6,6.6,0,0,0,1.635.229,3.19,3.19,0,0,0,2.5-1.165,4.684,4.684,0,0,0,1.015-3.186,3.654,3.654,0,0,0-.554-2.206,1.571,1.571,0,0,0-1.257-.738,2.727,2.727,0,0,0-1.683.773A7.5,7.5,0,0,0,2.874,72.331Zm15.741,3.463a5.283,5.283,0,0,1-1.8,1.854,3.839,3.839,0,0,1-1.929.624,2.947,2.947,0,0,1-2.21-1.063,4.623,4.623,0,0,1-.98-3.226,6.889,6.889,0,0,1,.65-3.045,5.477,5.477,0,0,1,1.74-2.118,4.526,4.526,0,0,1,2.7-.778q.466,0,1.406.1.141.018.422.044h1.644v6.935A9.317,9.317,0,0,0,20.628,78H18.923A15.3,15.3,0,0,1,18.615,75.794Zm0-1.942v-4.21A6.392,6.392,0,0,0,17,69.413a3.186,3.186,0,0,0-2.518,1.169,4.714,4.714,0,0,0-1.006,3.182,3.68,3.68,0,0,0,.549,2.2,1.558,1.558,0,0,0,1.252.743,2.743,2.743,0,0,0,1.688-.773A7.33,7.33,0,0,0,18.615,73.852ZM23.8,78V68.183h1.635v2.145a5.494,5.494,0,0,1,1.753-1.815,4.15,4.15,0,0,1,2.2-.6,6.023,6.023,0,0,1,1.775.272v3.542H29.593V69.483a4.12,4.12,0,0,0-.65-.07,2.814,2.814,0,0,0-1.793.721A7.881,7.881,0,0,0,25.436,72.3V78Zm16.418-2.206a5.283,5.283,0,0,1-1.8,1.854,3.839,3.839,0,0,1-1.929.624,2.947,2.947,0,0,1-2.21-1.063,4.623,4.623,0,0,1-.98-3.226,6.889,6.889,0,0,1,.65-3.045,5.477,5.477,0,0,1,1.74-2.118,4.526,4.526,0,0,1,2.7-.778q.466,0,1.406.1.141.018.422.044h1.644v6.935A9.317,9.317,0,0,0,42.231,78H40.526A15.3,15.3,0,0,1,40.219,75.794Zm0-1.942v-4.21a6.392,6.392,0,0,0-1.617-.229,3.186,3.186,0,0,0-2.518,1.169,4.714,4.714,0,0,0-1.006,3.182,3.68,3.68,0,0,0,.549,2.2,1.558,1.558,0,0,0,1.252.743,2.743,2.743,0,0,0,1.688-.773A7.33,7.33,0,0,0,40.219,73.852ZM43.831,78V68.183h1.433v2.25a6.738,6.738,0,0,1,1.261-1.978,1.745,1.745,0,0,1,1.182-.545,1.384,1.384,0,0,1,1.147.558,2.531,2.531,0,0,1,.435,1.586v.527a5.137,5.137,0,0,1,.7-1.455,4.193,4.193,0,0,1,.848-.888,1.639,1.639,0,0,1,1.011-.33,1.364,1.364,0,0,1,1.081.536,3.542,3.542,0,0,1,.448,2.136V78H51.943V71.294a7.866,7.866,0,0,0-.053-1.129.838.838,0,0,0-.211-.461.479.479,0,0,0-.343-.158q-.457,0-.98.7a8.723,8.723,0,0,0-1.068,2.316V78H47.918V71.3q0-1.3-.255-1.529a.73.73,0,0,0-.457-.229q-.448,0-.962.782a10.477,10.477,0,0,0-.98,2V78Zm11.654-.519V75.75a6.548,6.548,0,0,0,2.083.9,8.343,8.343,0,0,0,1.863.259,3.075,3.075,0,0,0,1.784-.4,1.2,1.2,0,0,0,.545-1,.973.973,0,0,0-.255-.677,3.971,3.971,0,0,0-1.266-.694l-.562-.229-1.134-.448a5.816,5.816,0,0,1-2.3-1.318,2.246,2.246,0,0,1-.483-1.459,2.486,2.486,0,0,1,.936-2,4.724,4.724,0,0,1,3.037-.782,9.58,9.58,0,0,1,2.979.457v1.485a9.027,9.027,0,0,0-3.041-.58,3.057,3.057,0,0,0-1.622.365,1.061,1.061,0,0,0-.584.91.958.958,0,0,0,.51.844,9.19,9.19,0,0,0,1.635.729l1.107.4a5.623,5.623,0,0,1,2.136,1.2,2.274,2.274,0,0,1,.615,1.626,2.615,2.615,0,0,1-.98,2.1,4.846,4.846,0,0,1-3.133.822A10.417,10.417,0,0,1,55.485,77.481Zm14.722.932a1.44,1.44,0,1,1,1.011-.422A1.379,1.379,0,0,1,70.207,78.413Zm0-7.638a1.44,1.44,0,1,1,1.011-.422A1.379,1.379,0,0,1,70.207,70.775ZM2.874,100.389a5.369,5.369,0,0,1,1.8-1.854A3.817,3.817,0,0,1,6.6,97.91a2.961,2.961,0,0,1,2.215,1.063A4.609,4.609,0,0,1,9.8,102.2a6.85,6.85,0,0,1-.655,3.045A5.512,5.512,0,0,1,7.4,107.363a4.526,4.526,0,0,1-2.7.778q-.457,0-1.406-.1-.141-.018-.422-.044H1.239V93.814H2.874Zm0,1.942v4.21a6.6,6.6,0,0,0,1.635.229,3.19,3.19,0,0,0,2.5-1.165,4.684,4.684,0,0,0,1.015-3.186,3.654,3.654,0,0,0-.554-2.206,1.571,1.571,0,0,0-1.257-.738,2.727,2.727,0,0,0-1.683.773A7.5,7.5,0,0,0,2.874,102.331Zm13.333,5.941a4.228,4.228,0,0,1-3.375-1.472,6.074,6.074,0,0,1,0-7.422,4.233,4.233,0,0,1,3.375-1.468,4.223,4.223,0,0,1,3.366,1.468,6.074,6.074,0,0,1,0,7.422A4.218,4.218,0,0,1,16.207,108.272Zm0-1.362a2.479,2.479,0,0,0,2.083-1.02,5.453,5.453,0,0,0,0-5.6,2.647,2.647,0,0,0-4.175,0,5.453,5.453,0,0,0,0,5.6A2.488,2.488,0,0,0,16.207,106.91Zm13.315-1.116a5.283,5.283,0,0,1-1.8,1.854,3.839,3.839,0,0,1-1.929.624,2.947,2.947,0,0,1-2.21-1.063,4.623,4.623,0,0,1-.98-3.226,6.889,6.889,0,0,1,.65-3.045A5.477,5.477,0,0,1,25,98.82a4.526,4.526,0,0,1,2.7-.778q.466,0,1.406.1.141.018.422.044V93.814h1.644V108H29.522Zm0-1.942v-4.21a6.392,6.392,0,0,0-1.617-.229,3.186,3.186,0,0,0-2.518,1.169,4.714,4.714,0,0,0-1.006,3.182,3.68,3.68,0,0,0,.549,2.2,1.558,1.558,0,0,0,1.252.743,2.743,2.743,0,0,0,1.688-.773A7.33,7.33,0,0,0,29.522,103.852ZM37.38,107.6l-4.535-9.422h1.8l3.612,7.365,3.023-7.365h1.644l-3.806,9.123a10.9,10.9,0,0,1-2.29,3.841,4.11,4.11,0,0,1-2.808.949,6.141,6.141,0,0,1-1.336-.132v-1.441a4.341,4.341,0,0,0,1.292.211,3.1,3.1,0,0,0,1.406-.308,2.994,2.994,0,0,0,1.125-1.09,7.082,7.082,0,0,0,.721-1.354Zm11.224.809a1.44,1.44,0,1,1,1.011-.422A1.379,1.379,0,0,1,48.6,108.413Zm0-7.638a1.44,1.44,0,1,1,1.011-.422A1.379,1.379,0,0,1,48.6,100.775ZM74.03,93.542v1.1a1.957,1.957,0,0,0-1.49,1.261,3.052,3.052,0,0,0-.2,1.165,1.463,1.463,0,0,1,1.591,1.441,1.381,1.381,0,0,1-.431,1.033,1.4,1.4,0,0,1-1,.417,1.614,1.614,0,0,1-1.279-.637,2.641,2.641,0,0,1-.532-1.745,4.066,4.066,0,0,1,.422-1.828,4.459,4.459,0,0,1,1.147-1.459A3.4,3.4,0,0,1,74.03,93.542Zm-4.3,0v1.1a1.957,1.957,0,0,0-1.49,1.261,3.052,3.052,0,0,0-.2,1.165,1.484,1.484,0,0,1,1.2.461,1.5,1.5,0,0,1,.387.98,1.381,1.381,0,0,1-.431,1.033,1.4,1.4,0,0,1-1,.417,1.618,1.618,0,0,1-1.274-.637,2.626,2.626,0,0,1-.536-1.745,4.066,4.066,0,0,1,.422-1.828,4.459,4.459,0,0,1,1.147-1.459A3.4,3.4,0,0,1,69.732,93.542Zm7.462,6.416v-1.1a1.957,1.957,0,0,0,1.49-1.261,3.052,3.052,0,0,0,.2-1.165,1.484,1.484,0,0,1-1.2-.461,1.5,1.5,0,0,1-.387-.98,1.381,1.381,0,0,1,.431-1.033,1.4,1.4,0,0,1,1-.417A1.618,1.618,0,0,1,80,94.179a2.626,2.626,0,0,1,.536,1.745,4.066,4.066,0,0,1-.422,1.828,4.459,4.459,0,0,1-1.147,1.459A3.4,3.4,0,0,1,77.194,99.958Zm4.3,0v-1.1a2.257,2.257,0,0,0,.958-.475,2.182,2.182,0,0,0,.532-.787,3.052,3.052,0,0,0,.2-1.165,1.484,1.484,0,0,1-1.2-.461,1.5,1.5,0,0,1-.387-.98,1.441,1.441,0,0,1,1.424-1.45,1.626,1.626,0,0,1,1.283.637,2.626,2.626,0,0,1,.536,1.745,4.066,4.066,0,0,1-.422,1.828,4.459,4.459,0,0,1-1.147,1.459A3.4,3.4,0,0,1,81.492,99.958ZM1.362,138V123.814H3v6.513a5.547,5.547,0,0,1,1.7-1.775,3.637,3.637,0,0,1,1.986-.642,2.844,2.844,0,0,1,1.525.426,2.374,2.374,0,0,1,.962,1.033,3.548,3.548,0,0,1,.3.989,18.2,18.2,0,0,1,.079,2.158V138H7.91v-5.687a8,8,0,0,0-.136-1.868,1.466,1.466,0,0,0-.5-.743,1.251,1.251,0,0,0-.8-.29,2.991,2.991,0,0,0-1.85.817A6.541,6.541,0,0,0,3,132.278V138Zm18.967-.65a8.66,8.66,0,0,1-3.709.932,4.357,4.357,0,0,1-2.373-.659,4.7,4.7,0,0,1-1.674-1.885,5.671,5.671,0,0,1-.628-2.624,5.879,5.879,0,0,1,.6-2.584,4.619,4.619,0,0,1,1.67-1.929,4.325,4.325,0,0,1,2.391-.69,3.5,3.5,0,0,1,2.808,1.248,5.858,5.858,0,0,1,1.059,3.85v.352H13.7a4.072,4.072,0,0,0,.426,1.863,3.03,3.03,0,0,0,1.121,1.266,2.986,2.986,0,0,0,1.582.422,7.37,7.37,0,0,0,3.5-1.055Zm-6.53-5.212h4.9V131.9a2.913,2.913,0,0,0-.589-1.916,1.938,1.938,0,0,0-1.573-.712,2.348,2.348,0,0,0-1.718.725A4.126,4.126,0,0,0,13.8,132.138Zm15.618,3.656a5.283,5.283,0,0,1-1.8,1.854,3.839,3.839,0,0,1-1.929.624,2.947,2.947,0,0,1-2.21-1.063,4.623,4.623,0,0,1-.98-3.226,6.889,6.889,0,0,1,.65-3.045,5.477,5.477,0,0,1,1.74-2.118,4.526,4.526,0,0,1,2.7-.778q.466,0,1.406.1.141.018.422.044h1.644v6.935A9.317,9.317,0,0,0,31.43,138H29.725A15.3,15.3,0,0,1,29.417,135.794Zm0-1.942v-4.21a6.392,6.392,0,0,0-1.617-.229,3.186,3.186,0,0,0-2.518,1.169,4.714,4.714,0,0,0-1.006,3.182,3.68,3.68,0,0,0,.549,2.2,1.558,1.558,0,0,0,1.252.743,2.743,2.743,0,0,0,1.688-.773A7.33,7.33,0,0,0,29.417,133.852Zm10.907,1.942a5.283,5.283,0,0,1-1.8,1.854,3.839,3.839,0,0,1-1.929.624,2.947,2.947,0,0,1-2.21-1.063,4.623,4.623,0,0,1-.98-3.226,6.889,6.889,0,0,1,.65-3.045,5.477,5.477,0,0,1,1.74-2.118,4.526,4.526,0,0,1,2.7-.778q.466,0,1.406.1.141.018.422.044v-4.368h1.644V138H40.324Zm0-1.942v-4.21a6.392,6.392,0,0,0-1.617-.229,3.186,3.186,0,0,0-2.518,1.169,4.714,4.714,0,0,0-1.006,3.182,3.68,3.68,0,0,0,.549,2.2,1.558,1.558,0,0,0,1.252.743,2.743,2.743,0,0,0,1.688-.773A7.33,7.33,0,0,0,40.324,133.852Zm12.41,3.5a8.66,8.66,0,0,1-3.709.932,4.357,4.357,0,0,1-2.373-.659,4.7,4.7,0,0,1-1.674-1.885,5.671,5.671,0,0,1-.628-2.624,5.879,5.879,0,0,1,.6-2.584,4.619,4.619,0,0,1,1.67-1.929,4.325,4.325,0,0,1,2.391-.69,3.5,3.5,0,0,1,2.808,1.248,5.858,5.858,0,0,1,1.059,3.85v.352H46.107a4.072,4.072,0,0,0,.426,1.863,3.03,3.03,0,0,0,1.121,1.266,2.986,2.986,0,0,0,1.582.422,7.37,7.37,0,0,0,3.5-1.055Zm-6.53-5.212h4.9V131.9a2.913,2.913,0,0,0-.589-1.916,1.938,1.938,0,0,0-1.573-.712,2.348,2.348,0,0,0-1.718.725A4.126,4.126,0,0,0,46.2,132.138Zm10,5.862v-9.817h1.635v2.145a5.494,5.494,0,0,1,1.753-1.815,4.15,4.15,0,0,1,2.2-.6,6.023,6.023,0,0,1,1.775.272v3.542H62v-2.241a4.12,4.12,0,0,0-.65-.07,2.814,2.814,0,0,0-1.793.721,7.881,7.881,0,0,0-1.714,2.162V138Zm10.081-.519V135.75a6.548,6.548,0,0,0,2.083.9,8.343,8.343,0,0,0,1.863.259,3.075,3.075,0,0,0,1.784-.4,1.2,1.2,0,0,0,.545-1,.973.973,0,0,0-.255-.677,3.971,3.971,0,0,0-1.266-.694l-.562-.229-1.134-.448a5.816,5.816,0,0,1-2.3-1.318,2.246,2.246,0,0,1-.483-1.459,2.486,2.486,0,0,1,.936-2,4.724,4.724,0,0,1,3.037-.782,9.58,9.58,0,0,1,2.979.457v1.485a9.027,9.027,0,0,0-3.041-.58,3.057,3.057,0,0,0-1.622.365,1.061,1.061,0,0,0-.584.91.958.958,0,0,0,.51.844,9.19,9.19,0,0,0,1.635.729l1.107.4a5.623,5.623,0,0,1,2.136,1.2,2.274,2.274,0,0,1,.615,1.626,2.615,2.615,0,0,1-.98,2.1,4.846,4.846,0,0,1-3.133.822A10.417,10.417,0,0,1,66.287,137.481Zm14.722.932a1.44,1.44,0,1,1,1.011-.422A1.379,1.379,0,0,1,81.009,138.413Zm0-7.638a1.44,1.44,0,1,1,1.011-.422A1.379,1.379,0,0,1,81.009,130.775ZM52.77,167.842a7.946,7.946,0,0,1-2.742.571,5.371,5.371,0,0,1-2.944-.857,5.6,5.6,0,0,1-2.092-2.549,10.178,10.178,0,0,1-.009-7.633,5.631,5.631,0,0,1,2.083-2.558,5.341,5.341,0,0,1,2.962-.87,7.946,7.946,0,0,1,2.742.571v1.617a5.587,5.587,0,0,0-2.812-.817,2.964,2.964,0,0,0-1.929.721,4.988,4.988,0,0,0-1.411,2.114,8.8,8.8,0,0,0,.018,6.1,5,5,0,0,0,1.415,2.1,2.956,2.956,0,0,0,1.907.7,5.62,5.62,0,0,0,2.813-.817Zm6.645.431a4.228,4.228,0,0,1-3.375-1.472,6.074,6.074,0,0,1,0-7.422,4.6,4.6,0,0,1,6.741,0,6.074,6.074,0,0,1,0,7.422A4.218,4.218,0,0,1,59.414,168.272Zm0-1.362a2.479,2.479,0,0,0,2.083-1.02,5.453,5.453,0,0,0,0-5.6,2.647,2.647,0,0,0-4.175,0,5.453,5.453,0,0,0,0,5.6A2.488,2.488,0,0,0,59.414,166.91ZM66.173,168v-9.817h1.635v2.145a5.547,5.547,0,0,1,1.7-1.775,3.637,3.637,0,0,1,1.986-.642,2.847,2.847,0,0,1,1.582.461,2.468,2.468,0,0,1,1,1.208,9.736,9.736,0,0,1,.286,2.936V168H72.721v-5.687a8,8,0,0,0-.136-1.868,1.466,1.466,0,0,0-.5-.743,1.251,1.251,0,0,0-.8-.29,2.991,2.991,0,0,0-1.85.817,6.541,6.541,0,0,0-1.63,2.048V168Zm19.011-.4a9.16,9.16,0,0,1-1.67.576,5.717,5.717,0,0,1-1,.092,4.415,4.415,0,0,1-1.881-.4,2.768,2.768,0,0,1-1.288-1.169,5.052,5.052,0,0,1-.435-2.391v-3.955H76.456V159h2.452v-3.955h1.635V159h4.368v1.362H80.543v3.929a3.588,3.588,0,0,0,.281,1.674,1.733,1.733,0,0,0,.751.716,2.519,2.519,0,0,0,1.112.229,5.054,5.054,0,0,0,2.5-.747Zm10.758-.255a8.66,8.66,0,0,1-3.709.932,4.357,4.357,0,0,1-2.373-.659,4.7,4.7,0,0,1-1.674-1.885,5.671,5.671,0,0,1-.628-2.624,5.879,5.879,0,0,1,.6-2.584,4.619,4.619,0,0,1,1.67-1.929,4.325,4.325,0,0,1,2.391-.69,3.5,3.5,0,0,1,2.808,1.248,5.858,5.858,0,0,1,1.059,3.85v.352H89.314a4.072,4.072,0,0,0,.426,1.863,3.03,3.03,0,0,0,1.121,1.266,2.986,2.986,0,0,0,1.582.422,7.37,7.37,0,0,0,3.5-1.055Zm-6.53-5.212h4.9V161.9a2.913,2.913,0,0,0-.589-1.916,1.938,1.938,0,0,0-1.573-.712,2.348,2.348,0,0,0-1.718.725A4.126,4.126,0,0,0,89.411,162.138ZM98.578,168v-9.817h1.635v2.145a5.547,5.547,0,0,1,1.7-1.775,3.637,3.637,0,0,1,1.986-.642,2.847,2.847,0,0,1,1.582.461,2.468,2.468,0,0,1,1,1.208,9.736,9.736,0,0,1,.286,2.936V168h-1.635v-5.687a8,8,0,0,0-.136-1.868,1.466,1.466,0,0,0-.5-.743,1.251,1.251,0,0,0-.8-.29,2.991,2.991,0,0,0-1.85.817,6.541,6.541,0,0,0-1.63,2.048V168Zm19.011-.4a9.16,9.16,0,0,1-1.67.576,5.717,5.717,0,0,1-1,.092,4.415,4.415,0,0,1-1.881-.4,2.768,2.768,0,0,1-1.288-1.169,5.052,5.052,0,0,1-.435-2.391v-3.955h-2.452V159h2.452v-3.955h1.635V159h4.368v1.362h-4.368v3.929a3.588,3.588,0,0,0,.281,1.674,1.733,1.733,0,0,0,.751.716,2.519,2.519,0,0,0,1.112.229,5.054,5.054,0,0,0,2.5-.747Zm3.226-4.447v-1.362h6.82v1.362ZM134.13,168V155.862h-4.087v-1.5H140v1.5h-4.1V168Zm11.268-.4-4.535-9.422h1.8l3.612,7.365,3.023-7.365h1.644l-3.806,9.123a10.9,10.9,0,0,1-2.29,3.841,4.11,4.11,0,0,1-2.808.949,6.141,6.141,0,0,1-1.336-.132v-1.441a4.341,4.341,0,0,0,1.292.211,3.1,3.1,0,0,0,1.406-.308,2.994,2.994,0,0,0,1.125-1.09,7.082,7.082,0,0,0,.721-1.354Zm8.7-7.216a5.369,5.369,0,0,1,1.8-1.854,3.817,3.817,0,0,1,1.925-.624,2.961,2.961,0,0,1,2.215,1.063,4.609,4.609,0,0,1,.984,3.226,6.85,6.85,0,0,1-.655,3.045,5.512,5.512,0,0,1-1.745,2.118,4.526,4.526,0,0,1-2.7.778q-.457,0-1.406-.1-.141-.018-.422-.044v3.814h-1.635V158.183H154.1Zm0,1.942v4.21a6.6,6.6,0,0,0,1.635.229,3.19,3.19,0,0,0,2.5-1.165,4.684,4.684,0,0,0,1.015-3.186,3.654,3.654,0,0,0-.554-2.206,1.571,1.571,0,0,0-1.257-.738,2.727,2.727,0,0,0-1.683.773A7.5,7.5,0,0,0,154.1,162.331Zm17.455,5.019a8.66,8.66,0,0,1-3.709.932,4.357,4.357,0,0,1-2.373-.659,4.7,4.7,0,0,1-1.674-1.885,5.671,5.671,0,0,1-.628-2.624,5.879,5.879,0,0,1,.6-2.584,4.619,4.619,0,0,1,1.67-1.929,4.325,4.325,0,0,1,2.391-.69,3.5,3.5,0,0,1,2.808,1.248,5.858,5.858,0,0,1,1.059,3.85v.352h-6.768a4.072,4.072,0,0,0,.426,1.863,3.03,3.03,0,0,0,1.121,1.266,2.986,2.986,0,0,0,1.582.422,7.37,7.37,0,0,0,3.5-1.055Zm-6.53-5.212h4.9V161.9a2.913,2.913,0,0,0-.589-1.916,1.938,1.938,0,0,0-1.573-.712,2.348,2.348,0,0,0-1.718.725A4.126,4.126,0,0,0,165.023,162.138Zm13.2,6.275a1.44,1.44,0,1,1,1.011-.422A1.379,1.379,0,0,1,178.225,168.413Zm0-7.638a1.44,1.44,0,1,1,1.011-.422A1.379,1.379,0,0,1,178.225,160.775Zm24.021,5.019a5.283,5.283,0,0,1-1.8,1.854,3.839,3.839,0,0,1-1.929.624,2.947,2.947,0,0,1-2.21-1.063,4.623,4.623,0,0,1-.98-3.226,6.889,6.889,0,0,1,.65-3.045,5.477,5.477,0,0,1,1.74-2.118,4.526,4.526,0,0,1,2.7-.778q.466,0,1.406.1.141.018.422.044h1.644v6.935a9.317,9.317,0,0,0,.369,2.883h-1.705A15.3,15.3,0,0,1,202.245,165.794Zm0-1.942v-4.21a6.392,6.392,0,0,0-1.617-.229,3.186,3.186,0,0,0-2.518,1.169,4.714,4.714,0,0,0-1.006,3.182,3.68,3.68,0,0,0,.549,2.2,1.558,1.558,0,0,0,1.252.743,2.743,2.743,0,0,0,1.688-.773A7.33,7.33,0,0,0,202.245,163.852Zm5.862-3.463a5.369,5.369,0,0,1,1.8-1.854,3.817,3.817,0,0,1,1.925-.624,2.961,2.961,0,0,1,2.215,1.063,4.609,4.609,0,0,1,.984,3.226,6.85,6.85,0,0,1-.655,3.045,5.512,5.512,0,0,1-1.745,2.118,4.526,4.526,0,0,1-2.7.778q-.457,0-1.406-.1-.141-.018-.422-.044v3.814h-1.635V158.183h1.635Zm0,1.942v4.21a6.6,6.6,0,0,0,1.635.229,3.19,3.19,0,0,0,2.5-1.165,4.684,4.684,0,0,0,1.015-3.186,3.654,3.654,0,0,0-.554-2.206,1.571,1.571,0,0,0-1.257-.738,2.727,2.727,0,0,0-1.683.773A7.5,7.5,0,0,0,208.107,162.331Zm10.8-1.942a5.369,5.369,0,0,1,1.8-1.854,3.817,3.817,0,0,1,1.925-.624,2.961,2.961,0,0,1,2.215,1.063,4.609,4.609,0,0,1,.984,3.226,6.85,6.85,0,0,1-.655,3.045,5.512,5.512,0,0,1-1.745,2.118,4.526,4.526,0,0,1-2.7.778q-.457,0-1.406-.1-.141-.018-.422-.044v3.814h-1.635V158.183h1.635Zm0,1.942v4.21a6.6,6.6,0,0,0,1.635.229,3.19,3.19,0,0,0,2.5-1.165,4.684,4.684,0,0,0,1.015-3.186,3.654,3.654,0,0,0-.554-2.206,1.571,1.571,0,0,0-1.257-.738,2.727,2.727,0,0,0-1.683.773A7.5,7.5,0,0,0,218.909,162.331ZM230.836,168V155.186H227.9v-1.371h4.57v12.823h3.067V168Zm10.916,0v-8.455h-2.725v-1.362h4.359v8.455h2.733V168Zm-.272-13.359a.951.951,0,0,1,.378-.826,1.078,1.078,0,0,1,1.433,0,1.082,1.082,0,0,1,0,1.644,1.078,1.078,0,0,1-1.433,0A.942.942,0,0,1,241.479,154.641Zm16.585,13.078a9.8,9.8,0,0,1-3.129.554,5.039,5.039,0,0,1-2.624-.681,4.81,4.81,0,0,1-1.789-1.846,5.4,5.4,0,0,1-.642-2.65,5.07,5.07,0,0,1,1.455-3.709,4.749,4.749,0,0,1,3.511-1.477,10.086,10.086,0,0,1,3.217.571v1.573a7.52,7.52,0,0,0-3.067-.782,3.4,3.4,0,0,0-1.687.444,2.918,2.918,0,0,0-1.222,1.384,4.6,4.6,0,0,0-.431,1.934,4.389,4.389,0,0,0,.831,2.531,2.944,2.944,0,0,0,2.606,1.2,7.387,7.387,0,0,0,1.055-.075,13.188,13.188,0,0,0,1.916-.549Zm8.991-1.925a5.283,5.283,0,0,1-1.8,1.854,3.839,3.839,0,0,1-1.929.624,2.947,2.947,0,0,1-2.21-1.063,4.623,4.623,0,0,1-.98-3.226,6.889,6.889,0,0,1,.65-3.045,5.477,5.477,0,0,1,1.74-2.118,4.526,4.526,0,0,1,2.7-.778q.466,0,1.406.1.141.018.422.044H268.7v6.935a9.317,9.317,0,0,0,.369,2.883h-1.705A15.3,15.3,0,0,1,267.056,165.794Zm0-1.942v-4.21a6.392,6.392,0,0,0-1.617-.229,3.186,3.186,0,0,0-2.518,1.169,4.714,4.714,0,0,0-1.006,3.182,3.68,3.68,0,0,0,.549,2.2,1.558,1.558,0,0,0,1.252.743,2.743,2.743,0,0,0,1.688-.773A7.33,7.33,0,0,0,267.056,163.852Zm12.56,3.753a9.16,9.16,0,0,1-1.67.576,5.717,5.717,0,0,1-1,.092,4.415,4.415,0,0,1-1.881-.4,2.768,2.768,0,0,1-1.288-1.169,5.052,5.052,0,0,1-.435-2.391v-3.955h-2.452V159h2.452v-3.955h1.635V159h4.368v1.362h-4.368v3.929a3.588,3.588,0,0,0,.281,1.674,1.733,1.733,0,0,0,.751.716,2.519,2.519,0,0,0,1.112.229,5.054,5.054,0,0,0,2.5-.747Zm5.344.4v-8.455h-2.725v-1.362h4.359v8.455h2.733V168Zm-.272-13.359a.951.951,0,0,1,.378-.826,1.078,1.078,0,0,1,1.433,0,1.082,1.082,0,0,1,0,1.644,1.078,1.078,0,0,1-1.433,0A.942.942,0,0,1,284.687,154.641Zm12.366,13.632a4.228,4.228,0,0,1-3.375-1.472,6.074,6.074,0,0,1,0-7.422,4.6,4.6,0,0,1,6.741,0,6.074,6.074,0,0,1,0,7.422A4.218,4.218,0,0,1,297.053,168.272Zm0-1.362a2.479,2.479,0,0,0,2.083-1.02,5.453,5.453,0,0,0,0-5.6,2.647,2.647,0,0,0-4.175,0,5.453,5.453,0,0,0,0,5.6A2.488,2.488,0,0,0,297.053,166.91Zm6.759,1.09v-9.817h1.635v2.145a5.547,5.547,0,0,1,1.7-1.775,3.637,3.637,0,0,1,1.986-.642,2.847,2.847,0,0,1,1.582.461,2.468,2.468,0,0,1,1,1.208,9.736,9.736,0,0,1,.286,2.936V168h-1.635v-5.687a8,8,0,0,0-.136-1.868,1.466,1.466,0,0,0-.5-.743,1.251,1.251,0,0,0-.8-.29,2.991,2.991,0,0,0-1.85.817,6.541,6.541,0,0,0-1.63,2.048V168Zm11.338.413h-1.608l8.675-14.458h1.556Zm10.415,3.437V170.32a8.444,8.444,0,0,0,2.312.4,3.08,3.08,0,0,0,1.389-.286,1.968,1.968,0,0,0,.892-.962,6.049,6.049,0,0,0,.321-2.355v-7.576h-4.166v-1.362h5.8v8.631a7.217,7.217,0,0,1-.589,3.467,3.574,3.574,0,0,1-1.424,1.393,5.129,5.129,0,0,1-2.285.422A11.273,11.273,0,0,1,325.564,171.85Zm4.641-17.209a.955.955,0,0,1,.374-.826,1.078,1.078,0,0,1,1.433,0,1.091,1.091,0,0,1,0,1.644,1.078,1.078,0,0,1-1.433,0A.946.946,0,0,1,330.205,154.641Zm6.126,12.841V165.75a6.548,6.548,0,0,0,2.083.9,8.343,8.343,0,0,0,1.863.259,3.075,3.075,0,0,0,1.784-.4,1.2,1.2,0,0,0,.545-1,.973.973,0,0,0-.255-.677,3.971,3.971,0,0,0-1.266-.694l-.562-.229-1.134-.448a5.816,5.816,0,0,1-2.3-1.318,2.246,2.246,0,0,1-.483-1.459,2.486,2.486,0,0,1,.936-2,4.724,4.724,0,0,1,3.037-.782,9.58,9.58,0,0,1,2.979.457v1.485a9.027,9.027,0,0,0-3.041-.58,3.057,3.057,0,0,0-1.622.365,1.061,1.061,0,0,0-.584.91.958.958,0,0,0,.51.844,9.19,9.19,0,0,0,1.635.729l1.107.4a5.623,5.623,0,0,1,2.136,1.2,2.274,2.274,0,0,1,.615,1.626,2.615,2.615,0,0,1-.98,2.1,4.846,4.846,0,0,1-3.133.822A10.417,10.417,0,0,1,336.331,167.481Zm14.73.791a4.228,4.228,0,0,1-3.375-1.472,6.074,6.074,0,0,1,0-7.422,4.6,4.6,0,0,1,6.741,0,6.074,6.074,0,0,1,0,7.422A4.218,4.218,0,0,1,351.062,168.272Zm0-1.362a2.479,2.479,0,0,0,2.083-1.02,5.453,5.453,0,0,0,0-5.6,2.647,2.647,0,0,0-4.175,0,5.453,5.453,0,0,0,0,5.6A2.488,2.488,0,0,0,351.062,166.91ZM357.82,168v-9.817h1.635v2.145a5.547,5.547,0,0,1,1.7-1.775,3.637,3.637,0,0,1,1.986-.642,2.847,2.847,0,0,1,1.582.461,2.468,2.468,0,0,1,1,1.208,9.736,9.736,0,0,1,.286,2.936V168h-1.635v-5.687a8,8,0,0,0-.136-1.868,1.466,1.466,0,0,0-.5-.743,1.251,1.251,0,0,0-.8-.29,2.991,2.991,0,0,0-1.85.817,6.541,6.541,0,0,0-1.63,2.048V168ZM45.2,198H43.5l4.2-13.641h1.8L53.728,198H51.855l-.932-3h-4.8Zm1.345-4.359h3.981l-1.644-5.177-.387-1.371-.343,1.371Zm17.086,4.078a9.8,9.8,0,0,1-3.129.554,5.039,5.039,0,0,1-2.624-.681,4.81,4.81,0,0,1-1.789-1.846,5.4,5.4,0,0,1-.642-2.65,5.07,5.07,0,0,1,1.455-3.709,4.749,4.749,0,0,1,3.511-1.477,10.086,10.086,0,0,1,3.217.571v1.573a7.52,7.52,0,0,0-3.067-.782,3.4,3.4,0,0,0-1.687.444,2.918,2.918,0,0,0-1.222,1.384,4.6,4.6,0,0,0-.431,1.934,4.389,4.389,0,0,0,.831,2.531,2.944,2.944,0,0,0,2.606,1.2,7.387,7.387,0,0,0,1.055-.075,13.188,13.188,0,0,0,1.916-.549Zm10.8,0a9.8,9.8,0,0,1-3.129.554,5.039,5.039,0,0,1-2.624-.681,4.81,4.81,0,0,1-1.789-1.846,5.4,5.4,0,0,1-.642-2.65,5.07,5.07,0,0,1,1.455-3.709,4.749,4.749,0,0,1,3.511-1.477,10.086,10.086,0,0,1,3.217.571v1.573a7.52,7.52,0,0,0-3.067-.782,3.4,3.4,0,0,0-1.687.444,2.918,2.918,0,0,0-1.222,1.384,4.6,4.6,0,0,0-.431,1.934,4.389,4.389,0,0,0,.831,2.531,2.944,2.944,0,0,0,2.606,1.2,7.387,7.387,0,0,0,1.055-.075,13.188,13.188,0,0,0,1.916-.549Zm10.705-.369a8.66,8.66,0,0,1-3.709.932,4.357,4.357,0,0,1-2.373-.659,4.7,4.7,0,0,1-1.674-1.885,5.671,5.671,0,0,1-.628-2.624,5.879,5.879,0,0,1,.6-2.584,4.619,4.619,0,0,1,1.67-1.929,4.325,4.325,0,0,1,2.391-.69,3.5,3.5,0,0,1,2.808,1.248,5.858,5.858,0,0,1,1.059,3.85v.352H78.513a4.072,4.072,0,0,0,.426,1.863,3.03,3.03,0,0,0,1.121,1.266,2.986,2.986,0,0,0,1.582.422,7.37,7.37,0,0,0,3.5-1.055Zm-6.53-5.212h4.9V191.9a2.913,2.913,0,0,0-.589-1.916,1.938,1.938,0,0,0-1.573-.712,2.348,2.348,0,0,0-1.718.725A4.126,4.126,0,0,0,78.609,192.138Zm10.679-1.749a5.369,5.369,0,0,1,1.8-1.854,3.817,3.817,0,0,1,1.925-.624,2.961,2.961,0,0,1,2.215,1.063,4.609,4.609,0,0,1,.984,3.226,6.85,6.85,0,0,1-.655,3.045,5.512,5.512,0,0,1-1.745,2.118,4.526,4.526,0,0,1-2.7.778q-.457,0-1.406-.1-.141-.018-.422-.044v3.814H87.653V188.183h1.635Zm0,1.942v4.21a6.6,6.6,0,0,0,1.635.229,3.19,3.19,0,0,0,2.5-1.165,4.684,4.684,0,0,0,1.015-3.186,3.654,3.654,0,0,0-.554-2.206,1.571,1.571,0,0,0-1.257-.738,2.727,2.727,0,0,0-1.683.773A7.5,7.5,0,0,0,89.288,192.331Zm17.5,5.273a9.16,9.16,0,0,1-1.67.576,5.717,5.717,0,0,1-1,.092,4.415,4.415,0,0,1-1.881-.4,2.768,2.768,0,0,1-1.288-1.169,5.052,5.052,0,0,1-.435-2.391v-3.955H98.06V189h2.452v-3.955h1.635V189h4.368v1.362h-4.368v3.929a3.588,3.588,0,0,0,.281,1.674,1.733,1.733,0,0,0,.751.716,2.519,2.519,0,0,0,1.112.229,5.054,5.054,0,0,0,2.5-.747Zm6.627.809a1.44,1.44,0,1,1,1.011-.422A1.379,1.379,0,0,1,113.414,198.413Zm0-7.638a1.44,1.44,0,1,1,1.011-.422A1.379,1.379,0,0,1,113.414,190.775Zm24.021,5.019a5.283,5.283,0,0,1-1.8,1.854,3.839,3.839,0,0,1-1.929.624,2.947,2.947,0,0,1-2.21-1.063,4.623,4.623,0,0,1-.98-3.226,6.889,6.889,0,0,1,.65-3.045,5.477,5.477,0,0,1,1.74-2.118,4.526,4.526,0,0,1,2.7-.778q.466,0,1.406.1.141.018.422.044h1.644v6.935a9.317,9.317,0,0,0,.369,2.883h-1.705A15.3,15.3,0,0,1,137.435,195.794Zm0-1.942v-4.21a6.392,6.392,0,0,0-1.617-.229,3.186,3.186,0,0,0-2.518,1.169,4.714,4.714,0,0,0-1.006,3.182,3.68,3.68,0,0,0,.549,2.2,1.558,1.558,0,0,0,1.252.743,2.743,2.743,0,0,0,1.688-.773A7.33,7.33,0,0,0,137.435,193.852Zm5.862-3.463a5.369,5.369,0,0,1,1.8-1.854,3.817,3.817,0,0,1,1.925-.624,2.961,2.961,0,0,1,2.215,1.063,4.609,4.609,0,0,1,.984,3.226,6.85,6.85,0,0,1-.655,3.045,5.512,5.512,0,0,1-1.745,2.118,4.526,4.526,0,0,1-2.7.778q-.457,0-1.406-.1-.141-.018-.422-.044v3.814h-1.635V188.183H143.3Zm0,1.942v4.21a6.6,6.6,0,0,0,1.635.229,3.19,3.19,0,0,0,2.5-1.165,4.684,4.684,0,0,0,1.015-3.186,3.654,3.654,0,0,0-.554-2.206,1.571,1.571,0,0,0-1.257-.738,2.727,2.727,0,0,0-1.683.773A7.5,7.5,0,0,0,143.3,192.331Zm10.8-1.942a5.369,5.369,0,0,1,1.8-1.854,3.817,3.817,0,0,1,1.925-.624,2.961,2.961,0,0,1,2.215,1.063,4.609,4.609,0,0,1,.984,3.226,6.85,6.85,0,0,1-.655,3.045,5.512,5.512,0,0,1-1.745,2.118,4.526,4.526,0,0,1-2.7.778q-.457,0-1.406-.1-.141-.018-.422-.044v3.814h-1.635V188.183H154.1Zm0,1.942v4.21a6.6,6.6,0,0,0,1.635.229,3.19,3.19,0,0,0,2.5-1.165,4.684,4.684,0,0,0,1.015-3.186,3.654,3.654,0,0,0-.554-2.206,1.571,1.571,0,0,0-1.257-.738,2.727,2.727,0,0,0-1.683.773A7.5,7.5,0,0,0,154.1,192.331ZM166.025,198V185.186H163.09v-1.371h4.57v12.823h3.067V198Zm10.916,0v-8.455h-2.725v-1.362h4.359v8.455h2.733V198Zm-.272-13.359a.951.951,0,0,1,.378-.826,1.078,1.078,0,0,1,1.433,0,1.082,1.082,0,0,1,0,1.644,1.078,1.078,0,0,1-1.433,0A.942.942,0,0,1,176.669,184.641Zm16.585,13.078a9.8,9.8,0,0,1-3.129.554,5.039,5.039,0,0,1-2.624-.681,4.81,4.81,0,0,1-1.789-1.846,5.4,5.4,0,0,1-.642-2.65,5.07,5.07,0,0,1,1.455-3.709,4.749,4.749,0,0,1,3.511-1.477,10.086,10.086,0,0,1,3.217.571v1.573a7.52,7.52,0,0,0-3.067-.782,3.4,3.4,0,0,0-1.687.444,2.918,2.918,0,0,0-1.222,1.384,4.6,4.6,0,0,0-.431,1.934,4.389,4.389,0,0,0,.831,2.531,2.944,2.944,0,0,0,2.606,1.2,7.387,7.387,0,0,0,1.055-.075,13.188,13.188,0,0,0,1.916-.549Zm8.991-1.925a5.283,5.283,0,0,1-1.8,1.854,3.839,3.839,0,0,1-1.929.624,2.947,2.947,0,0,1-2.21-1.063,4.623,4.623,0,0,1-.98-3.226,6.889,6.889,0,0,1,.65-3.045,5.477,5.477,0,0,1,1.74-2.118,4.526,4.526,0,0,1,2.7-.778q.466,0,1.406.1.141.018.422.044h1.644v6.935a9.317,9.317,0,0,0,.369,2.883h-1.705A15.3,15.3,0,0,1,202.245,195.794Zm0-1.942v-4.21a6.392,6.392,0,0,0-1.617-.229,3.186,3.186,0,0,0-2.518,1.169,4.714,4.714,0,0,0-1.006,3.182,3.68,3.68,0,0,0,.549,2.2,1.558,1.558,0,0,0,1.252.743,2.743,2.743,0,0,0,1.688-.773A7.33,7.33,0,0,0,202.245,193.852ZM214.8,197.6a9.16,9.16,0,0,1-1.67.576,5.717,5.717,0,0,1-1,.092,4.415,4.415,0,0,1-1.881-.4,2.768,2.768,0,0,1-1.288-1.169,5.052,5.052,0,0,1-.435-2.391v-3.955h-2.452V189h2.452v-3.955h1.635V189h4.368v1.362h-4.368v3.929a3.588,3.588,0,0,0,.281,1.674,1.733,1.733,0,0,0,.751.716,2.519,2.519,0,0,0,1.112.229,5.054,5.054,0,0,0,2.5-.747Zm5.344.4v-8.455h-2.725v-1.362h4.359v8.455h2.733V198Zm-.272-13.359a.951.951,0,0,1,.378-.826,1.078,1.078,0,0,1,1.433,0,1.082,1.082,0,0,1,0,1.644,1.078,1.078,0,0,1-1.433,0A.942.942,0,0,1,219.876,184.641Zm12.366,13.632a4.228,4.228,0,0,1-3.375-1.472,6.074,6.074,0,0,1,0-7.422,4.6,4.6,0,0,1,6.741,0,6.074,6.074,0,0,1,0,7.422A4.218,4.218,0,0,1,232.242,198.272Zm0-1.362a2.479,2.479,0,0,0,2.083-1.02,5.453,5.453,0,0,0,0-5.6,2.647,2.647,0,0,0-4.175,0,5.453,5.453,0,0,0,0,5.6A2.488,2.488,0,0,0,232.242,196.91ZM239,198v-9.817h1.635v2.145a5.547,5.547,0,0,1,1.7-1.775,3.637,3.637,0,0,1,1.986-.642,2.847,2.847,0,0,1,1.582.461,2.468,2.468,0,0,1,1,1.208,9.736,9.736,0,0,1,.286,2.936V198h-1.635v-5.687a8,8,0,0,0-.136-1.868,1.466,1.466,0,0,0-.5-.743,1.251,1.251,0,0,0-.8-.29,2.991,2.991,0,0,0-1.85.817,6.541,6.541,0,0,0-1.63,2.048V198Zm11.338.413H248.73l8.675-14.458h1.556Zm10.415,3.437V200.32a8.444,8.444,0,0,0,2.312.4,3.08,3.08,0,0,0,1.389-.286,1.968,1.968,0,0,0,.892-.962,6.049,6.049,0,0,0,.321-2.355v-7.576H261.5v-1.362h5.8v8.631a7.217,7.217,0,0,1-.589,3.467,3.574,3.574,0,0,1-1.424,1.393A5.129,5.129,0,0,1,263,202.1,11.273,11.273,0,0,1,260.754,201.85Zm4.641-17.209a.955.955,0,0,1,.374-.826,1.078,1.078,0,0,1,1.433,0,1.091,1.091,0,0,1,0,1.644,1.078,1.078,0,0,1-1.433,0A.946.946,0,0,1,265.395,184.641Zm6.126,12.841V195.75a6.548,6.548,0,0,0,2.083.9,8.343,8.343,0,0,0,1.863.259,3.075,3.075,0,0,0,1.784-.4,1.2,1.2,0,0,0,.545-1,.973.973,0,0,0-.255-.677,3.971,3.971,0,0,0-1.266-.694l-.562-.229-1.134-.448a5.816,5.816,0,0,1-2.3-1.318,2.246,2.246,0,0,1-.483-1.459,2.486,2.486,0,0,1,.936-2,4.724,4.724,0,0,1,3.037-.782,9.58,9.58,0,0,1,2.979.457v1.485a9.027,9.027,0,0,0-3.041-.58,3.057,3.057,0,0,0-1.622.365,1.061,1.061,0,0,0-.584.91.958.958,0,0,0,.51.844,9.19,9.19,0,0,0,1.635.729l1.107.4a5.623,5.623,0,0,1,2.136,1.2,2.274,2.274,0,0,1,.615,1.626,2.615,2.615,0,0,1-.98,2.1,4.846,4.846,0,0,1-3.133.822A10.417,10.417,0,0,1,271.521,197.481Zm14.73.791a4.228,4.228,0,0,1-3.375-1.472,6.074,6.074,0,0,1,0-7.422,4.6,4.6,0,0,1,6.741,0,6.074,6.074,0,0,1,0,7.422A4.218,4.218,0,0,1,286.251,198.272Zm0-1.362a2.479,2.479,0,0,0,2.083-1.02,5.453,5.453,0,0,0,0-5.6,2.647,2.647,0,0,0-4.175,0,5.453,5.453,0,0,0,0,5.6A2.488,2.488,0,0,0,286.251,196.91ZM293.01,198v-9.817h1.635v2.145a5.547,5.547,0,0,1,1.7-1.775,3.637,3.637,0,0,1,1.986-.642,2.847,2.847,0,0,1,1.582.461,2.468,2.468,0,0,1,1,1.208,9.736,9.736,0,0,1,.286,2.936V198h-1.635v-5.687a8,8,0,0,0-.136-1.868,1.466,1.466,0,0,0-.5-.743,1.251,1.251,0,0,0-.8-.29,2.991,2.991,0,0,0-1.85.817,6.541,6.541,0,0,0-1.63,2.048V198Z" transform="translate(623 968)" fill="#fff"/><path d="M20.19,16.638V6.108a12.852,12.852,0,0,1-1.433,1,11.1,11.1,0,0,1-1.907.844V6.478a11.56,11.56,0,0,0,3.34-2.118h1.635V16.638H25.1V18H16.851V16.638ZM24.761,48H16.508V46.5a3.7,3.7,0,0,1,.237-1.244,5.336,5.336,0,0,1,.905-1.49q.668-.826,1.415-1.591L20,41.224q.281-.29,1.23-1.345a9.652,9.652,0,0,0,1.252-1.617,2.322,2.322,0,0,0,.3-1.107,1.547,1.547,0,0,0-.7-1.358,2.745,2.745,0,0,0-1.582-.479,6.234,6.234,0,0,0-1.121.114,8.28,8.28,0,0,0-1.085.268q-.466.154-1.512.628v-1.45A8.7,8.7,0,0,1,19,34.153a10.868,10.868,0,0,1,1.833-.2,5.348,5.348,0,0,1,1.956.347,2.567,2.567,0,0,1,1.327,1.077,2.987,2.987,0,0,1,.435,1.556,3.769,3.769,0,0,1-.558,1.89,13.068,13.068,0,0,1-2.1,2.487l-1,.993-.844.826A10.1,10.1,0,0,0,18.749,44.7a3.569,3.569,0,0,0-.545,1.8h6.557ZM16.473,77.754V76.031a7.987,7.987,0,0,0,3.489,1.02,3.155,3.155,0,0,0,2.237-.822,2.757,2.757,0,0,0,.883-2.114A2.639,2.639,0,0,0,22.111,72a5.169,5.169,0,0,0-3.3-.817h-.905V69.817h1.257a3.389,3.389,0,0,0,2.479-.769,2.376,2.376,0,0,0,.765-1.709,1.892,1.892,0,0,0-.624-1.437,2.722,2.722,0,0,0-1.916-.584,7.14,7.14,0,0,0-3.12.817V64.579a8.809,8.809,0,0,1,3.059-.624,4.709,4.709,0,0,1,3.432.98,3.135,3.135,0,0,1,.945,2.237,3.29,3.29,0,0,1-.5,1.749,4.213,4.213,0,0,1-1.846,1.459,5.009,5.009,0,0,1,1.793.861,3.357,3.357,0,0,1,.918,1.2A3.754,3.754,0,0,1,24.857,74a4.03,4.03,0,0,1-1.419,3.164,5.353,5.353,0,0,1-3.669,1.248,11.439,11.439,0,0,1-1.419-.1A7.425,7.425,0,0,1,16.473,77.754ZM21.412,108v-3.814H15.62v-1.371l5.792-8.455h1.644v8.455h2.522v1.371H23.056V108Zm0-5.186V96.838l-4.052,5.977Zm-4.562,28.093v-6.548h7.638v1.573h-6v3.34h.281A7.279,7.279,0,0,1,23.3,130.5a3.971,3.971,0,0,1,1.591,3.313,4.35,4.35,0,0,1-2.452,4,5.421,5.421,0,0,1-2.487.593,11.866,11.866,0,0,1-3.375-.642v-1.784a8.1,8.1,0,0,0,1.67.664,6.336,6.336,0,0,0,1.705.259,3.352,3.352,0,0,0,1.529-.378,2.72,2.72,0,0,0,1.16-1.1,2.959,2.959,0,0,0,.413-1.481,2.654,2.654,0,0,0-1.129-2.158,6.74,6.74,0,0,0-4.012-.883Zm.914,30.694a5.287,5.287,0,0,1,1.569-1.534,3.773,3.773,0,0,1,2.061-.593,4.161,4.161,0,0,1,2.017.519,3.53,3.53,0,0,1,1.455,1.446,4.47,4.47,0,0,1,.5,2.158,5,5,0,0,1-1.244,3.379,4.119,4.119,0,0,1-3.274,1.437,3.881,3.881,0,0,1-3.573-2,9.872,9.872,0,0,1-1.182-5.084,8.723,8.723,0,0,1,1.5-5.392,4.838,4.838,0,0,1,4.069-1.982,8.98,8.98,0,0,1,2.681.4v1.652a6.423,6.423,0,0,0-2.751-.694A3.134,3.134,0,0,0,18.767,157a8.193,8.193,0,0,0-1,4.254Zm3.208,5.449a2.61,2.61,0,0,0,1.327-.391,2.649,2.649,0,0,0,1.05-1.2,4.109,4.109,0,0,0,.382-1.771,3.156,3.156,0,0,0-.646-2.048,2.231,2.231,0,0,0-1.841-.8,2.561,2.561,0,0,0-2.035.927,3.344,3.344,0,0,0-.8,2.254,3.105,3.105,0,0,0,.778,2.184A2.359,2.359,0,0,0,20.973,167.051ZM18,198v-1.222a7.694,7.694,0,0,1,.325-2.408A9.006,9.006,0,0,1,19.47,192.2q.817-1.2,1.31-1.846l1.424-1.881.51-.659a8.335,8.335,0,0,0,1-1.811H16.64v-1.644H25.3v1.09a2.8,2.8,0,0,1-.259,1.2,20.524,20.524,0,0,1-1.569,2.364q-.316.431-.624.861l-.914,1.283q-.879,1.239-1.3,1.978a6.492,6.492,0,0,0-.637,1.538,8.331,8.331,0,0,0-.215,2.1V198Z" transform="translate(578 968)" fill="#fff" opacity="0.422"/><path d="M39.851,17.991a9.48,9.48,0,0,1-2.646.422,5.341,5.341,0,0,1-5.124-3.388,9.373,9.373,0,0,1-.756-3.845,9.4,9.4,0,0,1,.738-3.806,5.631,5.631,0,0,1,2.083-2.558,5.326,5.326,0,0,1,2.953-.87,7.946,7.946,0,0,1,2.742.571V6.135a5.587,5.587,0,0,0-2.812-.817,2.964,2.964,0,0,0-1.929.721,4.956,4.956,0,0,0-1.406,2.114,8.472,8.472,0,0,0-.532,3.045,8.166,8.166,0,0,0,1.011,4.034,3.392,3.392,0,0,0,3.19,1.819q.281,0,.712-.044V12.612H36.713V11.25h3.138ZM50.24,16.5V18H42.875V4.359H50.1V5.73H44.65v4.632h4.9v1.362h-4.9V16.5ZM56.4,18V5.862H52.314v-1.5h9.958v1.5h-4.1V18Zm8.288-4.843V11.795h6.82v1.362ZM76.37,10.389a5.369,5.369,0,0,1,1.8-1.854A3.817,3.817,0,0,1,80.1,7.91a2.961,2.961,0,0,1,2.215,1.063A4.609,4.609,0,0,1,83.3,12.2a6.85,6.85,0,0,1-.655,3.045A5.512,5.512,0,0,1,80.9,17.363a4.526,4.526,0,0,1-2.7.778q-.457,0-1.406-.1-.141-.018-.422-.044v3.814H74.735V8.183H76.37Zm0,1.942v4.21A6.6,6.6,0,0,0,78,16.77,3.19,3.19,0,0,0,80.5,15.6a4.684,4.684,0,0,0,1.015-3.186,3.654,3.654,0,0,0-.554-2.206,1.571,1.571,0,0,0-1.257-.738,2.727,2.727,0,0,0-1.683.773A7.5,7.5,0,0,0,76.37,12.331ZM89.7,18.272A4.228,4.228,0,0,1,86.328,16.8a5.494,5.494,0,0,1-1.266-3.713,5.477,5.477,0,0,1,1.266-3.709,4.6,4.6,0,0,1,6.741,0,5.477,5.477,0,0,1,1.266,3.709A5.494,5.494,0,0,1,93.069,16.8,4.218,4.218,0,0,1,89.7,18.272Zm0-1.362a2.479,2.479,0,0,0,2.083-1.02,4.54,4.54,0,0,0,.773-2.8,4.524,4.524,0,0,0-.773-2.795,2.647,2.647,0,0,0-4.175,0,4.524,4.524,0,0,0-.773,2.795,4.54,4.54,0,0,0,.773,2.8A2.488,2.488,0,0,0,89.7,16.91Zm6.873.571V15.75a6.548,6.548,0,0,0,2.083.9,8.343,8.343,0,0,0,1.863.259,3.075,3.075,0,0,0,1.784-.4,1.2,1.2,0,0,0,.545-1,.973.973,0,0,0-.255-.677,3.971,3.971,0,0,0-1.266-.694l-.562-.229-1.134-.448a5.816,5.816,0,0,1-2.3-1.318,2.246,2.246,0,0,1-.483-1.459,2.486,2.486,0,0,1,.936-2,4.724,4.724,0,0,1,3.037-.782,9.58,9.58,0,0,1,2.979.457V9.853a9.027,9.027,0,0,0-3.041-.58,3.057,3.057,0,0,0-1.622.365,1.061,1.061,0,0,0-.584.91.958.958,0,0,0,.51.844,9.19,9.19,0,0,0,1.635.729l1.107.4a5.623,5.623,0,0,1,2.136,1.2,2.274,2.274,0,0,1,.615,1.626,2.615,2.615,0,0,1-.98,2.1,4.846,4.846,0,0,1-3.133.822A10.417,10.417,0,0,1,96.576,17.481Zm18.9.123a9.16,9.16,0,0,1-1.67.576,5.717,5.717,0,0,1-1,.092,4.415,4.415,0,0,1-1.881-.4,2.768,2.768,0,0,1-1.288-1.169,5.052,5.052,0,0,1-.435-2.391V10.362h-2.452V9H109.2V5.045h1.635V9H115.2v1.362h-4.368v3.929a3.588,3.588,0,0,0,.281,1.674,1.733,1.733,0,0,0,.751.716,2.519,2.519,0,0,0,1.112.229,5.054,5.054,0,0,0,2.5-.747Zm2.707-.123V15.75a6.548,6.548,0,0,0,2.083.9,8.343,8.343,0,0,0,1.863.259,3.075,3.075,0,0,0,1.784-.4,1.2,1.2,0,0,0,.545-1,.973.973,0,0,0-.255-.677,3.971,3.971,0,0,0-1.266-.694l-.562-.229-1.134-.448a5.816,5.816,0,0,1-2.3-1.318,2.246,2.246,0,0,1-.483-1.459,2.486,2.486,0,0,1,.936-2,4.724,4.724,0,0,1,3.037-.782,9.58,9.58,0,0,1,2.979.457V9.853a9.027,9.027,0,0,0-3.041-.58,3.057,3.057,0,0,0-1.622.365,1.061,1.061,0,0,0-.584.91.958.958,0,0,0,.51.844,9.19,9.19,0,0,0,1.635.729l1.107.4a5.623,5.623,0,0,1,2.136,1.2,2.274,2.274,0,0,1,.615,1.626,2.615,2.615,0,0,1-.98,2.1,4.846,4.846,0,0,1-3.133.822A10.417,10.417,0,0,1,118.179,17.481Zm14.722.932a1.44,1.44,0,1,1,1.011-.422A1.379,1.379,0,0,1,132.9,18.413Zm10.38-.809-4.535-9.422h1.8l3.612,7.365,3.023-7.365h1.644l-3.806,9.123a10.9,10.9,0,0,1-2.29,3.841,4.11,4.11,0,0,1-2.808.949,6.141,6.141,0,0,1-1.336-.132V20.522a4.341,4.341,0,0,0,1.292.211,3.1,3.1,0,0,0,1.406-.308,2.994,2.994,0,0,0,1.125-1.09,7.082,7.082,0,0,0,.721-1.354Zm6.451.4V8.183h1.433v2.25a6.738,6.738,0,0,1,1.261-1.978,1.745,1.745,0,0,1,1.182-.545,1.384,1.384,0,0,1,1.147.558,2.531,2.531,0,0,1,.435,1.586v.527a5.137,5.137,0,0,1,.7-1.455,4.193,4.193,0,0,1,.848-.888,1.639,1.639,0,0,1,1.011-.33,1.364,1.364,0,0,1,1.081.536,3.542,3.542,0,0,1,.448,2.136V18h-1.433V11.294a7.866,7.866,0,0,0-.053-1.129.838.838,0,0,0-.211-.461.479.479,0,0,0-.343-.158q-.457,0-.98.7a8.723,8.723,0,0,0-1.068,2.316V18h-1.371V11.3q0-1.3-.255-1.529a.73.73,0,0,0-.457-.229q-.448,0-.962.782a10.477,10.477,0,0,0-.98,2V18Zm14.177,0V5.186h-2.936V3.814h4.57V16.638h3.067V18Z" transform="translate(883 913)" fill="#fff"/></g></svg>