<svg xmlns="http://www.w3.org/2000/svg" width="738" height="250" viewBox="0 0 738 250"><g transform="translate(-720 -1896)"><path d="M8,0H730a8,8,0,0,1,8,8V242a8,8,0,0,1-8,8H8a8,8,0,0,1-8-8V8A8,8,0,0,1,8,0Z" transform="translate(720 1896)" fill="#262626"/><path d="M5.1,19.362v-1.38q-.589,0-1.222-.062a9.311,9.311,0,0,1-1.187-.189,6.979,6.979,0,0,1-1.274-.453V15.592a10.921,10.921,0,0,0,1.138.51,7.4,7.4,0,0,0,1.178.334,11.031,11.031,0,0,0,1.367.176v-4.9l-.94-.51Q1.485,9.773,1.485,7.743a3.2,3.2,0,0,1,.888-2.1A3.882,3.882,0,0,1,5.1,4.456V3h1.23V4.456a10.148,10.148,0,0,1,2.452.36V6.337l-.308-.088A13.168,13.168,0,0,0,6.328,5.8v4.781l.984.563a5.635,5.635,0,0,1,1.9,1.573,2.918,2.918,0,0,1,.514,1.644,3.185,3.185,0,0,1-.391,1.516,3.7,3.7,0,0,1-1.121,1.261,4.51,4.51,0,0,1-1.89.729v1.494Zm0-9.519V5.783a2.813,2.813,0,0,0-1.367.668,1.473,1.473,0,0,0-.479,1.09A1.847,1.847,0,0,0,3.661,8.67,5.3,5.3,0,0,0,5.1,9.844Zm1.23,2.6v4.043a2.569,2.569,0,0,0,1.3-.839,1.93,1.93,0,0,0,.338-1.112,1.61,1.61,0,0,0-.334-1.024A5.847,5.847,0,0,0,6.328,12.445ZM23.08,17.481V15.75a6.548,6.548,0,0,0,2.083.9,8.343,8.343,0,0,0,1.863.259,3.075,3.075,0,0,0,1.784-.4,1.2,1.2,0,0,0,.545-1,.973.973,0,0,0-.255-.677,3.971,3.971,0,0,0-1.266-.694l-.562-.229-1.134-.448a5.816,5.816,0,0,1-2.3-1.318,2.246,2.246,0,0,1-.483-1.459,2.486,2.486,0,0,1,.936-2,4.724,4.724,0,0,1,3.037-.782,9.58,9.58,0,0,1,2.979.457V9.853a9.027,9.027,0,0,0-3.041-.58,3.057,3.057,0,0,0-1.622.365,1.061,1.061,0,0,0-.584.91.958.958,0,0,0,.51.844,9.19,9.19,0,0,0,1.635.729l1.107.4a5.623,5.623,0,0,1,2.136,1.2,2.274,2.274,0,0,1,.615,1.626,2.615,2.615,0,0,1-.98,2.1,4.846,4.846,0,0,1-3.133.822A10.417,10.417,0,0,1,23.08,17.481Zm18.853-.132a8.66,8.66,0,0,1-3.709.932,4.357,4.357,0,0,1-2.373-.659,4.7,4.7,0,0,1-1.674-1.885,5.671,5.671,0,0,1-.628-2.624,5.879,5.879,0,0,1,.6-2.584A4.619,4.619,0,0,1,35.815,8.6a4.325,4.325,0,0,1,2.391-.69,3.5,3.5,0,0,1,2.808,1.248,5.858,5.858,0,0,1,1.059,3.85v.352H35.306a4.072,4.072,0,0,0,.426,1.863,3.03,3.03,0,0,0,1.121,1.266,2.986,2.986,0,0,0,1.582.422,7.37,7.37,0,0,0,3.5-1.055ZM35.4,12.138h4.9V11.9a2.913,2.913,0,0,0-.589-1.916,1.938,1.938,0,0,0-1.573-.712A2.348,2.348,0,0,0,36.417,10,4.126,4.126,0,0,0,35.4,12.138ZM44.569,18V8.183H46.2v2.145a5.547,5.547,0,0,1,1.7-1.775,3.637,3.637,0,0,1,1.986-.642,2.847,2.847,0,0,1,1.582.461,2.468,2.468,0,0,1,1,1.208,9.736,9.736,0,0,1,.286,2.936V18H51.117V12.313a8,8,0,0,0-.136-1.868,1.466,1.466,0,0,0-.5-.743,1.251,1.251,0,0,0-.8-.29,2.991,2.991,0,0,0-1.85.817,6.541,6.541,0,0,0-1.63,2.048V18Zm17.358-2.206a5.283,5.283,0,0,1-1.8,1.854,3.839,3.839,0,0,1-1.929.624,2.947,2.947,0,0,1-2.21-1.063,4.623,4.623,0,0,1-.98-3.226,6.889,6.889,0,0,1,.65-3.045A5.477,5.477,0,0,1,57.4,8.82a4.526,4.526,0,0,1,2.7-.778q.466,0,1.406.1.141.018.422.044V3.814h1.644V18H61.928Zm0-1.942V9.642a6.392,6.392,0,0,0-1.617-.229,3.186,3.186,0,0,0-2.518,1.169,4.714,4.714,0,0,0-1.006,3.182,3.68,3.68,0,0,0,.549,2.2,1.558,1.558,0,0,0,1.252.743,2.743,2.743,0,0,0,1.688-.773A7.33,7.33,0,0,0,61.928,13.852Zm12.41,3.5a8.66,8.66,0,0,1-3.709.932,4.357,4.357,0,0,1-2.373-.659,4.7,4.7,0,0,1-1.674-1.885,5.671,5.671,0,0,1-.628-2.624,5.879,5.879,0,0,1,.6-2.584A4.619,4.619,0,0,1,68.221,8.6a4.325,4.325,0,0,1,2.391-.69,3.5,3.5,0,0,1,2.808,1.248,5.858,5.858,0,0,1,1.059,3.85v.352H67.711a4.072,4.072,0,0,0,.426,1.863,3.03,3.03,0,0,0,1.121,1.266,2.986,2.986,0,0,0,1.582.422,7.37,7.37,0,0,0,3.5-1.055Zm-6.53-5.212h4.9V11.9a2.913,2.913,0,0,0-.589-1.916,1.938,1.938,0,0,0-1.573-.712A2.348,2.348,0,0,0,68.823,10,4.126,4.126,0,0,0,67.808,12.138ZM77.994,18H76.1l3.858-5.142-3.6-4.676h2.092l2.558,3.3,2.487-3.3h1.854L81.94,12.7,85.992,18h-2.1L80.9,14.089Zm21.419,0V8.183h1.635v2.145A5.494,5.494,0,0,1,102.8,8.512a4.15,4.15,0,0,1,2.2-.6,6.023,6.023,0,0,1,1.775.272v3.542h-1.573V9.483a4.12,4.12,0,0,0-.65-.07,2.814,2.814,0,0,0-1.793.721,7.881,7.881,0,0,0-1.714,2.162V18Zm18.044-9.817V18h-1.635V15.847a5.888,5.888,0,0,1-1.758,1.819,3.614,3.614,0,0,1-1.934.606,2.854,2.854,0,0,1-1.578-.461,2.435,2.435,0,0,1-1-1.213,9.886,9.886,0,0,1-.281-2.931V8.183h1.635v5.687a8,8,0,0,0,.136,1.868,1.466,1.466,0,0,0,.5.743,1.24,1.24,0,0,0,.787.29,3,3,0,0,0,1.85-.813,6.566,6.566,0,0,0,1.639-2.052V8.183ZM120.182,18V8.183h1.635v2.145a5.547,5.547,0,0,1,1.7-1.775A3.637,3.637,0,0,1,125.5,7.91a2.847,2.847,0,0,1,1.582.461,2.468,2.468,0,0,1,1,1.208,9.736,9.736,0,0,1,.286,2.936V18h-1.635V12.313a8,8,0,0,0-.136-1.868,1.466,1.466,0,0,0-.5-.743,1.251,1.251,0,0,0-.8-.29,2.991,2.991,0,0,0-1.85.817,6.541,6.541,0,0,0-1.63,2.048V18Zm28.16-2.206a5.283,5.283,0,0,1-1.8,1.854,3.839,3.839,0,0,1-1.929.624,2.947,2.947,0,0,1-2.21-1.063,4.623,4.623,0,0,1-.98-3.226,6.889,6.889,0,0,1,.65-3.045,5.477,5.477,0,0,1,1.74-2.118,4.526,4.526,0,0,1,2.7-.778q.466,0,1.406.1.141.018.422.044h1.644v6.943q0,2.479-.066,3.028a8.078,8.078,0,0,1-.215,1.112,3.383,3.383,0,0,1-1.6,2.065,5.755,5.755,0,0,1-3.028.756,8.03,8.03,0,0,1-3.612-.914V19.521a7.556,7.556,0,0,0,1.709.839,5.8,5.8,0,0,0,1.964.365,4.2,4.2,0,0,0,1.415-.237,2.639,2.639,0,0,0,1.081-.686,2.366,2.366,0,0,0,.563-1.042,6.693,6.693,0,0,0,.149-1.578Zm0-1.942V9.642a6.392,6.392,0,0,0-1.617-.229,3.186,3.186,0,0,0-2.518,1.169,4.714,4.714,0,0,0-1.006,3.182,3.68,3.68,0,0,0,.549,2.2,1.558,1.558,0,0,0,1.252.743,2.743,2.743,0,0,0,1.688-.773A7.33,7.33,0,0,0,148.342,13.852Zm12.41,3.5a8.66,8.66,0,0,1-3.709.932,4.357,4.357,0,0,1-2.373-.659A4.7,4.7,0,0,1,153,15.737a5.671,5.671,0,0,1-.628-2.624,5.879,5.879,0,0,1,.6-2.584,4.619,4.619,0,0,1,1.67-1.929,4.325,4.325,0,0,1,2.391-.69,3.5,3.5,0,0,1,2.808,1.248,5.858,5.858,0,0,1,1.059,3.85v.352h-6.768a4.072,4.072,0,0,0,.426,1.863,3.03,3.03,0,0,0,1.121,1.266,2.986,2.986,0,0,0,1.582.422,7.37,7.37,0,0,0,3.5-1.055Zm-6.53-5.212h4.9V11.9a2.913,2.913,0,0,0-.589-1.916,1.938,1.938,0,0,0-1.573-.712,2.348,2.348,0,0,0-1.718.725A4.126,4.126,0,0,0,154.222,12.138ZM171.6,17.6a9.16,9.16,0,0,1-1.67.576,5.717,5.717,0,0,1-1,.092,4.415,4.415,0,0,1-1.881-.4,2.768,2.768,0,0,1-1.288-1.169,5.052,5.052,0,0,1-.435-2.391V10.362H162.87V9h2.452V5.045h1.635V9h4.368v1.362h-4.368v3.929a3.588,3.588,0,0,0,.281,1.674,1.733,1.733,0,0,0,.751.716,2.519,2.519,0,0,0,1.112.229,5.054,5.054,0,0,0,2.5-.747ZM186.5,10.389a5.369,5.369,0,0,1,1.8-1.854,3.817,3.817,0,0,1,1.925-.624,2.961,2.961,0,0,1,2.215,1.063,4.609,4.609,0,0,1,.984,3.226,6.85,6.85,0,0,1-.655,3.045,5.512,5.512,0,0,1-1.745,2.118,4.526,4.526,0,0,1-2.7.778q-.457,0-1.406-.1-.141-.018-.422-.044v3.814h-1.635V8.183H186.5Zm0,1.942v4.21a6.6,6.6,0,0,0,1.635.229,3.19,3.19,0,0,0,2.5-1.165,4.684,4.684,0,0,0,1.015-3.186,3.654,3.654,0,0,0-.554-2.206,1.571,1.571,0,0,0-1.257-.738,2.727,2.727,0,0,0-1.683.773A7.5,7.5,0,0,0,186.5,12.331Zm13.333,5.941a4.228,4.228,0,0,1-3.375-1.472,5.494,5.494,0,0,1-1.266-3.713,5.477,5.477,0,0,1,1.266-3.709,4.6,4.6,0,0,1,6.741,0,5.477,5.477,0,0,1,1.266,3.709A5.494,5.494,0,0,1,203.2,16.8,4.218,4.218,0,0,1,199.837,18.272Zm0-1.362a2.479,2.479,0,0,0,2.083-1.02,4.54,4.54,0,0,0,.773-2.8,4.524,4.524,0,0,0-.773-2.795,2.647,2.647,0,0,0-4.175,0,4.524,4.524,0,0,0-.773,2.795,4.54,4.54,0,0,0,.773,2.8A2.488,2.488,0,0,0,199.837,16.91Zm6.873.571V15.75a6.548,6.548,0,0,0,2.083.9,8.343,8.343,0,0,0,1.863.259,3.075,3.075,0,0,0,1.784-.4,1.2,1.2,0,0,0,.545-1,.973.973,0,0,0-.255-.677,3.971,3.971,0,0,0-1.266-.694l-.562-.229-1.134-.448a5.816,5.816,0,0,1-2.3-1.318,2.246,2.246,0,0,1-.483-1.459,2.486,2.486,0,0,1,.936-2,4.724,4.724,0,0,1,3.037-.782,9.58,9.58,0,0,1,2.979.457V9.853a9.027,9.027,0,0,0-3.041-.58,3.057,3.057,0,0,0-1.622.365,1.061,1.061,0,0,0-.584.91.958.958,0,0,0,.51.844,9.19,9.19,0,0,0,1.635.729l1.107.4a5.623,5.623,0,0,1,2.136,1.2,2.274,2.274,0,0,1,.615,1.626,2.615,2.615,0,0,1-.98,2.1,4.846,4.846,0,0,1-3.133.822A10.417,10.417,0,0,1,206.71,17.481Zm18.9.123a9.16,9.16,0,0,1-1.67.576,5.717,5.717,0,0,1-1,.092,4.415,4.415,0,0,1-1.881-.4,2.768,2.768,0,0,1-1.288-1.169,5.052,5.052,0,0,1-.435-2.391V10.362h-2.452V9h2.452V5.045h1.635V9h4.368v1.362h-4.368v3.929a3.588,3.588,0,0,0,.281,1.674,1.733,1.733,0,0,0,.751.716,2.519,2.519,0,0,0,1.112.229,5.054,5.054,0,0,0,2.5-.747Zm2.707-.123V15.75a6.548,6.548,0,0,0,2.083.9,8.343,8.343,0,0,0,1.863.259,3.075,3.075,0,0,0,1.784-.4,1.2,1.2,0,0,0,.545-1,.973.973,0,0,0-.255-.677,3.971,3.971,0,0,0-1.266-.694l-.562-.229-1.134-.448a5.816,5.816,0,0,1-2.3-1.318,2.246,2.246,0,0,1-.483-1.459,2.486,2.486,0,0,1,.936-2,4.724,4.724,0,0,1,3.037-.782,9.58,9.58,0,0,1,2.979.457V9.853a9.027,9.027,0,0,0-3.041-.58,3.057,3.057,0,0,0-1.622.365,1.061,1.061,0,0,0-.584.91.958.958,0,0,0,.51.844,9.19,9.19,0,0,0,1.635.729l1.107.4a5.623,5.623,0,0,1,2.136,1.2,2.274,2.274,0,0,1,.615,1.626,2.615,2.615,0,0,1-.98,2.1,4.846,4.846,0,0,1-3.133.822A10.417,10.417,0,0,1,228.313,17.481Zm11.224.932h-1.608L246.6,3.955h1.556Zm13.9-1.775V6.108a12.852,12.852,0,0,1-1.433,1,11.1,11.1,0,0,1-1.907.844V6.478a11.56,11.56,0,0,0,3.34-2.118h1.635V16.638h3.278V18h-8.253V16.638Z" transform="translate(742 1955)" fill="#fff"/><path d="M8,0A8,8,0,1,1,0,8,8,8,0,0,1,8,0Z" transform="translate(742 1913)" fill="#ff4f3c"/><path d="M8,0A8,8,0,1,1,0,8,8,8,0,0,1,8,0Z" transform="translate(768 1913)" fill="#efbb00"/><path d="M8,0A8,8,0,1,1,0,8,8,8,0,0,1,8,0Z" transform="translate(794 1913)" fill="#00c800"/><path d="M1.38,17.71V16.04a9.054,9.054,0,0,0,3.832,1,3.528,3.528,0,0,0,1.38-.277,2.138,2.138,0,0,0,1-.8,2.019,2.019,0,0,0,.338-1.125,2.174,2.174,0,0,0-.466-1.332,6.006,6.006,0,0,0-1.749-1.367l-.9-.519-.905-.519A4.093,4.093,0,0,1,1.521,7.594,3.488,3.488,0,0,1,2.588,5.005a4.6,4.6,0,0,1,3.335-1.05,9.482,9.482,0,0,1,2.821.422V5.9a8.1,8.1,0,0,0-2.927-.58,2.721,2.721,0,0,0-1.833.6,1.834,1.834,0,0,0-.7,1.441,1.916,1.916,0,0,0,.536,1.389,5.88,5.88,0,0,0,1.371,1.02l.686.413.853.519.721.422a4,4,0,0,1,2.241,3.445,3.677,3.677,0,0,1-1.151,2.716,5.108,5.108,0,0,1-3.691,1.134,8.441,8.441,0,0,1-1.542-.136A13.058,13.058,0,0,1,1.38,17.71ZM20.373,17.6a9.16,9.16,0,0,1-1.67.576,5.717,5.717,0,0,1-1,.092,4.415,4.415,0,0,1-1.881-.4,2.768,2.768,0,0,1-1.288-1.169,5.052,5.052,0,0,1-.435-2.391V10.362H11.646V9H14.1V5.045h1.635V9H20.1v1.362H15.732v3.929a3.588,3.588,0,0,0,.281,1.674,1.733,1.733,0,0,0,.751.716,2.519,2.519,0,0,0,1.112.229,5.054,5.054,0,0,0,2.5-.747Zm9.044-1.811a5.283,5.283,0,0,1-1.8,1.854,3.839,3.839,0,0,1-1.929.624,2.947,2.947,0,0,1-2.21-1.063,4.623,4.623,0,0,1-.98-3.226,6.889,6.889,0,0,1,.65-3.045,5.477,5.477,0,0,1,1.74-2.118,4.526,4.526,0,0,1,2.7-.778q.466,0,1.406.1.141.018.422.044h1.644v6.935A9.317,9.317,0,0,0,31.43,18H29.725A15.3,15.3,0,0,1,29.417,15.794Zm0-1.942V9.642A6.392,6.392,0,0,0,27.8,9.413a3.186,3.186,0,0,0-2.518,1.169,4.714,4.714,0,0,0-1.006,3.182,3.68,3.68,0,0,0,.549,2.2,1.558,1.558,0,0,0,1.252.743,2.743,2.743,0,0,0,1.688-.773A7.33,7.33,0,0,0,29.417,13.852ZM41.977,17.6a9.16,9.16,0,0,1-1.67.576,5.717,5.717,0,0,1-1,.092,4.415,4.415,0,0,1-1.881-.4,2.768,2.768,0,0,1-1.288-1.169,5.052,5.052,0,0,1-.435-2.391V10.362H33.249V9H35.7V5.045h1.635V9H41.7v1.362H37.336v3.929a3.588,3.588,0,0,0,.281,1.674,1.733,1.733,0,0,0,.751.716,2.519,2.519,0,0,0,1.112.229,5.054,5.054,0,0,0,2.5-.747Zm10.67-9.422V18H51.012V15.847a5.888,5.888,0,0,1-1.758,1.819,3.614,3.614,0,0,1-1.934.606,2.854,2.854,0,0,1-1.578-.461,2.435,2.435,0,0,1-1-1.213,9.886,9.886,0,0,1-.281-2.931V8.183H46.1v5.687a8,8,0,0,0,.136,1.868,1.466,1.466,0,0,0,.5.743,1.24,1.24,0,0,0,.787.29,3,3,0,0,0,1.85-.813A6.566,6.566,0,0,0,51.012,13.9V8.183Zm2.839,9.3V15.75a6.548,6.548,0,0,0,2.083.9,8.343,8.343,0,0,0,1.863.259,3.075,3.075,0,0,0,1.784-.4,1.2,1.2,0,0,0,.545-1,.973.973,0,0,0-.255-.677,3.971,3.971,0,0,0-1.266-.694l-.562-.229-1.134-.448a5.816,5.816,0,0,1-2.3-1.318,2.246,2.246,0,0,1-.483-1.459,2.486,2.486,0,0,1,.936-2A4.724,4.724,0,0,1,59.73,7.91a9.58,9.58,0,0,1,2.979.457V9.853a9.027,9.027,0,0,0-3.041-.58,3.057,3.057,0,0,0-1.622.365,1.061,1.061,0,0,0-.584.91.958.958,0,0,0,.51.844,9.19,9.19,0,0,0,1.635.729l1.107.4a5.623,5.623,0,0,1,2.136,1.2,2.274,2.274,0,0,1,.615,1.626,2.615,2.615,0,0,1-.98,2.1,4.846,4.846,0,0,1-3.133.822A10.417,10.417,0,0,1,55.485,17.481Zm14.722.932a1.44,1.44,0,1,1,1.011-.422A1.379,1.379,0,0,1,70.207,18.413Zm0-7.638A1.429,1.429,0,0,1,69.2,8.328a1.422,1.422,0,0,1,2.013,0,1.433,1.433,0,0,1-1.006,2.448ZM95.977,18H87.724V16.5a3.7,3.7,0,0,1,.237-1.244,5.336,5.336,0,0,1,.905-1.49q.668-.826,1.415-1.591l.932-.949q.281-.29,1.23-1.345A9.652,9.652,0,0,0,93.7,8.262,2.322,2.322,0,0,0,94,7.154,1.547,1.547,0,0,0,93.3,5.8a2.745,2.745,0,0,0-1.582-.479,6.234,6.234,0,0,0-1.121.114,8.28,8.28,0,0,0-1.085.268q-.466.154-1.512.628V4.878a8.7,8.7,0,0,1,2.219-.725,10.868,10.868,0,0,1,1.833-.2A5.348,5.348,0,0,1,94,4.3a2.567,2.567,0,0,1,1.327,1.077,2.987,2.987,0,0,1,.435,1.556,3.769,3.769,0,0,1-.558,1.89,13.068,13.068,0,0,1-2.1,2.487l-1,.993-.844.826A10.1,10.1,0,0,0,89.965,14.7a3.569,3.569,0,0,0-.545,1.8h6.557Zm6.636-14.045a3.937,3.937,0,0,1,3.551,1.956,9.872,9.872,0,0,1,1.222,5.269,9.891,9.891,0,0,1-1.222,5.278,4.2,4.2,0,0,1-7.1,0A9.862,9.862,0,0,1,97.84,11.18a9.843,9.843,0,0,1,1.226-5.269A3.94,3.94,0,0,1,102.612,3.955ZM99.949,14.1l4.72-7.392a2.665,2.665,0,0,0-.971-1.1,2.235,2.235,0,0,0-1.085-.286,2.414,2.414,0,0,0-2.232,1.63,9.752,9.752,0,0,0-.765,4.135q0,.571.035,1.23A10.835,10.835,0,0,0,99.949,14.1Zm5.309-5.766-4.685,7.436a2.833,2.833,0,0,0,.87.962,1.969,1.969,0,0,0,1.1.321,2.458,2.458,0,0,0,2.373-1.868,11.681,11.681,0,0,0,.7-4.144A10.093,10.093,0,0,0,105.258,8.332Zm8.156-4.377a3.937,3.937,0,0,1,3.551,1.956,9.872,9.872,0,0,1,1.222,5.269,9.891,9.891,0,0,1-1.222,5.278,4.2,4.2,0,0,1-7.1,0,9.862,9.862,0,0,1-1.226-5.278,9.843,9.843,0,0,1,1.226-5.269A3.94,3.94,0,0,1,113.414,3.955ZM110.751,14.1l4.72-7.392a2.665,2.665,0,0,0-.971-1.1,2.235,2.235,0,0,0-1.085-.286,2.414,2.414,0,0,0-2.232,1.63,9.752,9.752,0,0,0-.765,4.135q0,.571.035,1.23A10.835,10.835,0,0,0,110.751,14.1Zm5.309-5.766-4.685,7.436a2.833,2.833,0,0,0,.87.962,1.969,1.969,0,0,0,1.1.321,2.458,2.458,0,0,0,2.373-1.868,11.681,11.681,0,0,0,.7-4.144A10.093,10.093,0,0,0,116.06,8.332Zm18.958,10.081a3.94,3.94,0,0,1-3.546-1.956,9.862,9.862,0,0,1-1.226-5.278,9.843,9.843,0,0,1,1.226-5.269,4.2,4.2,0,0,1,7.1,0,9.872,9.872,0,0,1,1.222,5.269,9.891,9.891,0,0,1-1.222,5.278A3.937,3.937,0,0,1,135.018,18.413Zm0-1.371a2.485,2.485,0,0,0,2.14-1.455,8.9,8.9,0,0,0,.857-4.408,8.9,8.9,0,0,0-.857-4.408,2.3,2.3,0,0,0-4.28,0,8.9,8.9,0,0,0-.857,4.408,8.9,8.9,0,0,0,.857,4.408A2.485,2.485,0,0,0,135.018,17.042ZM141.8,18V4.359h1.775v6.688l5.071-6.688h1.881l-4.9,6.478L151.216,18h-2.224l-5.414-6.952V18ZM3.085,48.208V54H1.31V40.359H4.957a7.041,7.041,0,0,1,2.628.365,2.81,2.81,0,0,1,1.305,1.1,2.947,2.947,0,0,1,.461,1.591,4.406,4.406,0,0,1-.308,1.591A4.83,4.83,0,0,1,8.2,46.437a5.616,5.616,0,0,1-1.56,1.191L10.582,54H8.473L4.86,48.208Zm0-1.371H5.572a4.461,4.461,0,0,0,1.244-.932,3.524,3.524,0,0,0,.62-1.011,2.91,2.91,0,0,0,.211-1.072,1.862,1.862,0,0,0-.7-1.525,4.167,4.167,0,0,0-2.536-.567H3.085ZM20.329,53.35a8.66,8.66,0,0,1-3.709.932,4.357,4.357,0,0,1-2.373-.659,4.7,4.7,0,0,1-1.674-1.885,5.671,5.671,0,0,1-.628-2.624,5.879,5.879,0,0,1,.6-2.584,4.619,4.619,0,0,1,1.67-1.929,4.325,4.325,0,0,1,2.391-.69,3.5,3.5,0,0,1,2.808,1.248,5.858,5.858,0,0,1,1.059,3.85v.352H13.7a4.072,4.072,0,0,0,.426,1.863,3.03,3.03,0,0,0,1.121,1.266,2.986,2.986,0,0,0,1.582.422,7.37,7.37,0,0,0,3.5-1.055ZM13.8,48.138h4.9V47.9a2.913,2.913,0,0,0-.589-1.916,1.938,1.938,0,0,0-1.573-.712A2.348,2.348,0,0,0,14.814,46,4.126,4.126,0,0,0,13.8,48.138Zm9.281,5.344V51.75a6.548,6.548,0,0,0,2.083.9,8.343,8.343,0,0,0,1.863.259,3.075,3.075,0,0,0,1.784-.4,1.2,1.2,0,0,0,.545-1,.973.973,0,0,0-.255-.677,3.971,3.971,0,0,0-1.266-.694l-.562-.229-1.134-.448a5.816,5.816,0,0,1-2.3-1.318,2.246,2.246,0,0,1-.483-1.459,2.486,2.486,0,0,1,.936-2,4.724,4.724,0,0,1,3.037-.782,9.58,9.58,0,0,1,2.979.457v1.485a9.027,9.027,0,0,0-3.041-.58,3.057,3.057,0,0,0-1.622.365,1.061,1.061,0,0,0-.584.91.958.958,0,0,0,.51.844,9.19,9.19,0,0,0,1.635.729l1.107.4a5.623,5.623,0,0,1,2.136,1.2,2.274,2.274,0,0,1,.615,1.626,2.615,2.615,0,0,1-.98,2.1,4.846,4.846,0,0,1-3.133.822A10.417,10.417,0,0,1,23.08,53.481Zm12.2-7.093a5.369,5.369,0,0,1,1.8-1.854,3.817,3.817,0,0,1,1.925-.624,2.961,2.961,0,0,1,2.215,1.063,4.609,4.609,0,0,1,.984,3.226,6.85,6.85,0,0,1-.655,3.045,5.512,5.512,0,0,1-1.745,2.118,4.526,4.526,0,0,1-2.7.778q-.457,0-1.406-.1-.141-.018-.422-.044v3.814H33.645V44.183h1.635Zm0,1.942v4.21a6.6,6.6,0,0,0,1.635.229,3.19,3.19,0,0,0,2.5-1.165,4.684,4.684,0,0,0,1.015-3.186,3.654,3.654,0,0,0-.554-2.206,1.571,1.571,0,0,0-1.257-.738,2.727,2.727,0,0,0-1.683.773A7.5,7.5,0,0,0,35.279,48.331Zm13.333,5.941A4.228,4.228,0,0,1,45.237,52.8a6.074,6.074,0,0,1,0-7.422,4.6,4.6,0,0,1,6.741,0,6.074,6.074,0,0,1,0,7.422A4.218,4.218,0,0,1,48.612,54.272Zm0-1.362a2.479,2.479,0,0,0,2.083-1.02,4.54,4.54,0,0,0,.773-2.8,4.524,4.524,0,0,0-.773-2.795,2.647,2.647,0,0,0-4.175,0,4.524,4.524,0,0,0-.773,2.795,4.54,4.54,0,0,0,.773,2.8A2.488,2.488,0,0,0,48.612,52.91ZM55.371,54V44.183h1.635v2.145a5.547,5.547,0,0,1,1.7-1.775,3.637,3.637,0,0,1,1.986-.642,2.847,2.847,0,0,1,1.582.461,2.468,2.468,0,0,1,1,1.208,9.736,9.736,0,0,1,.286,2.936V54H61.919V48.313a8,8,0,0,0-.136-1.868,1.466,1.466,0,0,0-.5-.743,1.251,1.251,0,0,0-.8-.29,2.991,2.991,0,0,0-1.85.817,6.541,6.541,0,0,0-1.63,2.048V54Zm10.916-.519V51.75a6.548,6.548,0,0,0,2.083.9,8.343,8.343,0,0,0,1.863.259,3.075,3.075,0,0,0,1.784-.4,1.2,1.2,0,0,0,.545-1,.973.973,0,0,0-.255-.677,3.971,3.971,0,0,0-1.266-.694l-.562-.229-1.134-.448a5.816,5.816,0,0,1-2.3-1.318,2.246,2.246,0,0,1-.483-1.459,2.486,2.486,0,0,1,.936-2,4.724,4.724,0,0,1,3.037-.782,9.58,9.58,0,0,1,2.979.457v1.485a9.027,9.027,0,0,0-3.041-.58,3.057,3.057,0,0,0-1.622.365,1.061,1.061,0,0,0-.584.91.958.958,0,0,0,.51.844,9.19,9.19,0,0,0,1.635.729l1.107.4a5.623,5.623,0,0,1,2.136,1.2,2.274,2.274,0,0,1,.615,1.626,2.615,2.615,0,0,1-.98,2.1,4.846,4.846,0,0,1-3.133.822A10.417,10.417,0,0,1,66.287,53.481ZM85.14,53.35a8.66,8.66,0,0,1-3.709.932,4.357,4.357,0,0,1-2.373-.659,4.7,4.7,0,0,1-1.674-1.885,5.671,5.671,0,0,1-.628-2.624,5.879,5.879,0,0,1,.6-2.584,4.619,4.619,0,0,1,1.67-1.929,4.325,4.325,0,0,1,2.391-.69,3.5,3.5,0,0,1,2.808,1.248,5.858,5.858,0,0,1,1.059,3.85v.352H78.513a4.072,4.072,0,0,0,.426,1.863,3.03,3.03,0,0,0,1.121,1.266,2.986,2.986,0,0,0,1.582.422,7.37,7.37,0,0,0,3.5-1.055Zm-6.53-5.212h4.9V47.9a2.913,2.913,0,0,0-.589-1.916,1.938,1.938,0,0,0-1.573-.712A2.348,2.348,0,0,0,79.625,46,4.126,4.126,0,0,0,78.609,48.138Zm20.083,5.344V51.75a6.548,6.548,0,0,0,2.083.9,8.343,8.343,0,0,0,1.863.259,3.075,3.075,0,0,0,1.784-.4,1.2,1.2,0,0,0,.545-1,.973.973,0,0,0-.255-.677,3.971,3.971,0,0,0-1.266-.694l-.562-.229-1.134-.448a5.816,5.816,0,0,1-2.3-1.318,2.246,2.246,0,0,1-.483-1.459,2.486,2.486,0,0,1,.936-2,4.724,4.724,0,0,1,3.037-.782,9.58,9.58,0,0,1,2.979.457v1.485a9.027,9.027,0,0,0-3.041-.58,3.057,3.057,0,0,0-1.622.365,1.061,1.061,0,0,0-.584.91.958.958,0,0,0,.51.844,9.19,9.19,0,0,0,1.635.729l1.107.4a5.623,5.623,0,0,1,2.136,1.2,2.274,2.274,0,0,1,.615,1.626,2.615,2.615,0,0,1-.98,2.1,4.846,4.846,0,0,1-3.133.822A10.417,10.417,0,0,1,98.692,53.481Zm17.139-1.687a5.283,5.283,0,0,1-1.8,1.854,3.839,3.839,0,0,1-1.929.624,2.947,2.947,0,0,1-2.21-1.063,4.623,4.623,0,0,1-.98-3.226,6.889,6.889,0,0,1,.65-3.045,5.477,5.477,0,0,1,1.74-2.118,4.526,4.526,0,0,1,2.7-.778q.466,0,1.406.1.141.018.422.044h1.644v6.935A9.317,9.317,0,0,0,117.844,54h-1.705A15.3,15.3,0,0,1,115.831,51.794Zm0-1.942v-4.21a6.392,6.392,0,0,0-1.617-.229,3.186,3.186,0,0,0-2.518,1.169,4.714,4.714,0,0,0-1.006,3.182,3.68,3.68,0,0,0,.549,2.2,1.558,1.558,0,0,0,1.252.743,2.743,2.743,0,0,0,1.688-.773A7.33,7.33,0,0,0,115.831,49.852ZM123.372,54l-4.263-9.817H120.9l3.366,7.77,3.437-7.77h1.635L125.042,54Zm15.776-.65a8.66,8.66,0,0,1-3.709.932,4.357,4.357,0,0,1-2.373-.659,4.7,4.7,0,0,1-1.674-1.885,5.671,5.671,0,0,1-.628-2.624,5.879,5.879,0,0,1,.6-2.584,4.619,4.619,0,0,1,1.67-1.929,4.325,4.325,0,0,1,2.391-.69,3.5,3.5,0,0,1,2.808,1.248,5.858,5.858,0,0,1,1.059,3.85v.352h-6.768a4.072,4.072,0,0,0,.426,1.863,3.03,3.03,0,0,0,1.121,1.266,2.986,2.986,0,0,0,1.582.422,7.37,7.37,0,0,0,3.5-1.055Zm-6.53-5.212h4.9V47.9a2.913,2.913,0,0,0-.589-1.916,1.938,1.938,0,0,0-1.573-.712,2.348,2.348,0,0,0-1.718.725A4.126,4.126,0,0,0,132.618,48.138Zm15.724,3.656a5.283,5.283,0,0,1-1.8,1.854,3.839,3.839,0,0,1-1.929.624,2.947,2.947,0,0,1-2.21-1.063,4.623,4.623,0,0,1-.98-3.226,6.889,6.889,0,0,1,.65-3.045,5.477,5.477,0,0,1,1.74-2.118,4.526,4.526,0,0,1,2.7-.778q.466,0,1.406.1.141.018.422.044V39.814h1.644V54h-1.644Zm0-1.942v-4.21a6.392,6.392,0,0,0-1.617-.229,3.186,3.186,0,0,0-2.518,1.169,4.714,4.714,0,0,0-1.006,3.182,3.68,3.68,0,0,0,.549,2.2,1.558,1.558,0,0,0,1.252.743,2.743,2.743,0,0,0,1.688-.773A7.33,7.33,0,0,0,148.342,49.852Zm21.5,1.942a5.283,5.283,0,0,1-1.8,1.854,3.839,3.839,0,0,1-1.929.624,2.947,2.947,0,0,1-2.21-1.063,4.623,4.623,0,0,1-.98-3.226,6.889,6.889,0,0,1,.65-3.045,5.477,5.477,0,0,1,1.74-2.118,4.526,4.526,0,0,1,2.7-.778q.466,0,1.406.1.141.018.422.044h1.644v6.935A9.317,9.317,0,0,0,171.853,54h-1.705A15.3,15.3,0,0,1,169.84,51.794Zm0-1.942v-4.21a6.392,6.392,0,0,0-1.617-.229,3.186,3.186,0,0,0-2.518,1.169,4.714,4.714,0,0,0-1.006,3.182,3.68,3.68,0,0,0,.549,2.2,1.558,1.558,0,0,0,1.252.743,2.743,2.743,0,0,0,1.688-.773A7.33,7.33,0,0,0,169.84,49.852ZM182.4,53.6a9.16,9.16,0,0,1-1.67.576,5.717,5.717,0,0,1-1,.092,4.415,4.415,0,0,1-1.881-.4,2.768,2.768,0,0,1-1.288-1.169,5.052,5.052,0,0,1-.435-2.391V46.362h-2.452V45h2.452V41.045h1.635V45h4.368v1.362h-4.368v3.929a3.588,3.588,0,0,0,.281,1.674,1.733,1.733,0,0,0,.751.716,2.519,2.519,0,0,0,1.112.229,5.054,5.054,0,0,0,2.5-.747Zm13.931.809h-1.608L203.4,39.955h1.556Zm10.011-14.054h1.775v8.956a6.621,6.621,0,0,0,.294,2.413,2.082,2.082,0,0,0,.905.984,2.9,2.9,0,0,0,2.769-.026A2.152,2.152,0,0,0,213,51.543a9.577,9.577,0,0,0,.294-2.922V40.359h1.635v8.9a6.481,6.481,0,0,1-.567,2.984,3.993,3.993,0,0,1-1.481,1.622,4.436,4.436,0,0,1-2.3.545,5.1,5.1,0,0,1-2.259-.475,3.219,3.219,0,0,1-1.477-1.424,8.106,8.106,0,0,1-.5-3.428Zm11.171,13.122V51.75a6.548,6.548,0,0,0,2.083.9,8.343,8.343,0,0,0,1.863.259,3.075,3.075,0,0,0,1.784-.4,1.2,1.2,0,0,0,.545-1,.973.973,0,0,0-.255-.677,3.971,3.971,0,0,0-1.266-.694l-.562-.229-1.134-.448a5.816,5.816,0,0,1-2.3-1.318,2.246,2.246,0,0,1-.483-1.459,2.486,2.486,0,0,1,.936-2,4.724,4.724,0,0,1,3.037-.782,9.58,9.58,0,0,1,2.979.457v1.485a9.027,9.027,0,0,0-3.041-.58,3.057,3.057,0,0,0-1.622.365,1.061,1.061,0,0,0-.584.91.958.958,0,0,0,.51.844,9.19,9.19,0,0,0,1.635.729l1.107.4a5.623,5.623,0,0,1,2.136,1.2,2.274,2.274,0,0,1,.615,1.626,2.615,2.615,0,0,1-.98,2.1,4.846,4.846,0,0,1-3.133.822A10.417,10.417,0,0,1,217.512,53.481Zm18.853-.132a8.66,8.66,0,0,1-3.709.932,4.357,4.357,0,0,1-2.373-.659,4.7,4.7,0,0,1-1.674-1.885,5.671,5.671,0,0,1-.628-2.624,5.879,5.879,0,0,1,.6-2.584,4.619,4.619,0,0,1,1.67-1.929,4.325,4.325,0,0,1,2.391-.69,3.5,3.5,0,0,1,2.808,1.248,5.858,5.858,0,0,1,1.059,3.85v.352h-6.768a4.072,4.072,0,0,0,.426,1.863,3.03,3.03,0,0,0,1.121,1.266,2.986,2.986,0,0,0,1.582.422,7.37,7.37,0,0,0,3.5-1.055Zm-6.53-5.212h4.9V47.9a2.913,2.913,0,0,0-.589-1.916,1.938,1.938,0,0,0-1.573-.712,2.348,2.348,0,0,0-1.718.725A4.126,4.126,0,0,0,229.834,48.138Zm10,5.862V44.183h1.635v2.145a5.494,5.494,0,0,1,1.753-1.815,4.15,4.15,0,0,1,2.2-.6,6.023,6.023,0,0,1,1.775.272v3.542h-1.573V45.483a4.12,4.12,0,0,0-.65-.07,2.814,2.814,0,0,0-1.793.721,7.881,7.881,0,0,0-1.714,2.162V54Zm10.081-.519V51.75a6.548,6.548,0,0,0,2.083.9,8.343,8.343,0,0,0,1.863.259,3.075,3.075,0,0,0,1.784-.4,1.2,1.2,0,0,0,.545-1,.973.973,0,0,0-.255-.677,3.971,3.971,0,0,0-1.266-.694l-.562-.229-1.134-.448a5.816,5.816,0,0,1-2.3-1.318,2.246,2.246,0,0,1-.483-1.459,2.486,2.486,0,0,1,.936-2,4.724,4.724,0,0,1,3.037-.782,9.58,9.58,0,0,1,2.979.457v1.485a9.027,9.027,0,0,0-3.041-.58,3.057,3.057,0,0,0-1.622.365,1.061,1.061,0,0,0-.584.91.958.958,0,0,0,.51.844,9.19,9.19,0,0,0,1.635.729l1.107.4a5.623,5.623,0,0,1,2.136,1.2,2.274,2.274,0,0,1,.615,1.626,2.615,2.615,0,0,1-.98,2.1,4.846,4.846,0,0,1-3.133.822A10.417,10.417,0,0,1,249.917,53.481Zm11.224.932h-1.608l8.675-14.458h1.556Zm18.431-1.063a8.66,8.66,0,0,1-3.709.932,4.357,4.357,0,0,1-2.373-.659,4.7,4.7,0,0,1-1.674-1.885,5.671,5.671,0,0,1-.628-2.624,5.879,5.879,0,0,1,.6-2.584,4.619,4.619,0,0,1,1.67-1.929,4.325,4.325,0,0,1,2.391-.69,3.5,3.5,0,0,1,2.808,1.248,5.858,5.858,0,0,1,1.059,3.85v.352h-6.768a4.072,4.072,0,0,0,.426,1.863,3.03,3.03,0,0,0,1.121,1.266,2.986,2.986,0,0,0,1.582.422,7.37,7.37,0,0,0,3.5-1.055Zm-6.53-5.212h4.9V47.9a2.913,2.913,0,0,0-.589-1.916,1.938,1.938,0,0,0-1.573-.712,2.348,2.348,0,0,0-1.718.725A4.126,4.126,0,0,0,273.041,48.138ZM284.845,54V41.186h-2.936V39.814h4.57V52.638h3.067V54Zm12.208.272a4.228,4.228,0,0,1-3.375-1.472,6.074,6.074,0,0,1,0-7.422,4.6,4.6,0,0,1,6.741,0,6.074,6.074,0,0,1,0,7.422A4.218,4.218,0,0,1,297.053,54.272Zm0-1.362a2.479,2.479,0,0,0,2.083-1.02,4.54,4.54,0,0,0,.773-2.8,4.524,4.524,0,0,0-.773-2.795,2.647,2.647,0,0,0-4.175,0,4.524,4.524,0,0,0-.773,2.795,4.54,4.54,0,0,0,.773,2.8A2.488,2.488,0,0,0,297.053,52.91ZM303.812,54V44.183h1.635v2.145a5.547,5.547,0,0,1,1.7-1.775,3.637,3.637,0,0,1,1.986-.642,2.847,2.847,0,0,1,1.582.461,2.468,2.468,0,0,1,1,1.208,9.736,9.736,0,0,1,.286,2.936V54h-1.635V48.313a8,8,0,0,0-.136-1.868,1.466,1.466,0,0,0-.5-.743,1.251,1.251,0,0,0-.8-.29,2.991,2.991,0,0,0-1.85.817,6.541,6.541,0,0,0-1.63,2.048V54Zm11.338.413h-1.608l8.675-14.458h1.556Zm10.38-.932V51.75a6.548,6.548,0,0,0,2.083.9,8.343,8.343,0,0,0,1.863.259,3.075,3.075,0,0,0,1.784-.4,1.2,1.2,0,0,0,.545-1,.973.973,0,0,0-.255-.677,3.971,3.971,0,0,0-1.266-.694l-.562-.229-1.134-.448a5.816,5.816,0,0,1-2.3-1.318,2.246,2.246,0,0,1-.483-1.459,2.486,2.486,0,0,1,.936-2,4.724,4.724,0,0,1,3.037-.782,9.58,9.58,0,0,1,2.979.457v1.485a9.027,9.027,0,0,0-3.041-.58,3.057,3.057,0,0,0-1.622.365,1.061,1.061,0,0,0-.584.91.958.958,0,0,0,.51.844,9.19,9.19,0,0,0,1.635.729l1.107.4a5.623,5.623,0,0,1,2.136,1.2,2.274,2.274,0,0,1,.615,1.626,2.615,2.615,0,0,1-.98,2.1,4.846,4.846,0,0,1-3.133.822A10.417,10.417,0,0,1,325.529,53.481Zm12.2-7.093a5.369,5.369,0,0,1,1.8-1.854,3.817,3.817,0,0,1,1.925-.624,2.961,2.961,0,0,1,2.215,1.063,4.609,4.609,0,0,1,.984,3.226A6.85,6.85,0,0,1,344,51.245a5.512,5.512,0,0,1-1.745,2.118,4.526,4.526,0,0,1-2.7.778q-.457,0-1.406-.1-.141-.018-.422-.044v3.814h-1.635V44.183h1.635Zm0,1.942v4.21a6.6,6.6,0,0,0,1.635.229,3.19,3.19,0,0,0,2.5-1.165,4.684,4.684,0,0,0,1.015-3.186,3.654,3.654,0,0,0-.554-2.206,1.571,1.571,0,0,0-1.257-.738,2.727,2.727,0,0,0-1.683.773A7.5,7.5,0,0,0,337.729,48.331Zm15.741,3.463a5.283,5.283,0,0,1-1.8,1.854,3.839,3.839,0,0,1-1.929.624,2.947,2.947,0,0,1-2.21-1.063,4.623,4.623,0,0,1-.98-3.226,6.889,6.889,0,0,1,.65-3.045,5.477,5.477,0,0,1,1.74-2.118,4.526,4.526,0,0,1,2.7-.778q.466,0,1.406.1.141.018.422.044h1.644v6.935A9.317,9.317,0,0,0,355.482,54h-1.705A15.3,15.3,0,0,1,353.47,51.794Zm0-1.942v-4.21a6.392,6.392,0,0,0-1.617-.229,3.186,3.186,0,0,0-2.518,1.169,4.714,4.714,0,0,0-1.006,3.182,3.68,3.68,0,0,0,.549,2.2,1.558,1.558,0,0,0,1.252.743,2.743,2.743,0,0,0,1.688-.773A7.33,7.33,0,0,0,353.47,49.852Zm12.612,3.867a9.8,9.8,0,0,1-3.129.554,5.039,5.039,0,0,1-2.624-.681,4.81,4.81,0,0,1-1.789-1.846,5.4,5.4,0,0,1-.642-2.65,5.07,5.07,0,0,1,1.455-3.709,4.749,4.749,0,0,1,3.511-1.477,10.086,10.086,0,0,1,3.217.571v1.573a7.52,7.52,0,0,0-3.067-.782,3.4,3.4,0,0,0-1.687.444,2.918,2.918,0,0,0-1.222,1.384,4.6,4.6,0,0,0-.431,1.934,4.389,4.389,0,0,0,.831,2.531,2.944,2.944,0,0,0,2.606,1.2,7.387,7.387,0,0,0,1.055-.075,13.188,13.188,0,0,0,1.916-.549Zm10.705-.369a8.66,8.66,0,0,1-3.709.932,4.357,4.357,0,0,1-2.373-.659,4.7,4.7,0,0,1-1.674-1.885,5.671,5.671,0,0,1-.628-2.624,5.879,5.879,0,0,1,.6-2.584,4.619,4.619,0,0,1,1.67-1.929,4.325,4.325,0,0,1,2.391-.69,3.5,3.5,0,0,1,2.808,1.248,5.858,5.858,0,0,1,1.059,3.85v.352H370.16a4.072,4.072,0,0,0,.426,1.863,3.03,3.03,0,0,0,1.121,1.266,2.986,2.986,0,0,0,1.582.422,7.37,7.37,0,0,0,3.5-1.055Zm-6.53-5.212h4.9V47.9a2.913,2.913,0,0,0-.589-1.916,1.938,1.938,0,0,0-1.573-.712,2.348,2.348,0,0,0-1.718.725A4.126,4.126,0,0,0,370.257,48.138ZM380.443,54h-1.89l3.858-5.142-3.6-4.676H380.9l2.558,3.3,2.487-3.3H387.8L384.39,48.7l4.052,5.3h-2.1l-2.988-3.911Zm10.318.413h-1.608l8.675-14.458h1.556Zm9.527.949V54h9.545v1.362Zm11.654-1.881V51.75a6.548,6.548,0,0,0,2.083.9,8.343,8.343,0,0,0,1.863.259,3.075,3.075,0,0,0,1.784-.4,1.2,1.2,0,0,0,.545-1,.973.973,0,0,0-.255-.677,3.971,3.971,0,0,0-1.266-.694l-.562-.229L415,49.465a5.816,5.816,0,0,1-2.3-1.318,2.246,2.246,0,0,1-.483-1.459,2.486,2.486,0,0,1,.936-2,4.724,4.724,0,0,1,3.037-.782,9.58,9.58,0,0,1,2.979.457v1.485a9.027,9.027,0,0,0-3.041-.58,3.057,3.057,0,0,0-1.622.365,1.061,1.061,0,0,0-.584.91.958.958,0,0,0,.51.844,9.19,9.19,0,0,0,1.635.729l1.107.4a5.623,5.623,0,0,1,2.136,1.2,2.274,2.274,0,0,1,.615,1.626,2.615,2.615,0,0,1-.98,2.1,4.846,4.846,0,0,1-3.133.822A10.417,10.417,0,0,1,411.943,53.481ZM430.8,53.35a8.66,8.66,0,0,1-3.709.932,4.357,4.357,0,0,1-2.373-.659,4.7,4.7,0,0,1-1.674-1.885,5.671,5.671,0,0,1-.628-2.624,5.879,5.879,0,0,1,.6-2.584,4.619,4.619,0,0,1,1.67-1.929,4.325,4.325,0,0,1,2.391-.69,3.5,3.5,0,0,1,2.808,1.248,5.858,5.858,0,0,1,1.059,3.85v.352h-6.768a4.072,4.072,0,0,0,.426,1.863,3.03,3.03,0,0,0,1.121,1.266,2.986,2.986,0,0,0,1.582.422,7.37,7.37,0,0,0,3.5-1.055Zm-6.53-5.212h4.9V47.9a2.913,2.913,0,0,0-.589-1.916A1.938,1.938,0,0,0,427,45.272a2.348,2.348,0,0,0-1.718.725A4.126,4.126,0,0,0,424.266,48.138ZM433.433,54V44.183h1.635v2.145a5.547,5.547,0,0,1,1.7-1.775,3.637,3.637,0,0,1,1.986-.642,2.847,2.847,0,0,1,1.582.461,2.468,2.468,0,0,1,1,1.208,9.736,9.736,0,0,1,.286,2.936V54H439.98V48.313a8,8,0,0,0-.136-1.868,1.466,1.466,0,0,0-.5-.743,1.251,1.251,0,0,0-.8-.29,2.991,2.991,0,0,0-1.85.817,6.541,6.541,0,0,0-1.63,2.048V54Zm17.358-2.206a5.283,5.283,0,0,1-1.8,1.854,3.839,3.839,0,0,1-1.929.624,2.947,2.947,0,0,1-2.21-1.063,4.623,4.623,0,0,1-.98-3.226,6.889,6.889,0,0,1,.65-3.045,5.477,5.477,0,0,1,1.74-2.118,4.526,4.526,0,0,1,2.7-.778q.466,0,1.406.1.141.018.422.044V39.814h1.644V54h-1.644Zm0-1.942v-4.21a6.392,6.392,0,0,0-1.617-.229,3.186,3.186,0,0,0-2.518,1.169,4.714,4.714,0,0,0-1.006,3.182,3.68,3.68,0,0,0,.549,2.2,1.558,1.558,0,0,0,1.252.743,2.743,2.743,0,0,0,1.688-.773A7.33,7.33,0,0,0,450.791,49.852Zm12.41,3.5a8.66,8.66,0,0,1-3.709.932,4.357,4.357,0,0,1-2.373-.659,4.7,4.7,0,0,1-1.674-1.885,5.671,5.671,0,0,1-.628-2.624,5.879,5.879,0,0,1,.6-2.584,4.619,4.619,0,0,1,1.67-1.929,4.325,4.325,0,0,1,2.391-.69,3.5,3.5,0,0,1,2.808,1.248,5.858,5.858,0,0,1,1.059,3.85v.352h-6.768A4.072,4.072,0,0,0,457,51.223a3.03,3.03,0,0,0,1.121,1.266,2.986,2.986,0,0,0,1.582.422,7.37,7.37,0,0,0,3.5-1.055Zm-6.53-5.212h4.9V47.9a2.913,2.913,0,0,0-.589-1.916,1.938,1.938,0,0,0-1.573-.712,2.348,2.348,0,0,0-1.718.725A4.126,4.126,0,0,0,456.671,48.138ZM466.857,54h-1.89l3.858-5.142-3.6-4.676h2.092l2.558,3.3,2.487-3.3h1.854L470.8,48.7l4.052,5.3h-2.1l-2.988-3.911Zm10.318.413h-1.608l8.675-14.458H485.8Zm11.1-.413V44.183h1.635v2.145a5.494,5.494,0,0,1,1.753-1.815,4.15,4.15,0,0,1,2.2-.6,6.023,6.023,0,0,1,1.775.272v3.542h-1.573V45.483a4.12,4.12,0,0,0-.65-.07,2.814,2.814,0,0,0-1.793.721,7.881,7.881,0,0,0-1.714,2.162V54Zm18.132-.65a8.66,8.66,0,0,1-3.709.932,4.357,4.357,0,0,1-2.373-.659,4.7,4.7,0,0,1-1.674-1.885,5.671,5.671,0,0,1-.628-2.624,5.879,5.879,0,0,1,.6-2.584,4.619,4.619,0,0,1,1.67-1.929,4.325,4.325,0,0,1,2.391-.69,3.5,3.5,0,0,1,2.808,1.248,5.858,5.858,0,0,1,1.059,3.85v.352h-6.768a4.072,4.072,0,0,0,.426,1.863,3.03,3.03,0,0,0,1.121,1.266,2.986,2.986,0,0,0,1.582.422,7.37,7.37,0,0,0,3.5-1.055Zm-6.53-5.212h4.9V47.9a2.913,2.913,0,0,0-.589-1.916,1.938,1.938,0,0,0-1.573-.712,2.348,2.348,0,0,0-1.718.725A4.126,4.126,0,0,0,499.878,48.138Zm9.281,5.344V51.75a6.548,6.548,0,0,0,2.083.9,8.343,8.343,0,0,0,1.863.259,3.075,3.075,0,0,0,1.784-.4,1.2,1.2,0,0,0,.545-1,.973.973,0,0,0-.255-.677,3.971,3.971,0,0,0-1.266-.694l-.562-.229-1.134-.448a5.816,5.816,0,0,1-2.3-1.318,2.246,2.246,0,0,1-.483-1.459,2.486,2.486,0,0,1,.936-2,4.724,4.724,0,0,1,3.037-.782,9.58,9.58,0,0,1,2.979.457v1.485a9.027,9.027,0,0,0-3.041-.58,3.057,3.057,0,0,0-1.622.365,1.061,1.061,0,0,0-.584.91.958.958,0,0,0,.51.844,9.19,9.19,0,0,0,1.635.729l1.107.4a5.623,5.623,0,0,1,2.136,1.2,2.274,2.274,0,0,1,.615,1.626,2.615,2.615,0,0,1-.98,2.1,4.846,4.846,0,0,1-3.133.822A10.417,10.417,0,0,1,509.159,53.481Zm12.2-7.093a5.369,5.369,0,0,1,1.8-1.854,3.817,3.817,0,0,1,1.925-.624,2.961,2.961,0,0,1,2.215,1.063,4.609,4.609,0,0,1,.984,3.226,6.85,6.85,0,0,1-.655,3.045,5.512,5.512,0,0,1-1.745,2.118,4.526,4.526,0,0,1-2.7.778q-.457,0-1.406-.1-.141-.018-.422-.044v3.814h-1.635V44.183h1.635Zm0,1.942v4.21a6.6,6.6,0,0,0,1.635.229,3.19,3.19,0,0,0,2.5-1.165,4.684,4.684,0,0,0,1.015-3.186,3.654,3.654,0,0,0-.554-2.206,1.571,1.571,0,0,0-1.257-.738,2.727,2.727,0,0,0-1.683.773A7.5,7.5,0,0,0,521.358,48.331Zm13.333,5.941a4.228,4.228,0,0,1-3.375-1.472,6.074,6.074,0,0,1,0-7.422,4.6,4.6,0,0,1,6.741,0,6.074,6.074,0,0,1,0,7.422A4.218,4.218,0,0,1,534.691,54.272Zm0-1.362a2.479,2.479,0,0,0,2.083-1.02,4.54,4.54,0,0,0,.773-2.8,4.524,4.524,0,0,0-.773-2.795,2.647,2.647,0,0,0-4.175,0,4.524,4.524,0,0,0-.773,2.795,4.54,4.54,0,0,0,.773,2.8A2.488,2.488,0,0,0,534.691,52.91ZM541.45,54V44.183h1.635v2.145a5.547,5.547,0,0,1,1.7-1.775,3.637,3.637,0,0,1,1.986-.642,2.847,2.847,0,0,1,1.582.461,2.468,2.468,0,0,1,1,1.208,9.736,9.736,0,0,1,.286,2.936V54H548V48.313a8,8,0,0,0-.136-1.868,1.466,1.466,0,0,0-.5-.743,1.251,1.251,0,0,0-.8-.29,2.991,2.991,0,0,0-1.85.817,6.541,6.541,0,0,0-1.63,2.048V54Zm10.916-.519V51.75a6.548,6.548,0,0,0,2.083.9,8.343,8.343,0,0,0,1.863.259,3.075,3.075,0,0,0,1.784-.4,1.2,1.2,0,0,0,.545-1,.973.973,0,0,0-.255-.677,3.971,3.971,0,0,0-1.266-.694l-.562-.229-1.134-.448a5.816,5.816,0,0,1-2.3-1.318,2.246,2.246,0,0,1-.483-1.459,2.486,2.486,0,0,1,.936-2,4.724,4.724,0,0,1,3.037-.782,9.58,9.58,0,0,1,2.979.457v1.485a9.027,9.027,0,0,0-3.041-.58,3.057,3.057,0,0,0-1.622.365,1.061,1.061,0,0,0-.584.91.958.958,0,0,0,.51.844,9.19,9.19,0,0,0,1.635.729l1.107.4a5.623,5.623,0,0,1,2.136,1.2,2.274,2.274,0,0,1,.615,1.626,2.615,2.615,0,0,1-.98,2.1,4.846,4.846,0,0,1-3.133.822A10.417,10.417,0,0,1,552.366,53.481Zm18.853-.132a8.66,8.66,0,0,1-3.709.932,4.357,4.357,0,0,1-2.373-.659,4.7,4.7,0,0,1-1.674-1.885,5.671,5.671,0,0,1-.628-2.624,5.879,5.879,0,0,1,.6-2.584A4.619,4.619,0,0,1,565.1,44.6a4.325,4.325,0,0,1,2.391-.69,3.5,3.5,0,0,1,2.808,1.248,5.858,5.858,0,0,1,1.059,3.85v.352h-6.768a4.072,4.072,0,0,0,.426,1.863,3.03,3.03,0,0,0,1.121,1.266,2.986,2.986,0,0,0,1.582.422,7.37,7.37,0,0,0,3.5-1.055Zm-6.53-5.212h4.9V47.9A2.913,2.913,0,0,0,569,45.984a1.938,1.938,0,0,0-1.573-.712A2.348,2.348,0,0,0,565.7,46,4.126,4.126,0,0,0,564.688,48.138Zm9.281,5.344V51.75a6.548,6.548,0,0,0,2.083.9,8.343,8.343,0,0,0,1.863.259,3.075,3.075,0,0,0,1.784-.4,1.2,1.2,0,0,0,.545-1,.973.973,0,0,0-.255-.677,3.971,3.971,0,0,0-1.266-.694l-.562-.229-1.134-.448a5.816,5.816,0,0,1-2.3-1.318,2.246,2.246,0,0,1-.483-1.459,2.486,2.486,0,0,1,.936-2,4.724,4.724,0,0,1,3.037-.782,9.58,9.58,0,0,1,2.979.457v1.485a9.027,9.027,0,0,0-3.041-.58,3.057,3.057,0,0,0-1.622.365,1.061,1.061,0,0,0-.584.91.958.958,0,0,0,.51.844,9.19,9.19,0,0,0,1.635.729l1.107.4a5.623,5.623,0,0,1,2.136,1.2,2.274,2.274,0,0,1,.615,1.626,2.615,2.615,0,0,1-.98,2.1,4.846,4.846,0,0,1-3.133.822A10.417,10.417,0,0,1,573.97,53.481Zm11.224.932h-1.608l8.675-14.458h1.556ZM9.563,90H1.31V88.5a3.7,3.7,0,0,1,.237-1.244,5.336,5.336,0,0,1,.905-1.49q.668-.826,1.415-1.591l.932-.949q.281-.29,1.23-1.345a9.652,9.652,0,0,0,1.252-1.617,2.322,2.322,0,0,0,.3-1.107,1.547,1.547,0,0,0-.7-1.358A2.745,2.745,0,0,0,5.3,77.317a6.234,6.234,0,0,0-1.121.114,8.28,8.28,0,0,0-1.085.268q-.466.154-1.512.628v-1.45A8.7,8.7,0,0,1,3.8,76.153a10.868,10.868,0,0,1,1.833-.2,5.348,5.348,0,0,1,1.956.347,2.567,2.567,0,0,1,1.327,1.077,2.987,2.987,0,0,1,.435,1.556,3.769,3.769,0,0,1-.558,1.89,13.068,13.068,0,0,1-2.1,2.487l-1,.993-.844.826A10.1,10.1,0,0,0,3.551,86.7a3.569,3.569,0,0,0-.545,1.8H9.563ZM16.2,75.955a3.937,3.937,0,0,1,3.551,1.956,9.872,9.872,0,0,1,1.222,5.269,9.891,9.891,0,0,1-1.222,5.278A3.937,3.937,0,0,1,16.2,90.413a3.94,3.94,0,0,1-3.546-1.956,9.862,9.862,0,0,1-1.226-5.278,9.843,9.843,0,0,1,1.226-5.269A3.94,3.94,0,0,1,16.2,75.955ZM13.535,86.1l4.72-7.392a2.665,2.665,0,0,0-.971-1.1,2.235,2.235,0,0,0-1.085-.286,2.414,2.414,0,0,0-2.232,1.63,9.752,9.752,0,0,0-.765,4.135q0,.571.035,1.23A10.835,10.835,0,0,0,13.535,86.1Zm5.309-5.766-4.685,7.436a2.833,2.833,0,0,0,.87.962,1.969,1.969,0,0,0,1.1.321A2.458,2.458,0,0,0,18.5,87.183a11.681,11.681,0,0,0,.7-4.144A10.093,10.093,0,0,0,18.844,80.332ZM31.166,90H22.913V88.5a3.7,3.7,0,0,1,.237-1.244,5.336,5.336,0,0,1,.905-1.49q.668-.826,1.415-1.591l.932-.949q.281-.29,1.23-1.345a9.652,9.652,0,0,0,1.252-1.617,2.322,2.322,0,0,0,.3-1.107,1.547,1.547,0,0,0-.7-1.358,2.745,2.745,0,0,0-1.582-.479,6.234,6.234,0,0,0-1.121.114A8.28,8.28,0,0,0,24.7,77.7q-.466.154-1.512.628v-1.45a8.7,8.7,0,0,1,2.219-.725,10.868,10.868,0,0,1,1.833-.2,5.348,5.348,0,0,1,1.956.347,2.567,2.567,0,0,1,1.327,1.077,2.987,2.987,0,0,1,.435,1.556,3.769,3.769,0,0,1-.558,1.89,13.068,13.068,0,0,1-2.1,2.487l-1,.993-.844.826A10.1,10.1,0,0,0,25.154,86.7a3.569,3.569,0,0,0-.545,1.8h6.557ZM37.4,88.638V78.108a12.852,12.852,0,0,1-1.433,1,11.1,11.1,0,0,1-1.907.844V78.478a11.56,11.56,0,0,0,3.34-2.118h1.635V88.638h3.278V90H34.058V88.638Zm10.8,0V78.108a12.852,12.852,0,0,1-1.433,1,11.1,11.1,0,0,1-1.907.844V78.478a11.56,11.56,0,0,0,3.34-2.118h1.635V88.638h3.278V90H44.859V88.638ZM63.571,90H55.318V88.5a3.7,3.7,0,0,1,.237-1.244,5.336,5.336,0,0,1,.905-1.49q.668-.826,1.415-1.591l.932-.949q.281-.29,1.23-1.345a9.652,9.652,0,0,0,1.252-1.617,2.322,2.322,0,0,0,.3-1.107,1.547,1.547,0,0,0-.7-1.358,2.745,2.745,0,0,0-1.582-.479,6.234,6.234,0,0,0-1.121.114A8.28,8.28,0,0,0,57.1,77.7q-.466.154-1.512.628v-1.45a8.7,8.7,0,0,1,2.219-.725,10.868,10.868,0,0,1,1.833-.2A5.348,5.348,0,0,1,61.6,76.3a2.567,2.567,0,0,1,1.327,1.077,2.987,2.987,0,0,1,.435,1.556,3.769,3.769,0,0,1-.558,1.89,13.068,13.068,0,0,1-2.1,2.487l-1,.993-.844.826A10.1,10.1,0,0,0,57.56,86.7a3.569,3.569,0,0,0-.545,1.8h6.557ZM69.8,88.638V78.108a12.852,12.852,0,0,1-1.433,1,11.1,11.1,0,0,1-1.907.844V78.478a11.56,11.56,0,0,0,3.34-2.118h1.635V88.638h3.278V90H66.463V88.638ZM81.009,75.955a3.937,3.937,0,0,1,3.551,1.956,9.872,9.872,0,0,1,1.222,5.269,9.891,9.891,0,0,1-1.222,5.278,4.2,4.2,0,0,1-7.1,0,9.862,9.862,0,0,1-1.226-5.278,9.843,9.843,0,0,1,1.226-5.269A3.94,3.94,0,0,1,81.009,75.955ZM78.346,86.1l4.72-7.392a2.665,2.665,0,0,0-.971-1.1,2.235,2.235,0,0,0-1.085-.286,2.414,2.414,0,0,0-2.232,1.63,9.752,9.752,0,0,0-.765,4.135q0,.571.035,1.23A10.835,10.835,0,0,0,78.346,86.1Zm5.309-5.766L78.97,87.768a2.833,2.833,0,0,0,.87.962,1.969,1.969,0,0,0,1.1.321,2.458,2.458,0,0,0,2.373-1.868,11.681,11.681,0,0,0,.7-4.144A10.093,10.093,0,0,0,83.654,80.332Zm3.384,11.03V90h9.545v1.362ZM106.778,90H98.525V88.5a3.7,3.7,0,0,1,.237-1.244,5.336,5.336,0,0,1,.905-1.49q.668-.826,1.415-1.591l.932-.949q.281-.29,1.23-1.345a9.652,9.652,0,0,0,1.252-1.617,2.322,2.322,0,0,0,.3-1.107,1.547,1.547,0,0,0-.7-1.358,2.745,2.745,0,0,0-1.582-.479,6.234,6.234,0,0,0-1.121.114,8.28,8.28,0,0,0-1.085.268q-.466.154-1.512.628v-1.45a8.7,8.7,0,0,1,2.219-.725,10.868,10.868,0,0,1,1.833-.2,5.348,5.348,0,0,1,1.956.347,2.567,2.567,0,0,1,1.327,1.077,2.987,2.987,0,0,1,.435,1.556,3.769,3.769,0,0,1-.558,1.89,13.068,13.068,0,0,1-2.1,2.487l-1,.993-.844.826a10.1,10.1,0,0,0-1.292,1.564,3.569,3.569,0,0,0-.545,1.8h6.557Zm10.8,0h-8.253V88.5a3.7,3.7,0,0,1,.237-1.244,5.336,5.336,0,0,1,.905-1.49q.668-.826,1.415-1.591l.932-.949q.281-.29,1.23-1.345a9.652,9.652,0,0,0,1.252-1.617,2.322,2.322,0,0,0,.3-1.107,1.547,1.547,0,0,0-.7-1.358,2.745,2.745,0,0,0-1.582-.479,6.234,6.234,0,0,0-1.121.114,8.28,8.28,0,0,0-1.085.268q-.466.154-1.512.628v-1.45a8.7,8.7,0,0,1,2.219-.725,10.868,10.868,0,0,1,1.833-.2,5.348,5.348,0,0,1,1.956.347,2.567,2.567,0,0,1,1.327,1.077,2.987,2.987,0,0,1,.435,1.556,3.769,3.769,0,0,1-.558,1.89,13.068,13.068,0,0,1-2.1,2.487l-1,.993-.844.826a10.1,10.1,0,0,0-1.292,1.564,3.569,3.569,0,0,0-.545,1.8h6.557Zm10.8,0h-8.253V88.5a3.7,3.7,0,0,1,.237-1.244,5.336,5.336,0,0,1,.905-1.49q.668-.826,1.415-1.591l.932-.949q.281-.29,1.23-1.345a9.652,9.652,0,0,0,1.252-1.617,2.322,2.322,0,0,0,.3-1.107,1.547,1.547,0,0,0-.7-1.358,2.745,2.745,0,0,0-1.582-.479,6.234,6.234,0,0,0-1.121.114,8.28,8.28,0,0,0-1.085.268q-.466.154-1.512.628v-1.45a8.7,8.7,0,0,1,2.219-.725,10.868,10.868,0,0,1,1.833-.2,5.348,5.348,0,0,1,1.956.347,2.567,2.567,0,0,1,1.327,1.077,2.987,2.987,0,0,1,.435,1.556,3.769,3.769,0,0,1-.558,1.89,13.068,13.068,0,0,1-2.1,2.487l-1,.993-.844.826A10.1,10.1,0,0,0,122.37,86.7a3.569,3.569,0,0,0-.545,1.8h6.557Zm6.231-1.362V78.108a12.852,12.852,0,0,1-1.433,1,11.1,11.1,0,0,1-1.907.844V78.478a11.56,11.56,0,0,0,3.34-2.118h1.635V88.638h3.278V90h-8.253V88.638ZM146.637,90V86.186h-5.792V84.814l5.792-8.455h1.644v8.455H150.8v1.371H148.28V90Zm0-5.186V78.838l-4.052,5.977Zm9.984-8.859a3.937,3.937,0,0,1,3.551,1.956,9.872,9.872,0,0,1,1.222,5.269,9.891,9.891,0,0,1-1.222,5.278,4.2,4.2,0,0,1-7.1,0,9.862,9.862,0,0,1-1.226-5.278,9.843,9.843,0,0,1,1.226-5.269A3.94,3.94,0,0,1,156.621,75.955ZM153.958,86.1l4.72-7.392a2.665,2.665,0,0,0-.971-1.1,2.235,2.235,0,0,0-1.085-.286,2.414,2.414,0,0,0-2.232,1.63,9.752,9.752,0,0,0-.765,4.135q0,.571.035,1.23A10.835,10.835,0,0,0,153.958,86.1Zm5.309-5.766-4.685,7.436a2.833,2.833,0,0,0,.87.962,1.969,1.969,0,0,0,1.1.321,2.458,2.458,0,0,0,2.373-1.868,11.681,11.681,0,0,0,.7-4.144A10.093,10.093,0,0,0,159.267,80.332Zm3.384,11.03V90H172.2v1.362Zm19.74-1.371a9.48,9.48,0,0,1-2.646.422,5.341,5.341,0,0,1-5.124-3.388,10.168,10.168,0,0,1-.018-7.651,5.631,5.631,0,0,1,2.083-2.558,5.326,5.326,0,0,1,2.953-.87,7.946,7.946,0,0,1,2.742.571v1.617a5.587,5.587,0,0,0-2.812-.817,2.964,2.964,0,0,0-1.929.721,4.956,4.956,0,0,0-1.406,2.114A8.472,8.472,0,0,0,175.7,83.2a8.166,8.166,0,0,0,1.011,4.034,3.392,3.392,0,0,0,3.19,1.819q.281,0,.712-.044V84.612h-1.362V83.25h3.138ZM192.779,88.5V90h-7.365V76.359h7.225V77.73h-5.449v4.632h4.9v1.362h-4.9V88.5ZM198.94,90V77.862h-4.087v-1.5h9.958v1.5h-4.1V90Zm8.288-4.843V83.795h6.82v1.362Zm11.681-2.769a5.369,5.369,0,0,1,1.8-1.854,3.817,3.817,0,0,1,1.925-.624,2.961,2.961,0,0,1,2.215,1.063,4.609,4.609,0,0,1,.984,3.226,6.85,6.85,0,0,1-.655,3.045,5.512,5.512,0,0,1-1.745,2.118,4.526,4.526,0,0,1-2.7.778q-.457,0-1.406-.1-.141-.018-.422-.044v3.814h-1.635V80.183h1.635Zm0,1.942v4.21a6.6,6.6,0,0,0,1.635.229,3.19,3.19,0,0,0,2.5-1.165,4.684,4.684,0,0,0,1.015-3.186,3.654,3.654,0,0,0-.554-2.206,1.571,1.571,0,0,0-1.257-.738,2.727,2.727,0,0,0-1.683.773A7.5,7.5,0,0,0,218.909,84.331Zm13.333,5.941a4.228,4.228,0,0,1-3.375-1.472,6.074,6.074,0,0,1,0-7.422,4.6,4.6,0,0,1,6.741,0,6.074,6.074,0,0,1,0,7.422A4.218,4.218,0,0,1,232.242,90.272Zm0-1.362a2.479,2.479,0,0,0,2.083-1.02,5.453,5.453,0,0,0,0-5.6,2.647,2.647,0,0,0-4.175,0,5.453,5.453,0,0,0,0,5.6A2.488,2.488,0,0,0,232.242,88.91Zm6.873.571V87.75a6.548,6.548,0,0,0,2.083.9,8.343,8.343,0,0,0,1.863.259,3.075,3.075,0,0,0,1.784-.4,1.2,1.2,0,0,0,.545-1,.973.973,0,0,0-.255-.677,3.971,3.971,0,0,0-1.266-.694l-.562-.229-1.134-.448a5.816,5.816,0,0,1-2.3-1.318,2.246,2.246,0,0,1-.483-1.459,2.486,2.486,0,0,1,.936-2,4.724,4.724,0,0,1,3.037-.782,9.58,9.58,0,0,1,2.979.457v1.485a9.027,9.027,0,0,0-3.041-.58,3.057,3.057,0,0,0-1.622.365,1.061,1.061,0,0,0-.584.91.958.958,0,0,0,.51.844,9.19,9.19,0,0,0,1.635.729l1.107.4a5.623,5.623,0,0,1,2.136,1.2,2.274,2.274,0,0,1,.615,1.626,2.615,2.615,0,0,1-.98,2.1,4.846,4.846,0,0,1-3.133.822A10.417,10.417,0,0,1,239.115,89.481Zm18.9.123a9.16,9.16,0,0,1-1.67.576,5.717,5.717,0,0,1-1,.092,4.415,4.415,0,0,1-1.881-.4,2.768,2.768,0,0,1-1.288-1.169,5.052,5.052,0,0,1-.435-2.391V82.362h-2.452V81h2.452V77.045h1.635V81h4.368v1.362h-4.368v3.929a3.588,3.588,0,0,0,.281,1.674,1.733,1.733,0,0,0,.751.716,2.519,2.519,0,0,0,1.112.229,5.054,5.054,0,0,0,2.5-.747Zm2.707-.123V87.75a6.548,6.548,0,0,0,2.083.9,8.343,8.343,0,0,0,1.863.259,3.075,3.075,0,0,0,1.784-.4,1.2,1.2,0,0,0,.545-1,.973.973,0,0,0-.255-.677,3.971,3.971,0,0,0-1.266-.694l-.562-.229-1.134-.448a5.816,5.816,0,0,1-2.3-1.318,2.246,2.246,0,0,1-.483-1.459,2.486,2.486,0,0,1,.936-2,4.724,4.724,0,0,1,3.037-.782,9.58,9.58,0,0,1,2.979.457v1.485a9.027,9.027,0,0,0-3.041-.58,3.057,3.057,0,0,0-1.622.365,1.061,1.061,0,0,0-.584.91.958.958,0,0,0,.51.844,9.19,9.19,0,0,0,1.635.729l1.107.4a5.623,5.623,0,0,1,2.136,1.2,2.274,2.274,0,0,1,.615,1.626,2.615,2.615,0,0,1-.98,2.1,4.846,4.846,0,0,1-3.133.822A10.417,10.417,0,0,1,260.719,89.481Zm11.32-4.324V83.795h6.82v1.362Zm13.8,3.48V78.108a12.852,12.852,0,0,1-1.433,1,11.1,11.1,0,0,1-1.907.844V78.478a11.56,11.56,0,0,0,3.34-2.118h1.635V88.638h3.278V90H282.5V88.638Zm11.206,1.775a1.44,1.44,0,1,1,1.011-.422A1.379,1.379,0,0,1,297.044,90.413Zm14.977-.809a9.16,9.16,0,0,1-1.67.576,5.717,5.717,0,0,1-1,.092,4.415,4.415,0,0,1-1.881-.4,2.768,2.768,0,0,1-1.288-1.169,5.052,5.052,0,0,1-.435-2.391V82.362h-2.452V81h2.452V77.045h1.635V81h4.368v1.362H307.38v3.929a3.588,3.588,0,0,0,.281,1.674,1.733,1.733,0,0,0,.751.716,2.519,2.519,0,0,0,1.112.229,5.054,5.054,0,0,0,2.5-.747Zm3.612.4h-1.89l3.858-5.142L314,80.183h2.092l2.558,3.3,2.487-3.3h1.854l-3.41,4.518,4.052,5.3h-2.1l-2.988-3.911Zm17.991-.4a9.16,9.16,0,0,1-1.67.576,5.717,5.717,0,0,1-1,.092,4.415,4.415,0,0,1-1.881-.4,2.768,2.768,0,0,1-1.288-1.169,5.052,5.052,0,0,1-.435-2.391V82.362H324.9V81h2.452V77.045h1.635V81h4.368v1.362h-4.368v3.929a3.588,3.588,0,0,0,.281,1.674,1.733,1.733,0,0,0,.751.716,2.519,2.519,0,0,0,1.112.229,5.054,5.054,0,0,0,2.5-.747Z" transform="translate(742 2001)" fill="#b3bd59"/></g></svg>